<svg id="Слой_4" data-name="Слой 4" xmlns="http://www.w3.org/2000/svg" viewBox="0 0 204.87 354.83"><defs><style>.cls-1{fill:#fadcbe;}.cls-2{fill:#f2cca4;}.cls-3{fill:#08e8de;}.cls-3,.cls-5,.cls-6{stroke:#000;stroke-miterlimit:10;}.cls-3,.cls-5{stroke-width:4px;}.cls-4{fill:#a2f9f0;}.cls-5,.cls-6{fill:none;}.cls-6{stroke-width:3px;}</style></defs><title>icons</title><path class="cls-1" d="M182.47,234.87c-.59,0-.48,11.59-.47,16.15,0,6-.15,10.43-.47,19-.19,5.17-.26,5.4-.62,14.22-.16,4.17-.34,8.5-.47,12.85-.29,9.63-.08,10.24-.28,19.09-.32,14-.48,21-.95,28a71.18,71.18,0,0,0,0,10.25,74.32,74.32,0,0,0,.95,7.47,86.13,86.13,0,0,0,3.3,12.37,86.35,86.35,0,0,0,3.93,10.63,77.62,77.62,0,0,0,7.93,13.28c.39.48,1,1.16,1.7,2.17a12.45,12.45,0,0,0,.95,1.23c.32.37.59.65.66.71.94.9,3.39.34,4.11.19.14,0,2.38-.05,6.85-.1,2.83,0,3,0,6.19,0,2.35,0,4.08-.08,4.58-.09,8.15-.24,29.62-.05,29.62-.05,10.57.1,20,.18,29.39.19,17.54,0,20.05-.48,25.09-.14,4.18.28,8.39-.26,12.56.05a7.17,7.17,0,0,0,2-.15,6.09,6.09,0,0,0,1.37-.47,3.6,3.6,0,0,0,1.37-1,3,3,0,0,0,.52-1.75c.1-2.52,0-5.16,0-6.09V386c0-3.41,0-6.7,0-7.8,0-3.09,0-5.24,0-15.68-.09-15.39-.08-15-.1-15.69-.13-7.79-.4-13.74-.61-18.23-.43-9.2-.56-8.58-1.18-20.74-.44-8.7-.44-10.29-.85-15.26s-.58-5.34-1.33-13.14c-.25-2.66-.59-6.77-1.27-14.88s-1-12-1.23-15c-.62-8.23-.54-8.43-1-14.7-.42-5.39-.82-10.41-1.6-17.1-1.25-10.62-2.38-16.17-2.79-18.09-.76-3.59-1.45-6.27-1.66-7A177.58,177.58,0,0,0,302.28,174c-2.66-6.7-2.48-4.69-3.3-7-.1-.27-.39-1.07-.62-1s-.31,1.13-.33,1.66c-.16,4.07-.24,6.1-.19,6.66.74,7.24.14,14.56.57,21.82,1.08,18.37.77,33.34.61,40.44-.23,10.9-.69,15-1.13,18a101.72,101.72,0,0,1-5.76,22.25c-2.22,5.64-4.69,11.76-10.07,18.47a57,57,0,0,1-8.6,8.69A54.24,54.24,0,0,1,242,316.13a51.79,51.79,0,0,1-19.8-3,52.39,52.39,0,0,1-10.34-5.19,58.17,58.17,0,0,1-16.16-15.08c-4.53-6.44-6.38-12.18-8-17.14a120.53,120.53,0,0,1-4.11-20.79c-.39-3.25-.58-6.35-.58-6.35-.05-.9-.08-1.62-.1-2.09-.12-2.86-.18-7-.09-8.49a8.89,8.89,0,0,0,0-1.56,2.72,2.72,0,0,1-.05-.63c0-.33.1-.5,0-.68A.46.46,0,0,0,182.47,234.87Z" transform="translate(-120.88 -51.19)"/><path class="cls-2" d="M184.27,160.17c.44.05-1,15.56-1.51,29.2-.25,5.92,0,2.4-.29,21.35-.23,13.62-.46,19.88,0,30.05.22,4.74.35,5.14.57,9.36a294.28,294.28,0,0,1-.38,33.44c-1.18,23.81.06,19.26-1.13,45.36-.85,18.65-1.59,23.25,0,32.31,2,11.72,7.12,21.92,9.07,26.08A117.79,117.79,0,0,0,198.3,401l.52.75c.33.46.39.51.38.57-.1.64-4.77.24-4.77.24A250.18,250.18,0,0,0,167,402.3a7.87,7.87,0,0,1-2.51-.14,8.54,8.54,0,0,1-2.6-1.14,9.46,9.46,0,0,1-2.41-2.31,13,13,0,0,1-2.07-5.25c-.51-2.56-.36-5,0-9.68,0-.4.1-1.26.23-3,.37-4.46.5-5.8.76-8.93.28-3.44.43-5.23.57-7.65.18-3.13.21-5.08.28-7.56.08-2.87.1-2.64.57-13.23.35-8,.52-12,.66-15.82.23-6.5.2-7.62.38-13.14.12-3.81.21-5.8,1.18-25.18.76-15.27.85-17,1.09-20.31.45-6.55,1-12.73,1.27-16.11.5-5.8.89-9.83,1-11.39.52-5.29.79-8.13,1.28-12.09.5-4.15.95-7.8,1.79-12.62.16-.92.32-1.76,2.17-10.68,2.21-10.57,2.49-11.8,2.84-13.22,1.09-4.45,2.07-7.85,2.88-10.63s1.57-5.18,3.17-10.21c3.64-11.48,2.17-6,2.55-7.23a6.33,6.33,0,0,1,.52-1.27c.24-.44.35-.5.61-1s.24-.55.52-1.19A6,6,0,0,1,184.27,160.17Z" transform="translate(-120.88 -51.19)"/><path class="cls-2" d="M297.65,168.72a10.19,10.19,0,0,0,.85,2.79c.19.34.71,2.29,1.75,6.19,4.59,17.22,5.06,41.43,5.06,41.43.61,31.84,1.35,20.92,1.51,47.25.28,47.05-2.33,40.17-1.13,66.14,0,0,1.46,31.65-1.52,46.87C303.08,385,299.64,396,298.88,399a6.72,6.72,0,0,1-.71,2c-.58,1-1.25,1.47-1.1,1.8s.9.26,1.56.22c1.37-.09,2.75.09,4.11-.08a58,58,0,0,1,12,0c1.63.2,3.65.54,5.45-.53a5.62,5.62,0,0,0,1.63-1.49,6.21,6.21,0,0,0,1-3,26.17,26.17,0,0,0-.07-4.87c0-.3,0-1.74-.07-4.61,0,0,0-2-.05-4.11,0-3.43-.05-5.14,0-11.05.08-19.24-.57-37.47-.57-37.47-.36-10-.83-17.68-1.18-23.48-.47-7.61-.89-14.36-1.71-23.44S318,277.61,317,266.28c-.42-4.79-.55-6.66-1.18-14.52-1.34-16.91-2-25.36-2.67-31.78-1.17-11.46-2.35-20.27-4.72-29.12-.41-1.54-1.17-4.34-2.44-8a144.78,144.78,0,0,0-6.33-14.77,2.72,2.72,0,0,0-.33-.66,1.43,1.43,0,0,0-.54-.59.56.56,0,0,0-.4-.09c-.27.06-.4.41-.45.54s0,.16-.12.45-.09.24-.12.35A1.42,1.42,0,0,0,297.65,168.72Z" transform="translate(-120.88 -51.19)"/><path class="cls-3" d="M184.89,118.7c.37,11.52-.08,23-.12,34.56,0,11.75-.33,23.49-.6,35.24-.39,16.8-.74,33.6-.23,50.4.6,19.77,2.86,40.77,15.05,56.35a51.73,51.73,0,0,0,72.48,8.95c12.69-9.86,20.16-25.25,23.53-41s3-32,2.65-48.05q-.79-35.26-1.6-70.54c-.42-18.77,1.33-42.19-13.17-56.62-9.41-9.37-22.56-11.31-35.26-12C228.31,74.9,206.49,77,194,93.78a48.1,48.1,0,0,0-9.1,24.36c0,.23,0,.43,0,.56" transform="translate(-120.88 -51.19)"/><path class="cls-4" d="M193.16,160c0-7,0-14,0-21.07-.06-10.09.42-20.5,3.75-30.11,2.42-7,6.91-14.88,12.91-19.32,2-1.48,7.47-4.27,9.77-1.61s-3.09,8.1-4,10.73a81.82,81.82,0,0,0-4,16c-.13.91-.27,2.12-.37,3.78a202.37,202.37,0,0,0-.19,23.43c1.57,23.43,1.08,46.92.56,70.38-.47,21.24-3.34,44,4.48,64.28,2.37,6.14,5.51,13,9.89,18l4,4.53c0,.05.24.26.48.56,0,0,.23.28.44.57,3.59,5.11-11.91-.68-13.9-2-14.45-9.4-21.72-26.44-23.55-43.06-1.07-9.73-.36-19.55.25-29.28s.26-19-.06-28.64C193.15,184.82,193.14,172.4,193.16,160Z" transform="translate(-120.88 -51.19)"/><path class="cls-5" d="M183.23,157.81c-14.76,35.58-19.67,74.2-21.88,112.38-1.22,21-2,42.05-2.82,63.09q-.59,16.13-1.2,32.26c-.36,9.13-2.36,19.75-1.05,28.8a11.05,11.05,0,0,0,4.39,7.72c2.66,1.77,6.06,1.82,9.25,1.82l74,0c24.52,0,49.13.24,73.63,0a7.35,7.35,0,0,0,3.89-.79c2.07-1.33,2.29-4.22,2.28-6.68q0-16.41.06-32.84c.26-37.07-3.23-74-6.33-110.94-2.48-29.44-3.12-66-20.12-91l-.77-1.14" transform="translate(-120.88 -51.19)"/><path class="cls-6" d="M311,102.39c0,1.1,0,2.21-.1,3.31" transform="translate(-120.88 -51.19)"/><path class="cls-6" d="M309.17,88.63c.28,1.06.54,2.14.76,3.22" transform="translate(-120.88 -51.19)"/><path class="cls-6" d="M300.58,71.92a41.91,41.91,0,0,1,4.55,6.66" transform="translate(-120.88 -51.19)"/><path class="cls-6" d="M286.35,60.72a47.41,47.41,0,0,1,6.49,4" transform="translate(-120.88 -51.19)"/><path class="cls-6" d="M269.27,54.85c2.41.5,4.8,1.11,7.16,1.85" transform="translate(-120.88 -51.19)"/><path class="cls-6" d="M249.74,52.69c2.93.08,5.85.25,8.76.54" transform="translate(-120.88 -51.19)"/><path class="cls-6" d="M231.58,53.36q3.87-.37,7.76-.56" transform="translate(-120.88 -51.19)"/><path class="cls-6" d="M213.66,56.56q3.6-1,7.28-1.68" transform="translate(-120.88 -51.19)"/><path class="cls-6" d="M195.7,64.54a53.22,53.22,0,0,1,7.84-4.38" transform="translate(-120.88 -51.19)"/><path class="cls-6" d="M181,82.6A39.76,39.76,0,0,1,188,71.32" transform="translate(-120.88 -51.19)"/><path class="cls-6" d="M177.35,107.61a50.56,50.56,0,0,1,.48-14.27" transform="translate(-120.88 -51.19)"/><line class="cls-6" x1="1.13" y1="35.18" x2="7.78" y2="27.51"/><line class="cls-6" x1="5.99" y1="27.59" x2="13.2" y2="34.52"/><line class="cls-6" x1="6.93" y1="28.49" x2="6.93" y2="28.49"/><line class="cls-6" x1="6.93" y1="195.91" x2="6.93" y2="28.49"/></svg>
