<svg id="Слой_6" data-name="Слой 6" xmlns="http://www.w3.org/2000/svg" viewBox="0 0 198.85 372.28"><defs><style>.cls-1{fill:#f9c49d;}.cls-2{fill:#fac9a7;}.cls-3{fill:#e69c68;}.cls-12,.cls-14,.cls-15,.cls-4{fill:none;stroke-miterlimit:10;}.cls-12,.cls-4{stroke:#000;}.cls-4{stroke-width:4px;}.cls-5{fill:#e59965;}.cls-6{fill:#d754a0;}.cls-7{fill:#d6428f;}.cls-8{fill:#ffabe7;}.cls-9{fill:#ffccea;}.cls-10{fill:#ab2274;}.cls-11{fill:#cb82b5;}.cls-12{stroke-width:2px;}.cls-13{fill:#df1152;}.cls-14{stroke:#a90;}.cls-15{stroke:#916012;}</style></defs><title>icons</title><path class="cls-1" d="M279,65.69a196.41,196.41,0,0,1,1.89,23.81c0,15.56.42,12.3.28,27.3-.11,12.48-.46,17.91-.66,20.7,0,0-1,14.42-5,23.76-.6,1.41-1.24,2.73-1.24,2.73-1.17,2.41-2.05,3.81-3.36,6.08-1.92,3.33-2.89,5-3.41,6.21a32.75,32.75,0,0,0-2,7.3,25.93,25.93,0,0,0-.36,7.41c.39,3.53,1.28,3.7,2.27,8.29a42.41,42.41,0,0,1,.92,8.43,68.68,68.68,0,0,1-.49,8.51c-.67,7.14-1.06,8.18-1.38,12.89-.24,3.39-.06,3.25-.25,9-.28,8.48-.64,8.39-.78,14.46s.12,10.63.42,15.66a58.73,58.73,0,0,0,1,9.39c.84,3.82,1.46,4.14,1.74,7,.44,4.58-.65,8.37.07,8.57.17.05.35-.14.74-.56,3-3.19,1.1-.92,2.94-3.16a24.25,24.25,0,0,1,3.69-3.08,45.61,45.61,0,0,1,4.36-3,27.21,27.21,0,0,1,5.88-2.9c4-1.2,4.9,1.36,9.81.49,1.63-.28,2.7-.74,4.43-.39a8.2,8.2,0,0,1,3.76,1.95c1.43,1.29,1.93,2.69,2.71,4.81a17.64,17.64,0,0,1,1.28,7.5,18.36,18.36,0,0,1-.64,3.69,31.23,31.23,0,0,1-3.28,8c-2.09,3.55-4.4,5.65-9,9.86a33.19,33.19,0,0,1-7.06,5.17,20,20,0,0,1-3.07,1.42c-3.2,1.14-5.86,1.1-5.87,1.58,0,.16.32.29,1,.56a9.91,9.91,0,0,0,2.35.76c1.95.35,4.87,2.62,6.66,4.47a28.51,28.51,0,0,1,6.08,11.35,12.78,12.78,0,0,1,0,7.14c-1,3-3.29,4.59-6.18,6.63a18.31,18.31,0,0,1-7.8,3.71,17.4,17.4,0,0,1-9.19-.93c-.64-.27-2.58-1.2-3.65-1.61a5.76,5.76,0,0,1-1.24-.55,5.34,5.34,0,0,0-.64-.37c-.43-.2-.48-.23-.52-.21-.26.12,0,1.28.13,1.7.05.18.12,1.5.28,4.12.17,3,.13,5.11.24,8.35,0,.7.15,4.11.51,8.33.47,5.42.77,5.56.84,8.56a55.11,55.11,0,0,1-.53,8.41c-.61,5.15-1.13,5.66-1.57,10.27a34.26,34.26,0,0,0-.18,7.86,27.92,27.92,0,0,0,2.19,8.2,20,20,0,0,0,4.08,6.41A13.62,13.62,0,0,0,278.3,432a13.33,13.33,0,0,0,10.16-1.53,17.33,17.33,0,0,0,2.31-1.71,14.34,14.34,0,0,0,4-4.49c.4-.79.53-1.33,1.38-3a4.13,4.13,0,0,1,1.56-2,2.34,2.34,0,0,1,1.9-.24c.6.26.7.79,1.33,1.86a13.12,13.12,0,0,0,1.67,2.26,8.88,8.88,0,0,0,3,2A10.21,10.21,0,0,0,309,426c.93.08,4.15.37,6.47-1.76a7.65,7.65,0,0,0,1.9-2.87,12.16,12.16,0,0,0,.73-2.94c.12-1.14,0-1.65.41-2.28a2.75,2.75,0,0,1,1.51-1c.7-.19,1,0,2.38.18.24,0,.92,0,2.27.06,1.75,0,2.18,0,2.64-.3.18-.12.24-.2.81-.62s.71-.49.93-.66a4.64,4.64,0,0,0,1.14-1.39c.32-.62.22-.91.3-3.22.08-1.91.15-1.66.11-2.26-.09-1.38-.41-1.91-.05-2.62a1.8,1.8,0,0,1,1.16-.92c.64-.08.94.49,1.8.91a8.83,8.83,0,0,0,2.7.35c2.7.17,3.15,0,3.49-.26s.4-.5.92-1.31c1.06-1.67,1.52-1.58,2.36-2.84a29.93,29.93,0,0,0,1.53-3.92c.56-1.55.84-2.33.85-2.41.54-2.82-1-4.15-.05-5.66a2.85,2.85,0,0,1,1.61-1.18,4.25,4.25,0,0,1,1.44.06c1.69,0,3.05-1.94,3.55-2.66a12.37,12.37,0,0,0,1.46-3.46,52,52,0,0,0,1.64-5.38,31.33,31.33,0,0,0,.64-6.18,61.84,61.84,0,0,0-.52-9.18c-.49-4.39-.7-4.12-1-7.14-.54-5.17.09-5.84-.19-13.22-.1-2.62-.27-4.64-.59-8.67-.31-3.76-.46-5.63-.74-7.4a64,64,0,0,0-2.26-9.28c-1.89-5.95-2.5-5.45-3.83-9.87-1.27-4.25-1.61-7.74-2.15-13.26-.38-3.86-.28-4.91-.83-9.52a51.82,51.82,0,0,0-1.25-7.74c-.39-1.49-.79-2.62-3.45-8.79-3-6.91-3.12-7-3.82-8.91a58,58,0,0,1-2.77-10.08c-.34-2.06-1.06-7.23,1.44-22.4,1.28-7.75,1.53-6.77,2.08-11,1.41-10.59-.51-14.31-1.23-30.52a187.06,187.06,0,0,1,0-19.18c.44-8.07,1.35-14.45,2.37-21.54.73-5.11,1.55-10.91,3-18,1.89-9.08,2.27-7.91,6.52-24.19,5.34-20.49,6.1-27.61,7.94-30.24.23-.33,1.37-1.87.85-2.93a2.14,2.14,0,0,0-1.51-.94c-4.94-1.13-51.08-.39-57.17-.48,0,0-7.08-.1-15.12.29-.64,0-1.8.18-2,.12a.47.47,0,0,0-.28,0s-.07,0-.08.08a.25.25,0,0,0,0,.07.11.11,0,0,1,0,.06A0,0,0,0,1,279,65.69Z" transform="translate(-159.76 -63.66)"/><path class="cls-2" d="M163.39,65.69c3.94-.31,62.52,1.85,70.67-1,.46-.17,2.5-1,3.4-.1s.31,2.34,0,3.78c-.6,2.84-.17,5.8-.37,8.69-.47,6.71.49,9.77.75,24.67.08,4.57,0,5.67.19,9.35.29,6.07.67,7.36.95,12,.46,7.77-.4,7.87-.1,16.53.23,6.6.35,9.9,1.51,13.8,1,3.19,2.5,6.16,5.58,12.09a110.29,110.29,0,0,1,5.1,10.21,33.16,33.16,0,0,1,2.46,7.27c.53,3,.37,5.47-.76,11.91-1.86,10.6-2.5,9.9-2.74,14s.47,4,1.42,14c.46,4.87.19,3.88.94,14.36.32,4.41.45,8.83.85,13.23.58,6.34,1.2,10.18-.28,10.87-.84.39-1.43-.67-4.25-1.52a11.65,11.65,0,0,0-6.71-.37,10,10,0,0,0-4.91,3.78c-2.43,3-2.9,6.26-3.34,9.38a31.88,31.88,0,0,0,.34,11.28,37.17,37.17,0,0,0,3,8.41,37.72,37.72,0,0,0,2.64,4.85c1.71,2.64,2.33,2.68,5.55,6.63,3.1,3.8,3.93,5.45,4.26,7.35.08.5.68,2.56.09,2.88-.27.15-.69-.12-1-.35a20.16,20.16,0,0,1-3.87-4,19.69,19.69,0,0,0-2.86-2.6,31.23,31.23,0,0,0-4.51-3,32.21,32.21,0,0,0-6.47-2.67,25.25,25.25,0,0,0-7.35-1.2,23.51,23.51,0,0,0-4.11.35c-3.72.62-11.51,1.9-18.45,7.68-2.08,1.74-3.6,3-4.6,5.36a13.23,13.23,0,0,0,.21,9.59,3.85,3.85,0,0,0,1.53,2,4.08,4.08,0,0,0,1.94.47c1.72.17,2.35,1,4.23,1.91a18.94,18.94,0,0,0,5.76,1.73c.7.12,2.44.15,5.91.22,2.77,0,5.53.88,8.29.67.07,0,.37,0,.43.09s0,.19-.45.6c-1.11,1-2.37,1.19-3.52,2.06a7.5,7.5,0,0,0-1.65,1.82,12.71,12.71,0,0,0-1.24,2.07,64.44,64.44,0,0,0-4,10.35c-.31,1.15-.51,1.87-.71,2.94a20.91,20.91,0,0,0-.3,7.69c.3,1.83.55,3.18,1.68,4.36a6.74,6.74,0,0,0,2.82,1.65,9.39,9.39,0,0,0,3.84.32c2.38-.22,4-1,6.63-2.18a31.85,31.85,0,0,0,6.22-3.58,34.2,34.2,0,0,0,3.47-3.1,79.91,79.91,0,0,0,7.14-8c3.41-4.43,5.12-6.65,5.44-8.38a15.64,15.64,0,0,1,1.65-4.62,4.78,4.78,0,0,0,.26-.45c.12-.23.14-.35.2-.35s.2.33.3.67c.18.66.27,1,.32,1.29a24.36,24.36,0,0,0,.63,2.91,12.24,12.24,0,0,0,.78,1.95c1.65,3.47.69,15,.69,15-.42,5.09,0,3-.56,11.69-.53,8.24-.79,12.35-1,14.1a37,37,0,0,0-.35,8.86,54.68,54.68,0,0,0,1.06,5.74,82.33,82.33,0,0,1,1.28,10.56,40.76,40.76,0,0,1-1.77,14.81c-1.56,4.78-2.79,8.54-6.59,11.2-4.92,3.44-10.59,2.56-11.84,2.34a17.26,17.26,0,0,1-7.86-3.76c-4.24-3.55-5.66-8.3-7.59-7.86-.33.07-.35.23-1.2,1a24.06,24.06,0,0,1-4.18,2.83c-.87.47-4.89,2.62-9,1.07a8.94,8.94,0,0,1-5-4.47c-1.26-3,.13-5.83-1-6.38-.8-.38-1.51,1.06-3.47,1.28-1.63.18-2.91-.61-4.83-1.8a13.13,13.13,0,0,1-4.59-4c-1.88-2.85-1.07-6.29-1.85-6.38-.48-.06-.64,1.24-1.77,1.7s-2.47-.26-3.11-.64c-3.57-2-5.36-6.48-5.58-7-2.29-5.86-.46-8.38-3.14-11.3-1.46-1.59-2.28-1.15-4.25-2.76-1.65-1.35-3.74-3.84-5-10s-.25-8.62.21-19.91c.31-7.64-.12-7.95.35-15.52a84,84,0,0,1,1.49-13.11c.65-3.12,1.11-4.18,3.54-11.91s3.64-11.54,4.18-13.74c2-8.23,1-8.7,3-18.71a97.46,97.46,0,0,1,4.32-16.09c2.18-5.81,3.26-6.76,5.46-13.25,1.9-5.62,2.85-8.42,3-12.4.09-3.15-.44-3.45-2.27-13.25a112.81,112.81,0,0,1-2.06-13.54c-.14-2.1-.09-5.06,0-11,.09-5.21.15-9.14.43-14.46.3-5.7.46-5.62.78-11.62.34-6.36.5-9.54.35-13.75a112.76,112.76,0,0,0-1.34-13.39c-1-6.71-2.17-11.74-2.55-13.33-1.49-6.14-2-6.25-3.76-13.25-.55-2.15-.6-2.51-3.05-13.75-1.74-8-2.62-12.06-3.12-14.1-2.92-12.09-3.15-9.81-3.82-14.46,0,0-1.79-12.35-3.9-14.38-.09-.09-.62-.57-.5-.92S163.16,65.7,163.39,65.69Z" transform="translate(-159.76 -63.66)"/><path class="cls-3" d="M251.45,393.94c-1.06-.11-2.24,3.22-3.78,7.56a27,27,0,0,0-1.89,7.46c-.33,4.24.91,5,.47,8-.05.35-.91,5.88-5.38,8.6-5,3-11.79.92-15.41-1.79-1.59-1.2-2.85-2.73-3.21-2.46s.77,2.92,2.27,4.91a16.36,16.36,0,0,0,6,4.92c1,.48,6.8,3.15,12.66.47,4.56-2.09,6.48-6.2,7.75-8.88.64-1.37,1.73-4,2.26-10C254,404.52,253.29,394.11,251.45,393.94Z" transform="translate(-159.76 -63.66)"/><path class="cls-3" d="M250.79,384.77c-.47,0-1.38-6.69-1.61-13.51-.27-7.88.61-8.9-.09-13.13a22.16,22.16,0,0,1-.48-7.37c.16-1.15.41-2.19.19-2.27-.4-.16-1.94,3.22-2.93,5.1-4.92,9.37-13.46,14.43-17,16.54-4.41,2.61-6.86,3.11-8.22,3.3-2.26.31-6.24.86-9.36-1.6-3.6-2.85-3.46-8.08-3.4-10.59.1-4.51,1.88-8.2,3.12-10.77s1.58-2.48,2.83-5.29c1-2.22,1.54-4,3.12-7.27.23-.47,1.07-1.46.85-1.71s-.89.35-2.08.62a7,7,0,0,1-2.45.05c-5.44-.58-6.57-.81-6.57-.81-9.4-1.9-10.88-1.78-12.85-3.21l-3.21-2.65c-1.56-1.27-1.84-1.5-2.08-2-.74-1.55,0-3.33.42-4.48a30.07,30.07,0,0,1,2.22-3.6c1.17-1.83,2.53-3.53,3.73-5.33a2.13,2.13,0,0,1,.29-.33c.24-.24.68-.53.83-.43s-.12.68-.34,1.32a10.24,10.24,0,0,0-.44,2.58,7.93,7.93,0,0,0,.28,3.56,6.7,6.7,0,0,0,1.7,2.56,10.45,10.45,0,0,0,4.63,2.52,81.86,81.86,0,0,0,10,2.74c3.86.66,5.79,1,8.4.81,1.54-.11,3.49-.39,3.6,0s-.77.63-1.8,1.34a21.64,21.64,0,0,0-3.12,2.93c-2.17,2.39-2.06,4.64-4.65,10.49-1.53,3.46-2,3.73-2.46,5.79a19.19,19.19,0,0,0-.09,6.26c.24,2.16.38,3.27,1.15,4.53a8,8,0,0,0,3.52,3,8.85,8.85,0,0,0,3.95.68,15.44,15.44,0,0,0,6.4-1.56,26.26,26.26,0,0,0,6.19-4.13,75.07,75.07,0,0,0,7.39-7c4.87-5.23,7.3-7.85,8.22-10.75.69-2.16,1.75-4.18,2.48-6.33.36-1,.63-1.91,1-1.91.72,0,1.37,2.87,1.63,4.65.54,3.64-.07,5.52-.57,10.11-.17,1.63,0,.24-.56,10.8-.09,1.52-.25,4.33-.48,8-.38,6.14-.37,5.33-.44,7.09s-.15,4.1-.43,7.25C251.06,383.65,251,384.76,250.79,384.77Z" transform="translate(-159.76 -63.66)"/><path class="cls-3" d="M267.8,383.64c.47,0,.85-4.73.94-5.86.39-4.83.38-9.07.38-9.07,0-3.42-.16-5.12.57-5.39s1.28.72,2.36,1.61c2.1,1.73,4.25,2.09,8.22,2.74a27.32,27.32,0,0,0,9.16.09,26.32,26.32,0,0,0,9.36-3.4c2.73-1.66,5.83-3.54,7.65-7.46a13.82,13.82,0,0,0,1.13-8.32c-1.1-5.76-6-9.33-7.65-10.49-2.61-1.88-4.89-4.28-7.75-5.76-.37-.19-1.28-.65-1.23-1.13.1-.91,3.48-.86,6.62-1.8.91-.27,2.95-1,8.22-5.38,5.46-4.57,8.19-6.86,10.68-10.59,2.12-3.17,5-7.54,5-13.6,0-2.12,0-6.35-3.11-10-2.88-3.42-6.6-4.2-9.55-4.82-2.15-.45-2.43,0-2.48.07-.15.3.27.66.8,1.6a11.41,11.41,0,0,1,1.15,3.13,16.35,16.35,0,0,1,.39,2.8c.26,5.67-3.06,12.19-3.06,12.19-4.32,8.47-12.22,14.24-14.71,16a19.74,19.74,0,0,1-2.25,1.33,17.75,17.75,0,0,1-3.45,1.44,30,30,0,0,1-3.48.72c-.92.14-1.67.2-1.7.43s.2.27,1.05.65c1.11.51,1.66.69,2.28,1a14.12,14.12,0,0,1,2.1,1.15,17.93,17.93,0,0,1,1.89,1.47,31.36,31.36,0,0,1,5.67,6.49,27.59,27.59,0,0,1,2.75,6.78,11.21,11.21,0,0,1,.63,3.07,9.79,9.79,0,0,1-1.41,5.38c-.78,1.29-1.83,2.1-3.92,3.72a26.22,26.22,0,0,1-6,3.83,15.56,15.56,0,0,1-5.77,1.61,15.37,15.37,0,0,1-5.48-.76c-1.57-.45-4.41-1.26-5.61-2.21a8.71,8.71,0,0,0-1.88-.84c-.09,0-.26-.09-.37,0-.27.18,0,.95.05,1.2a27.53,27.53,0,0,1,.39,3.76c.34,2.31,0,4.85.12,11.14a84,84,0,0,0,.62,8.49C267.45,383.12,267.64,383.64,267.8,383.64Z" transform="translate(-159.76 -63.66)"/><path class="cls-3" d="M232.76,279.43c-.11.05,0,.63.09.91.49,2.17.29,3.55,1.26,7.91a41,41,0,0,0,2.62,8.65c1.29,2.86,2,4.39,3.55,6.09,1.91,2.07,3.27,2.38,4.57,4.79.68,1.28.68,1.91,1.59,2.87s1.76,1.31,2.34,2.58c.09.2.21.52.32.5s.17-1.39.1-2.13a10.42,10.42,0,0,0-1.34-4.18c-2-3.6-4-4.19-7.51-8.93-.35-.46-.8-1.06-1.35-1.91a34.47,34.47,0,0,1-3.61-7.48,39.46,39.46,0,0,1-1.95-7.44c-.07-.44-.11-.71-.11-.71a5.28,5.28,0,0,0,0-.78C233.19,279.75,232.87,279.39,232.76,279.43Z" transform="translate(-159.76 -63.66)"/><path class="cls-3" d="M298.31,418.6c.29-.08-.39-4.26-1.6-8.6-1.94-6.91-4.17-10.45-5.86-17-.76-2.93-1.13-4.43-.94-6.14.2-1.9.83-3.1.09-4.06a2.9,2.9,0,0,0-3.21-.76,3,3,0,0,0-1.23,1c-1.42,2.15,1.21,7.16,2.46,9.64,1.58,3.16,3,6.8,6,14.08S298,418.68,298.31,418.6Z" transform="translate(-159.76 -63.66)"/><path class="cls-3" d="M267.23,395.17c1.11-.13,2.32,2.88,4,7a22.11,22.11,0,0,1,2,7.46c.14,2.44-.34,3-.47,5.48-.15,2.7-.39,7.26,2,10.21,3.11,3.85,10.17,4.25,14.65,1.89,4.25-2.24,6-6.87,6.61-6.52.44.24-.27,2.61-1.32,4.53a15.55,15.55,0,0,1-7.56,6.71,15,15,0,0,1-11.34-.47c-4.24-2-6.07-5.62-7.65-8.69-2.54-4.95-2.82-9.38-3-13.33C264.74,403.49,265.46,395.36,267.23,395.17Z" transform="translate(-159.76 -63.66)"/><path class="cls-4" d="M161.69,65.31c3.42,12.26,6.19,22.89,8.31,31.37,3.35,13.36,2,9,9.45,40.82,3,12.73,3.7,15.63,4.16,21.16.59,7.23.09,11.43-.76,26.46-.63,11.19-1.8,16.3-1.13,23.81.62,7,1.51,12.09,1.51,12.09.4,2.3.7,3.6,1.23,6.9.56,3.48.92,5.79,1.13,8.51a43,43,0,0,1-.09,9.92c-.71,4.77-2.24,6.88-4.63,12.28a105.89,105.89,0,0,0-6.81,22.58c-1,5.73-.25,4.76-1.51,12.76a159.92,159.92,0,0,1-4.06,18.61c-2.28,8.05-2.62,6.77-3.78,11.81-1.57,6.8-1.7,12.4-1.89,20.13-.17,6.74.21,7.94-.28,13.13-.14,1.46-.47,4.42-.67,8.6a38,38,0,0,0,0,6.33,28.25,28.25,0,0,0,2.37,8,22.66,22.66,0,0,0,3.68,6,5,5,0,0,0,1.7,1.23,5.71,5.71,0,0,0,2.46.37,5,5,0,0,0,.82-.09" transform="translate(-159.76 -63.66)"/><path class="cls-4" d="M239.07,63.89a309.61,309.61,0,0,0-2,32c-.05,5-.1,10,.28,16.73.37,6.6.74,7.75.85,13.6.09,5-.15,6.31,0,13.18a65.45,65.45,0,0,0,.71,10.35,40.81,40.81,0,0,0,2.55,9.21c1.71,4.11,2.56,4.08,5.53,9.78a74.56,74.56,0,0,1,4.25,9.78c1.43,4.09,2.14,6.13,2.27,8.65.16,3.27-.65,4.19-2.13,10.91a79.46,79.46,0,0,0-1.84,11.06c-.32,4.23.09,6.84.71,12.18,0,0,1.1,9.59,2,22.82.26,3.87.55,9.57.57,16.59" transform="translate(-159.76 -63.66)"/><path class="cls-4" d="M278.33,64.31c1.18,10.2,1.72,18.8,2,25.23.34,8.12.28,15,.15,28.63,0,3.35-.1,8.87-.43,16-.38,8.28-.58,12.49-1.27,15.73-1.39,6.45-3.78,11.56-6.67,17.72-2.07,4.43-3.59,7-5.1,12.05a30.09,30.09,0,0,0-1.7,8.92c0,2.83.64,5.75,2,11.48,1.29,5.51,1.55,5.46,1.84,7.52.62,4.39-.25,6.86-1.28,12.61a145.51,145.51,0,0,0-2,18.71c-.19,3.38-.18,6.5-.14,12.61,0,5.39.12,12.88.42,22" transform="translate(-159.76 -63.66)"/><path class="cls-4" d="M356,65.59c-3.11,12.1-6,23.25-8.5,33.31-4,15.64-5.81,23.07-7.94,33.16-2.4,11.38-3.6,17.07-4.11,22.68a186.57,186.57,0,0,0,.14,31c.41,4.54.82,7.11,1,12.47a98.54,98.54,0,0,1-.71,17.86c-.87,6.31-1.58,6.19-2.41,12.61-.62,4.85-1.21,9.37-.56,15s2.27,10,5,17c2.62,6.86,3.17,6.52,4.53,11.19a78.5,78.5,0,0,1,2.55,14.18c.62,5.52.34,6.39.71,9.92.91,8.6,3.27,10.36,6,20.12a95.84,95.84,0,0,1,3.26,21.26c.24,7.08-.54,9.42.42,16.87.56,4.38,1.11,5.75,1.28,10.06a55.53,55.53,0,0,1-1.14,12.76,26.85,26.85,0,0,1-2.55,7.37,9.16,9.16,0,0,1-2.12,2.57,5.81,5.81,0,0,1-2.41,1.2,6.77,6.77,0,0,1-.82,0l-.72,0a2.21,2.21,0,0,0-.55,0c-.52.21-.29,1.92-.27,2.09a25.2,25.2,0,0,1-.28,5.14c-.31,2.67-1.56,4.55-2.84,6.51-1.17,1.76-2,2.93-3.5,3.54a8.24,8.24,0,0,1-2.79.47,10.79,10.79,0,0,1-2.83-.38,3.6,3.6,0,0,1-.9-.33l-.52-.28c-.36-.18-.54-.27-.61-.24-.25.12,0,1.11.19,1.8a13.65,13.65,0,0,1,.14,3.31,7.57,7.57,0,0,1-2,4.86,7.32,7.32,0,0,1-3.49,1.84,8.57,8.57,0,0,1-3.36.33c-1.27-.16-2.08-.33-2.08-.33l-.8-.14c-.78-.13-.87-.12-.94-.09-.52.21-.44,1.51-.43,1.79a11.69,11.69,0,0,1-1.37,5.2c-1.53,3.07-6.13,4.05-8.88,3.92a8.77,8.77,0,0,1-4.06-1.09,15,15,0,0,1-1.8-1.32,9.48,9.48,0,0,1-1.18-1.13c-.41-.48-.39-.56-.8-1-.69-.79-.83-.65-1.14-1.14-.45-.72-.31-1.31-.75-1.51a.83.83,0,0,0-.57,0c-1,.31-1.17,2.1-1.94,3.88a14.1,14.1,0,0,1-1.93,2.93,17.89,17.89,0,0,1-9.88,6.23,13.26,13.26,0,0,1-7.37,0,13.5,13.5,0,0,1-4.44-2.5,20,20,0,0,1-4.16-4.73,28.13,28.13,0,0,1-4.34-11.95,32.65,32.65,0,0,1-.1-6.57c.24-4,.88-5.45,1.66-11.33.35-2.73.53-4.09.61-5.82.18-4-.28-5.63-.85-11.81-.34-3.71-.59-6.36-.66-10-.06-2.6,0-5.63-.33-10.4-.06-.83-.11-1.52-.14-2" transform="translate(-159.76 -63.66)"/><path class="cls-5" d="M235.67,82.6c-.23,0-.64,1.39-3.87,34.68a150.12,150.12,0,0,0-.86,23.33c.37,7.62.59,11.52,2.56,15.88,3.15,7,6.68,7.09,10.58,15.21a41.37,41.37,0,0,1,3.78,13.7c.59,6.1-.36,10.76-1.42,15.78-2,9.27-3.7,9.25-4.63,15.88-1,6.9.14,12.46,1.23,17.95,2.19,11,5.16,12.44,4.35,19-.22,1.72-.84,5,.73,6.12a2.62,2.62,0,0,0,3.23-.26c.52-.68.14-1.68-.09-2.55-.84-3.17.37-4,.28-8.6,0-3-.55-2.41-1-7.09-.33-3.25-.17-4.25-.37-8s-.5-5.5-.85-8.79c-.94-8.59-1.41-12.88-1-16.34A97,97,0,0,1,251.83,192a13.7,13.7,0,0,0,.75-3.78,14.06,14.06,0,0,0-.28-3.59,29.84,29.84,0,0,0-2.46-6.9c-2.2-5.07-1.65-4.18-2.55-6.05-2-4.1-2.9-4.82-4.82-8.69a56.92,56.92,0,0,1-2.64-6.33c-.78-2.27-1.87-6.11-2.37-13.42s.31-7.72.1-16.54c-.13-5.6-.44-5-.85-13.32-.22-4.57-.18-5.8-.47-17.38C235.91,83.17,235.81,82.61,235.67,82.6Z" transform="translate(-159.76 -63.66)"/><path class="cls-4" d="M254,343.29c.15,5.38.09,9.91,0,13.32-.17,6-.53,11.07-1.13,19.37-.73,9.92-.9,10.28-.76,12.95.35,6.61,1.57,7.38,2.08,14.27a43.2,43.2,0,0,1-.85,14.74c-1.26,4.94-2.76,10.8-8.13,14a16,16,0,0,1-10.49,1.8,16.71,16.71,0,0,1-7.46-3.59c-3.8-2.94-6.46-6.67-6.61-8.7-.07-.86-.14-1.39-.29-2.45-.24-1.82-.34-1.89-.38-1.89s-.07,1.43-.47,2.93a10.29,10.29,0,0,1-3.87,5.29,11.09,11.09,0,0,1-4.54,2.17,10,10,0,0,1-6.52-.66c-.71-.35-3.5-1.72-4.15-4.25a14.94,14.94,0,0,1-.29-2.74,21.39,21.39,0,0,1,0-2.55c.13-1.81.48-2.86.29-2.93s-.49,1.14-1.61,2a5.29,5.29,0,0,1-2.93.85,8.42,8.42,0,0,1-3.87-.38,8.7,8.7,0,0,1-3.88-3,10.71,10.71,0,0,1-2.17-4.44,7.79,7.79,0,0,1-.1-3.4c.22-1,.65-1.86.57-1.89a6.47,6.47,0,0,1-1.7,2.26c-1.45,1-3.39.41-4.16.19a9.1,9.1,0,0,1-4.53-3.3,14.16,14.16,0,0,1-2.18-3.78,18.55,18.55,0,0,1-1.13-3.69,41.29,41.29,0,0,1-.38-4.16,30.86,30.86,0,0,0-.75-4.34" transform="translate(-159.76 -63.66)"/><path class="cls-6" d="M243.32,309.23a49.61,49.61,0,0,1-4.82-3.62c-2.19-1.72-4.42-2.39-7.08-3.18a32.15,32.15,0,0,0-6.95-1.21,30,30,0,0,0-6.66.21,29.22,29.22,0,0,0-8.93,2.84,33,33,0,0,0-4.25,2.62c-3.15,2.18-4.85,3.36-6.24,5.39-1,1.5-2.72,3.86-2.26,6.8a8.64,8.64,0,0,0,2.19,4.32,9,9,0,0,0,2,1.56,15,15,0,0,0,5.17,1.84c5.55,1.26,4.41,1.24,6.73,1.63,1.48.25,3.92.43,8.79.78a21.18,21.18,0,0,0,3.4.14,6.66,6.66,0,0,1,.85,0c.54,0,1,.08,1.14.29.17.39-1.07,1.27-1.56,1.63a18.73,18.73,0,0,1-1.63,1c-.55.32-1.53.9-2.13,1.35a8.18,8.18,0,0,0-2.2,2.76,75.44,75.44,0,0,0-3.82,8.57,27.06,27.06,0,0,0-1.77,5,24.76,24.76,0,0,0-.5,3.33,25,25,0,0,0-.07,4.25,7.87,7.87,0,0,0,.57,3,6.27,6.27,0,0,0,1.55,2,8.65,8.65,0,0,0,3.13,1.83c2.24.68,4.18,0,6.37-.7a22.49,22.49,0,0,0,5.17-2.55,37.21,37.21,0,0,0,6.17-5.17,69.74,69.74,0,0,0,6.52-7.09c4.43-5.61,6.64-8.41,7-11,.18-1.22.39-4.29,2.63-6,.15-.12.36-.45.63-.42.65.06.91,1.77,1.56,4.46.22.9.64,2.61,1.07,3.9a23.6,23.6,0,0,0,2.69,5.39,33.1,33.1,0,0,0,4.53,6,24.72,24.72,0,0,0,7.33,5.57c1.92.92,6.45,3.08,11.67,1.89,1.1-.25,3.5-1.61,8.31-4.34,2.59-1.47,3.56-2.13,4.38-3.36a9.7,9.7,0,0,0,1.24-6.23c-.33-5.73-3.61-9.76-5.1-11.58-1.36-1.66-3.66-4.47-6.94-5.71a28.71,28.71,0,0,0-5.39-1.56c-1-.15-1.92-.22-1.94-.43s1.73-.6,3.31-.94a42,42,0,0,0,10.44-3.45,29.07,29.07,0,0,0,4.4-3,45.47,45.47,0,0,0,7.22-6.85,28.76,28.76,0,0,0,3.93-5.67,27.77,27.77,0,0,0,2.59-8.12c.49-3.05.91-5.62-.14-8.69a11.83,11.83,0,0,0-2.36-4.21c-2.91-3.28-7-3.83-9.45-4.16a23.14,23.14,0,0,0-12.9,2.18c-3.11,1.47-5.84,4.08-11.29,9.3a17.43,17.43,0,0,0-2.17,2.51c-.35.49-.49.83-.9,1.41s-.53.67-.57.67c-.37-.08,0-2.86.15-5.11a30.49,30.49,0,0,0-.85-7.74c-.66-3.35-1.56-8-4.21-12.24a24.66,24.66,0,0,0-13.51-10.3,12.43,12.43,0,0,0-6.57-.48,10.17,10.17,0,0,0-4.77,2.41,11.63,11.63,0,0,0-3.19,5.8,24.29,24.29,0,0,0-.69,9,36.21,36.21,0,0,0,1.43,8.86,35.58,35.58,0,0,0,3.86,8.58,28.41,28.41,0,0,0,5.18,7,18.39,18.39,0,0,1,2.2,2.31,14.79,14.79,0,0,1,2.3,4.07c.51,1.45.08,1.05.75,3.47a3,3,0,0,1,.1,2.31c0,.08-.37.67-.88.71s-.79-.65-1.95-1.95-1.44-1.22-2.27-2.23a5,5,0,0,0-.85-.85A4.85,4.85,0,0,0,243.32,309.23Z" transform="translate(-159.76 -63.66)"/><path class="cls-7" d="M250,309.37c.19-.07-.81-3.79-2.55-7.51-1.49-3.21-2.12-3.39-3.54-6.1-2-3.85-2.63-7.1-3.83-13.6a30.45,30.45,0,0,1-.56-8.08c.22-3.11.85-4.44,1.7-5.39a7.16,7.16,0,0,1,3.4-2,11.11,11.11,0,0,1,6.38,0c3.22.87,5.19,2.74,7.08,4.53a37.48,37.48,0,0,1,7.09,10.07c.12.25.44,1,1,1.88.12.21.21.36.35.63.43.85.53,1.36.6,1.35a8.54,8.54,0,0,0-.17-2.69,29.41,29.41,0,0,0-1.85-6.7,27,27,0,0,0-5.28-8.4,29,29,0,0,0-13.85-7.23,7,7,0,0,0-1.77-.14,7.12,7.12,0,0,0-2.34.64,12,12,0,0,0-3.33,2.16,12.6,12.6,0,0,0-2.66,3.51,15.5,15.5,0,0,0-1.45,6.09,32,32,0,0,0-.07,6.88,35.7,35.7,0,0,0,3.9,12.68,30.92,30.92,0,0,0,3.93,6.56c3.1,3.82,4,4.75,4,4.75a14.86,14.86,0,0,1,1.7,2.09,10.33,10.33,0,0,1,1,1.7l.32.78.21.49C249.53,308.8,249.9,309.4,250,309.37Z" transform="translate(-159.76 -63.66)"/><path class="cls-7" d="M265.93,296.9c-1.37-.25-3,4.15-5.53,8.86a28.11,28.11,0,0,0-1.49,4.18c-.25.81-.46,1.59-.14,1.84s1.12-.22,1.35-.35a5.52,5.52,0,0,0,1.91-2.2c.84-1.52,1.44-1.54,3.19-3.47,2.26-2.49,2.35-3.63,4.54-6.74a42.12,42.12,0,0,1,4.81-5.59c3.29-3.36,5.53-5.66,9.22-7.45,2.22-1.08,5.73-2.78,9.71-1.84a11.56,11.56,0,0,1,4.18,2,10,10,0,0,1,3,3.61c.94,2.13.6,4.45-1,8.72-1.92,5.17-3,8.11-5.88,11.9-6.87,9.11-15.69,12.19-15.17,13.25.37.73,4.6-.58,7.09-1.63a31.19,31.19,0,0,0,7.44-4.6,40.15,40.15,0,0,0,5.67-5.1c.69-.77,6.75-7.61,8.22-16.52a14.89,14.89,0,0,0,.07-5.1,11.85,11.85,0,0,0-2.27-5.6,11.53,11.53,0,0,0-3.47-2.9c-2.74-1.52-5.32-1.54-8-1.56a19,19,0,0,0-6.59.85c-.79.26-1.47.55-5.67,3.12-6.07,3.71-7.09,4.59-7.72,5.17-2.32,2.14-3.49,3.42-4,4.68a4.78,4.78,0,0,1-1.42,2.05,1.81,1.81,0,0,1-.78.5A2.21,2.21,0,0,1,265.93,296.9Z" transform="translate(-159.76 -63.66)"/><path class="cls-8" d="M244.39,293.07c.34-.26.17-1-.29-2.62-.7-2.49-1.06-3.54-1.06-3.54-.86-2.49-1.28-3.74-1.35-4a19.62,19.62,0,0,1-.42-4.54c.06-1.07.23-2.11-.43-2.83-.07-.08-.56-.69-1-.57-.64.18-.68,1.88-.71,2.9a21.82,21.82,0,0,0,.43,4.4c.31,1.92.43,2.88.63,3.75.51,2.12.74,1.95.93,3.33a4.9,4.9,0,0,0,.63,2.56,3.35,3.35,0,0,0,1.28,1C243.45,293,244.07,293.31,244.39,293.07Z" transform="translate(-159.76 -63.66)"/><path class="cls-9" d="M281.4,319.15c-.15-.33,1-1.17,2.51-2.27,1.33-1,1.88-1.23,3.92-2.5,2.56-1.61,2.31-1.59,4.44-2.88,1.21-.74,1.79-1.05,2.83-1.8s1.56-1.26,1.66-1.18-1.46,2.87-3.83,5.2a20.91,20.91,0,0,1-5.43,3.87C284.82,318.88,281.63,319.65,281.4,319.15Z" transform="translate(-159.76 -63.66)"/><path class="cls-10" d="M249.56,323.33c-.24-.53-1-.26-2-.85a4.25,4.25,0,0,1-1.7-2.69,3.35,3.35,0,0,1,.36-2.84,2.61,2.61,0,0,1,2.76-1c.44.18.49.48,1.42,1.06.55.35.87.55,1.06.43s0-.87-.14-2.13a5.18,5.18,0,0,1,.07-2.48,4,4,0,0,1,2.62-1.91,5.07,5.07,0,0,1,3.83.14,3.18,3.18,0,0,1,1.63,1.49c.44,1-.15,1.7.28,2.2.61.69,1.95-.41,3.19.21s1.63,2.79,1.49,4.11a4.07,4.07,0,0,1-1.49,3c-.9.58-2,.45-2,.7s.63.27,1.42.71a3.76,3.76,0,0,1,1.7,1.63,3.2,3.2,0,0,1-1.28,3.55c-1,.64-1.86,0-2.76.78-.65.55-.37,1-1.07,1.77a3.09,3.09,0,0,1-2.83,1.06c-1.25-.33-1.94-1.86-2.06-2.13-.28-.62-.31-1.1-.56-1.13s-.46,1-1.28,1.56a2.88,2.88,0,0,1-3.05.07,3,3,0,0,1-1.34-2,5.59,5.59,0,0,1,.92-3.41C249.34,324.13,249.74,323.75,249.56,323.33Z" transform="translate(-159.76 -63.66)"/><path class="cls-11" d="M255,323.33a1.49,1.49,0,0,1-1.85-.78c-.16-.6.63-.9.64-1.84s-.71-1.29-.5-1.7,1.52-.57,2.06,0,.24,1.46.43,1.49.32-1.3,1.06-1.56a1.24,1.24,0,0,1,1.42.63,1.51,1.51,0,0,1-.78,1.71c-.48.26-1,.12-1,.28s1,.42,1.21,1.06-.61,1.64-1.14,1.56c-.75-.11-1-2.45-1.2-2.41S255.52,323,255,323.33Z" transform="translate(-159.76 -63.66)"/><path class="cls-8" d="M227.38,321.49c-.41,1.43-7.12.82-7.58.78-6.17-.59-7.49-1.8-7.94-2.27-1.15-1.19-1.89-2.95-1.49-3.33s1.31.57,3,1.35c3.59,1.6,8.56,1.84,10.7.92a3.81,3.81,0,0,1,2.19-.29,1.51,1.51,0,0,1,1,.5c.22.32.19.76.14,1.63A5.65,5.65,0,0,1,227.38,321.49Z" transform="translate(-159.76 -63.66)"/><path class="cls-8" d="M223.27,350.19c.16-.63,1.67-.27,3.75-1.06,1.67-.64,1.46-1.15,4.47-3.33s3.84-2.05,5-3.62c.66-.93,1.06-1.91,1.63-1.84s.88.86.92,1.56c.06,1.15-.84,2-1.91,3a73.28,73.28,0,0,1-5.46,5c-2.66,1.81-4,2.72-5.67,2.4S223.1,350.83,223.27,350.19Z" transform="translate(-159.76 -63.66)"/><path class="cls-8" d="M280.1,331.2c-.37,1,1.72,2.12,3.83,4.82,1.33,1.7,1.18,2.14,2.55,3.54.27.28,2.52,2.59,3.4,2.05.36-.21.36-.83.36-1.06a4.15,4.15,0,0,0-1.56-2.69,50.33,50.33,0,0,1-4.25-5.39,5,5,0,0,0-2.34-2,1.75,1.75,0,0,0-1.28,0A1.44,1.44,0,0,0,280.1,331.2Z" transform="translate(-159.76 -63.66)"/><path class="cls-12" d="M249.75,311.35c-.75-4.75-4.32-7.61-7.37-11.33a43.93,43.93,0,0,1-7-12.85,33.75,33.75,0,0,1-1.7-14c.35-3.71.72-7.13,3.4-10a11.22,11.22,0,0,1,6.8-3.6c2.3-.25,4,.4,6.8,1.52a23.82,23.82,0,0,1,15.5,16.06,40.25,40.25,0,0,1,1.89,8.88,19.85,19.85,0,0,1,.19,6.43c-.4,2.31-1.21,3.83-.95,4s1.73-2.56,4.16-5.3,4.55-4,8.13-6.23c4-2.53,6.06-3.79,9.07-4.35a23.29,23.29,0,0,1,7.37,0c3.13.36,4.83.55,6.61,1.7a11.38,11.38,0,0,1,4.35,6.24c1.74,5.19.14,9.94-.95,13-2.71,7.73-7.83,12.21-11.15,15.12-4,3.53-8.36,6-11.34,6.61s-4,.76-4,.76c-2.86.46-4.15.5-4.16.75,0,.45,3.92.2,8.12,2.27a19.9,19.9,0,0,1,6.62,5.48,22.54,22.54,0,0,1,3.4,5.67c1.25,3,2.75,6.64,1.51,10.39-1.12,3.38-3.89,5.12-7.18,7.18-2.3,1.45-5.38,3.38-9.64,3.41a19.22,19.22,0,0,1-7.74-1.89,25,25,0,0,1-6.05-3.41,27.8,27.8,0,0,1-6.43-7.37,22.86,22.86,0,0,1-2.83-5.1,64.27,64.27,0,0,1-2.08-7.37c-.32-1.49-.42-2.22-.76-2.27-.74-.1-1.49,3.29-3,6.81-1.36,3.12-2.76,5-5.29,8.5a65,65,0,0,1-11,11.72,28,28,0,0,1-6.81,4.34,12.79,12.79,0,0,1-6,1.52,9.21,9.21,0,0,1-6.05-2.27c-2.58-2.46-2.28-6.27-2.08-9.26.23-3.35,1.48-6.2,4-11.91,2.89-6.62,4.34-8,5.67-8.88,2.25-1.48,4.61-1.77,4.53-2.27s-2.29-.4-6-.56a74.31,74.31,0,0,1-10.21-.95,38.45,38.45,0,0,1-8.12-2.46c-2.77-1.18-4.17-1.79-5.11-3.21-1.87-2.83-.71-6.5-.37-7.56,1.16-3.67,3.77-5.74,6.61-7.93a32.79,32.79,0,0,1,10.58-5.48,31.66,31.66,0,0,1,18.15.18c4.24,1.35,8.7,3.81,11.14,6.24,1.55,1.54,3.33,2.86,4.73,4.54.77.92,1.46,1.86,1.89,1.7C250.21,314.32,249.81,311.75,249.75,311.35Z" transform="translate(-159.76 -63.66)"/><path class="cls-13" d="M167.43,381.23a4.5,4.5,0,0,1-1.78-3.12,4.29,4.29,0,0,1,.5-2.41,3.93,3.93,0,0,1,1.84-1.77,4.44,4.44,0,0,1,3.9.42,3.39,3.39,0,0,1,1.35,1.21c.94,1.65-.31,3.77-.71,4.46a3.07,3.07,0,0,1-5.1,1.21Z" transform="translate(-159.76 -63.66)"/><path class="cls-13" d="M177.2,399.65a6.74,6.74,0,0,1-.7-3.26,5.21,5.21,0,0,1,.49-2,3.6,3.6,0,0,1,1-1.35c.62-.46,1.41-.48,3-.49a6.13,6.13,0,0,1,2.69.28,3.44,3.44,0,0,1,1.7,1.49,4.22,4.22,0,0,1,.29,2.34,9.47,9.47,0,0,1-.57,2.83,4.37,4.37,0,0,1-.85,1.7,4.2,4.2,0,0,1-2.76,1.14,4,4,0,0,1-2.77-.43A4.47,4.47,0,0,1,177.2,399.65Z" transform="translate(-159.76 -63.66)"/><path class="cls-13" d="M190,411.35a5.78,5.78,0,0,1-.71-1.78,6.38,6.38,0,0,1,.14-2.9,4.35,4.35,0,0,1,1.21-2.62c.58-.47,1.31-.5,2.76-.57a10.07,10.07,0,0,1,4,.43c1,.34,1.71.58,2.13,1.27s.29,1.29.14,2.62a8.72,8.72,0,0,1-.85,3.26,5.34,5.34,0,0,1-1.7,2.2,4.75,4.75,0,0,1-2.27.85,4.87,4.87,0,0,1-2.55-.42A5.37,5.37,0,0,1,190,411.35Z" transform="translate(-159.76 -63.66)"/><path class="cls-13" d="M203.35,419.43a9.69,9.69,0,0,1,.22-3.19,5.69,5.69,0,0,1,2.26-3.48c1.73-1.06,3.71-.49,5.18-.07a6.66,6.66,0,0,1,3.9,2.41,4.74,4.74,0,0,1,.92,2.55c0,1.46-.72,2.5-1.7,3.83a8.23,8.23,0,0,1-2.56,2.48,6.27,6.27,0,0,1-2.83.92,5,5,0,0,1-3.19-.71,4.83,4.83,0,0,1-1.77-2.12A6.55,6.55,0,0,1,203.35,419.43Z" transform="translate(-159.76 -63.66)"/><path class="cls-13" d="M226.1,423.75c-.93-1.25-.67-3-.42-4.75a11.19,11.19,0,0,1,1.13-3.54c.51-1,.69-1,2.84-3.69,1.56-2,1.62-2.18,2.12-2.41,1-.46,1.55,0,4.47.43,2.69.39,2.84.08,4.39.56a7.65,7.65,0,0,1,3.47,2,6.62,6.62,0,0,1,1.14,1.7c.83,1.84.13,2.72.14,6.38,0,1.95.2,2.92-.29,4.53a3.58,3.58,0,0,1-1.13,1.92,3.82,3.82,0,0,1-2.34.7,14.37,14.37,0,0,1-4.82-.63c-2.41-.63-2.9-.81-4.39-1.21C227.75,424.5,226.88,424.79,226.1,423.75Z" transform="translate(-159.76 -63.66)"/><path class="cls-13" d="M273.09,425.87c-1.16-1.3-1-3.15-.76-6a18.57,18.57,0,0,1,.66-3.68,9.3,9.3,0,0,1,1.7-3.73,8.58,8.58,0,0,1,3.92-2.37,13.31,13.31,0,0,1,5.2-.85,7.52,7.52,0,0,1,3.31.67c1.54.77,2.25,2,3.49,4.15a10.48,10.48,0,0,1,1.66,4.21,11.28,11.28,0,0,1,0,2.64c-.16,1.77-.23,2.65-.85,3.36-.13.15-.31.32-2.27,1.18-1.5.66-2.25,1-3,1.23-1.41.44-1.36.23-3.36.75s-2.23.79-3.3.81a9.35,9.35,0,0,1-2.46-.33,9.08,9.08,0,0,1-2.13-.76A6.41,6.41,0,0,1,273.09,425.87Z" transform="translate(-159.76 -63.66)"/><path class="cls-13" d="M305.35,422.47a2.79,2.79,0,0,0-.35-.15,3.88,3.88,0,0,1-1.77-1.6,5.16,5.16,0,0,1-.29-3.44,5,5,0,0,1,.57-2,5.41,5.41,0,0,1,3.17-2.12,8.75,8.75,0,0,1,2.88-.47,7.08,7.08,0,0,1,3.12.42,3.64,3.64,0,0,1,2,1.42c.11.19.21.42.24,2.83a25.58,25.58,0,0,1-.1,2.84,3.73,3.73,0,0,1-.28,1.51c-.39.69-1.08,1-2.13,1.37a11,11,0,0,1-2.74.66c-1.69.2-2.8.32-3.3-.28A3,3,0,0,0,305.35,422.47Z" transform="translate(-159.76 -63.66)"/><path class="cls-13" d="M321.51,413.07A6.27,6.27,0,0,1,320,410.9a8.42,8.42,0,0,1-.94-2.13,4.26,4.26,0,0,1,.18-3.4,3.76,3.76,0,0,1,1.52-1.23,5.67,5.67,0,0,1,2.45-.66,9.45,9.45,0,0,1,2.7.57c2.23.65,2.51,1,2.64,1.13.32.42.34,1.06.38,2.32a8.73,8.73,0,0,1-.38,3.78,4.14,4.14,0,0,1-1.37,2,4.43,4.43,0,0,1-3.12.56A4.53,4.53,0,0,1,321.51,413.07Z" transform="translate(-159.76 -63.66)"/><path class="cls-13" d="M334.46,400.83a5.7,5.7,0,0,1-1.37-2.17,5.52,5.52,0,0,1,.23-4.44,3.54,3.54,0,0,1,1.47-1.56c.85-.43,1.84-.23,3.78.19a4.84,4.84,0,0,1,2.36.85,3.58,3.58,0,0,1,1,2.32,5.17,5.17,0,0,1-.42,2.55,7.06,7.06,0,0,1-1.28,2.08,4.22,4.22,0,0,1-2.5,1.74C336.21,402.58,335,401.36,334.46,400.83Z" transform="translate(-159.76 -63.66)"/><path class="cls-13" d="M347.57,381.87c-.6-.29-2.08-1.1-2.31-2.48a11.18,11.18,0,0,1,.46-2.34c.42-1.72.56-2.08.93-2.38a2.58,2.58,0,0,1,1.59-.46,4.22,4.22,0,0,1,3.12,1,3.69,3.69,0,0,1,1.17,2c.15.81-.23,1.71-1,3.47-.65,1.48-.88,1.67-1.07,1.77C349.37,383.05,347.81,382,347.57,381.87Z" transform="translate(-159.76 -63.66)"/><path class="cls-14" d="M298.6,418.13a27.65,27.65,0,0,0-1.37-8c-1.55-4.75-4.36-9-6-13.76a28.64,28.64,0,0,1-1.24-12.7,1.73,1.73,0,0,1,.23-.78,1.3,1.3,0,0,1,.58-.43c1.3-.5,2.77.54,3.27,1.83a9.07,9.07,0,0,1,.19,4.12,48.6,48.6,0,0,0,.22,11.37c.43,3.12,1.16,6.19,1.89,9.26l2.54,10.7" transform="translate(-159.76 -63.66)"/><path class="cls-14" d="M318.63,414.84a4.48,4.48,0,0,0-.53-2.89c-.4-.68-1-1.25-1.4-1.92a10.89,10.89,0,0,1-1-2.16l-3.23-8.39a43.88,43.88,0,0,1-2.22-6.92,14.28,14.28,0,0,1,.24-7.2c.2-.62.76-1.36,1.36-1.08a1.07,1.07,0,0,1,.31.25,5.61,5.61,0,0,1,1.27,4.07c0,1.46-.41,2.88-.57,4.33a31.7,31.7,0,0,0,.38,7.65,30.45,30.45,0,0,0,1.21,6c.72,2.06,1.89,4,2.06,6.17" transform="translate(-159.76 -63.66)"/><path class="cls-14" d="M326,382.74c-.11-1.38-.15-2.76-.18-4.14a4.77,4.77,0,0,1,.23-2,1.6,1.6,0,0,1,1.54-1.06c.92.1,1.36,1.17,1.61,2.06a20.63,20.63,0,0,1,.79,3.81,26,26,0,0,1-.36,5.05,43.12,43.12,0,0,0-.18,7.87c.08,1.08.25,6.7,1.47,6.82C329.07,395,326.53,389.29,326,382.74Z" transform="translate(-159.76 -63.66)"/><path class="cls-14" d="M346,385.91q-1.75-5.54-3.49-11.05a22.48,22.48,0,0,1-1.26-6.69,86.93,86.93,0,0,1-.37-9.68A4.9,4.9,0,0,1,342,355a4.31,4.31,0,0,1,1.7,2.74,12.15,12.15,0,0,1,.1,3.3q-.45,6.93-1.56,13.78" transform="translate(-159.76 -63.66)"/><path class="cls-5" d="M280,65.31c.64-.12,2.34,5,3.12,10.06a45.46,45.46,0,0,1,.42,9.92c-.25,4.89.28,4.61,2.27,25.37,1.07,11.09,1.6,16.74,1.7,22,.19,9.63.28,14.44-1.27,19.13-2.11,6.35-6.13,12.3-9.78,17.72-3.23,4.79-3.38,4.28-4.4,6.38-.92,1.9-3.42,7.72-1.41,20.69,1.37,8.9,2.78,7.71,4.53,17.58,1,5.6,2.06,11.89.85,19.7-.77,5-1.44,3.92-3.12,11.48-.55,2.49-1.08,5.35-3,20.83-1,7.85-1.29,10.93-1.7,10.92s-.8-4.9-1-8.37c-.48-8.38-.29-14.31-.29-14.31.36-11.3,1-21,1.28-24.38.28-4,.86-11.82,1-21.09a47.53,47.53,0,0,0-.57-9.67c-.86-4.89-2-6.31-2.41-10.06-.44-4.24.54-7.51,1.56-10.91,2-6.76,4.41-9.05,7.23-14.74,3.12-6.29,4.16-11.46,5.39-17.58,1.05-5.22,1.16-8.41,1.27-26.08.11-16.74.16-25.11,0-28.48C281,75.18,279.16,65.46,280,65.31Z" transform="translate(-159.76 -63.66)"/><path class="cls-15" d="M225,402.55a29,29,0,0,0,2.53-13.81c0-2.56-.32-5.71-2.68-6.68-.37,8.72-2.09,17.33-3.8,25.89a45.3,45.3,0,0,0-1.12,6C221.07,413.81,225,404.11,225,402.55Z" transform="translate(-159.76 -63.66)"/><path class="cls-15" d="M200.05,412.65h.19" transform="translate(-159.76 -63.66)"/><path class="cls-15" d="M202.94,407.86c.41-.83.6-1.74.95-2.59s.74-1.43,1.09-2.15c.27-.55.49-1.13.72-1.7l1-2.63a11.9,11.9,0,0,0,.46-1.39,9.79,9.79,0,0,0,.21-1.51l.56-6.2a5.08,5.08,0,0,0-1.29-4.53.56.56,0,0,0-.34-.27.48.48,0,0,0-.33.13,3.87,3.87,0,0,0-1.21,2.22,20,20,0,0,0-.6,6.06c0,.6.1,1.2.1,1.8a21.25,21.25,0,0,1-.13,2.26l-.32,3.23a23.06,23.06,0,0,1-.36,2.61,22.58,22.58,0,0,1-.86,2.76l-.69,2c-.17.47-.78,1.5-.71,2,.13.78.59-.16.75-.41C202.29,409,202.66,408.43,202.94,407.86Z" transform="translate(-159.76 -63.66)"/><path class="cls-15" d="M187.57,401.41a32.21,32.21,0,0,1,1.56-5.27,18.16,18.16,0,0,0,1.15-3.4c.12-.67.13-1.36.19-2a47.79,47.79,0,0,1,1.76-8.22c.5-1.9.92-4,0-5.75a1.41,1.41,0,0,0-1.19-.86,1.53,1.53,0,0,0-1.11.88c-1.13,1.91-1.23,4.23-1.29,6.45,0,1.46-.07,2.92-.1,4.38a13.31,13.31,0,0,0,.15,2.68c.1.48.25,1,.31,1.45a7.41,7.41,0,0,1-.05,1.56,30.94,30.94,0,0,1-2.34,9.64" transform="translate(-159.76 -63.66)"/><path class="cls-15" d="M173,385c0,.08.11.13.17.07s.07-.14.08-.23a20.19,20.19,0,0,1,.13-3.48,23.6,23.6,0,0,1,1.66-4.24,24.79,24.79,0,0,0,1.06-3.6c.3-1.25.61-2.51.91-3.77.19-.77.38-1.54.5-2.33s.16-1.47.21-2.21a58.83,58.83,0,0,0,.16-9.29,1.89,1.89,0,0,0-.35-1.09,1.21,1.21,0,0,0-1.36-.21,2.34,2.34,0,0,0-1,1,6.63,6.63,0,0,0-.62,4.17c.18,1.42.62,2.79.93,4.19a44.42,44.42,0,0,1,.72,8.23" transform="translate(-159.76 -63.66)"/></svg>
