<svg id="Слой_5" data-name="Слой 5" xmlns="http://www.w3.org/2000/svg" viewBox="0 0 197.94 332.28"><defs><style>.cls-1{fill:#fadcbe;}.cls-2{fill:#26aa9a;}.cls-3{fill:#f2cca4;}.cls-4{fill:#64e2cd;}.cls-5{fill:#32baa6;}.cls-6{fill:#128277;}.cls-7,.cls-8,.cls-9{fill:none;stroke-miterlimit:10;}.cls-7{stroke:#fff;}.cls-7,.cls-8{stroke-width:4px;}.cls-8,.cls-9{stroke:#000;}.cls-9{stroke-width:3px;}.cls-10{fill:#57c1b2;}</style></defs><title>icons</title><path class="cls-1" d="M190.5,246.83c-.59,0-.48,11.59-.47,16.15,0,6-.15,10.43-.47,19-.19,5.17-.26,5.4-.62,14.22-.16,4.17-.34,8.51-.47,12.86-.29,9.63-.08,10.24-.28,19.08-.32,14-.48,21-.95,28a71.21,71.21,0,0,0,0,10.25,74.32,74.32,0,0,0,.95,7.47,86.13,86.13,0,0,0,3.3,12.37,85.73,85.73,0,0,0,3.93,10.63,77.62,77.62,0,0,0,7.93,13.28c.39.48,1,1.16,1.7,2.17a12.45,12.45,0,0,0,.95,1.23c.32.37.59.65.66.71.94.9,3.39.34,4.11.19.15,0,2.38-.05,6.85-.1,2.83,0,3,0,6.19,0,2.35,0,4.08-.07,4.58-.09,8.15-.24,29.62-.05,29.62-.05,10.57.1,20,.18,29.39.19,17.54,0,20.05-.48,25.09-.14,4.18.28,8.39-.26,12.56.05a7,7,0,0,0,2-.14,6.49,6.49,0,0,0,1.37-.48,3.6,3.6,0,0,0,1.37-1,3,3,0,0,0,.52-1.75c.1-2.52,0-5.15,0-6.09V398c0-3.41,0-6.7.05-7.79,0-3.1,0-5.25-.05-15.69-.09-15.39-.08-15-.1-15.68-.13-7.8-.4-13.74-.61-18.24-.43-9.2-.56-8.57-1.18-20.74-.44-8.7-.44-10.29-.85-15.26s-.58-5.34-1.33-13.13c-.25-2.67-.59-6.78-1.27-14.89s-1-12-1.23-15c-.62-8.23-.54-8.43-1-14.7-.42-5.39-.82-10.41-1.6-17.1-1.25-10.62-2.38-16.16-2.79-18.09-.76-3.59-1.45-6.27-1.66-7A177.58,177.58,0,0,0,310.31,186c-2.66-6.7-2.48-4.68-3.3-6.95-.1-.27-.39-1.07-.62-1s-.31,1.13-.33,1.66c-.16,4.07-.24,6.1-.19,6.66.74,7.24.14,14.56.57,21.82,1.08,18.37.77,33.34.61,40.45-.23,10.89-.69,14.95-1.13,17.95a101.72,101.72,0,0,1-5.76,22.25c-2.22,5.64-4.69,11.76-10.07,18.47a57.77,57.77,0,0,1-8.6,8.7A54.33,54.33,0,0,1,250,328.09a50.68,50.68,0,0,1-30.14-8.22,58.36,58.36,0,0,1-16.16-15.07c-4.53-6.45-6.38-12.19-8-17.15a121.43,121.43,0,0,1-4.11-20.79c-.39-3.25-.58-6.35-.58-6.35-.05-.89-.08-1.62-.1-2.09-.12-2.86-.18-7-.09-8.49a8.89,8.89,0,0,0,0-1.56,2.72,2.72,0,0,1-.05-.63c0-.32.1-.5,0-.68A.46.46,0,0,0,190.5,246.83Z" transform="translate(-135.84 -85.71)"/><path class="cls-2" d="M244.83,114.06c-3.72-.07-5.47,6.47-9.26,11.53-3.56,4.76-3.45,3.45-17.95,11.15-7,3.73-13.75,8-20.6,12.09a4,4,0,0,1-1.85.7c-.39,0-.53,0-.71.07-.76.42-.35,2.53-.28,2.91.89,4.89-.18,9.94-.18,14.92,0,.26-.06,3.43-.18,9.77,0,2.82-.13,7-.17,9.36-.33,16.95-.34,16-.36,18.35,0,7.51.15,6.3.14,15.88,0,5.16-.05,4.91-.14,17.29,0,6.07,0,9.07,0,12.9.07,5.33.1,8,.28,10.63a119,119,0,0,0,2,14.59c.94,4.75,1.95,8.36,2.41,9.93,1.56,5.36,2.34,8.05,4,11.33a49.69,49.69,0,0,0,10.77,14,46,46,0,0,0,6.66,5.52,49.2,49.2,0,0,0,10.2,5.11c5.08,1.94,9.65,3.68,15.74,4.11,8.83.61,15.57-1.94,19.84-3.55a54,54,0,0,0,15.31-8.78A55.38,55.38,0,0,0,290.24,303a70.7,70.7,0,0,0,8.64-15.73c2.48-6.43,3.26-11.45,4.4-19.13a170.82,170.82,0,0,0,1.7-18.57c.71-17.65.45-32.16.31-39.41-.24-12.81-1.39-25.62-.86-38.41A63,63,0,0,0,303,154.6a34.33,34.33,0,0,0-2.27-7.66c-5.93-12.5-21.53-10.6-34.44-23-2-2-3.84-4.1-7.37-5.52-3.79-1.53-1.47-8.27-6.71-10.74C250.64,107,245.55,114.08,244.83,114.06Z" transform="translate(-135.84 -85.71)"/><path class="cls-3" d="M192.3,172.13c.44.05-1,15.56-1.51,29.2-.25,5.92,0,2.4-.29,21.36-.23,13.61-.46,19.87,0,30,.22,4.74.35,5.14.57,9.36a294.5,294.5,0,0,1-.38,33.45c-1.18,23.8.06,19.25-1.13,45.35-.85,18.65-1.59,23.25,0,32.32,2.05,11.71,7.12,21.92,9.07,26.07a117.79,117.79,0,0,0,7.7,13.66c.17.25.34.51.52.75.33.47.39.51.38.57-.1.64-4.77.24-4.77.24a250.18,250.18,0,0,0-27.45-.24,7.57,7.57,0,0,1-2.51-.14,8.54,8.54,0,0,1-2.6-1.14,9.46,9.46,0,0,1-2.41-2.31,12.9,12.9,0,0,1-2.07-5.24c-.51-2.57-.36-5,0-9.69,0-.4.1-1.26.23-3,.37-4.46.5-5.8.76-8.92.28-3.45.43-5.24.57-7.66.18-3.13.21-5.08.28-7.56.08-2.87.1-2.63.57-13.23.35-8,.52-12,.66-15.82.23-6.5.2-7.62.38-13.14.12-3.81.21-5.8,1.18-25.18.76-15.27.85-16.94,1.09-20.31.45-6.55,1-12.73,1.27-16.11.5-5.8.89-9.83,1-11.39.52-5.29.79-8.13,1.28-12.09.5-4.15.95-7.8,1.79-12.62.16-.91.32-1.76,2.17-10.67,2.21-10.58,2.49-11.81,2.84-13.23,1.09-4.45,2.07-7.85,2.88-10.63s1.57-5.18,3.17-10.21c3.64-11.48,2.17-6,2.55-7.23a6.33,6.33,0,0,1,.52-1.27c.24-.44.35-.5.61-1s.24-.55.52-1.18A6,6,0,0,1,192.3,172.13Z" transform="translate(-135.84 -85.71)"/><path class="cls-4" d="M249.37,118.5c-.9,0-1.17,5.48-2.74,11.34-.75,2.8-1.89,5.4-4.16,10.59-3.06,7-3.74,7.32-5.67,12.37-1.45,3.83-2.34,7-3,9.45a69,69,0,0,0-2.36,10.11,42.54,42.54,0,0,0,1.79,18.14c1.24,4.12,2.25,7.33,5.1,9.64,1,.81,3.34,2.4,4,2.84a52.62,52.62,0,0,1,4.92,3.49c.24.21,1,.87,2.36,2.18a8.71,8.71,0,0,1,1.51,1.6c.68,1,.79,1.82,1,1.8.31-.05,0-3.4,0-3.4a61.83,61.83,0,0,0-1-7.66c-.37-1.81-.32-5.58-.19-13,.1-6,.15-9,.28-11.71.25-5.14.5-10.25,1.42-16.73,1.21-8.57,2-8.44,1.94-12.84,0-1.81-.16-.83-1.75-12.67,0,0-.78-5.78-1.51-8.79,0-.11-.2-.78-.38-1.7a19.67,19.67,0,0,1-.38-2.17,5.49,5.49,0,0,0-.19-1.7C250.1,119.31,249.71,118.51,249.37,118.5Z" transform="translate(-135.84 -85.71)"/><path class="cls-3" d="M305.68,180.69a10.19,10.19,0,0,0,.85,2.78c.19.34.71,2.29,1.75,6.19,4.59,17.22,5.06,41.43,5.06,41.44.61,31.83,1.35,20.91,1.51,47.24.28,47.05-2.33,40.17-1.13,66.14,0,0,1.46,31.65-1.52,46.87-1.09,5.58-4.53,16.59-5.29,19.65a6.72,6.72,0,0,1-.71,2c-.58,1-1.25,1.47-1.1,1.8s.9.26,1.56.22c1.37-.09,2.75.09,4.11-.07a57.09,57.09,0,0,1,12,0c1.63.2,3.65.54,5.45-.53a5.48,5.48,0,0,0,1.63-1.49,6.17,6.17,0,0,0,1-3,26.17,26.17,0,0,0-.07-4.87c0-.3,0-1.73-.07-4.6,0,0,0-2-.05-4.12,0-3.43-.05-5.14,0-11.05.08-19.24-.57-37.46-.57-37.46-.36-10-.83-17.69-1.18-23.49-.47-7.61-.89-14.36-1.71-23.44S326,289.57,325,278.24c-.42-4.79-.55-6.66-1.18-14.52-1.34-16.91-2-25.36-2.67-31.77-1.16-11.46-2.35-20.27-4.72-29.13-.41-1.54-1.17-4.34-2.43-8a144.33,144.33,0,0,0-6.34-14.76,2.78,2.78,0,0,0-.33-.67,1.43,1.43,0,0,0-.54-.59.56.56,0,0,0-.4-.09c-.27.06-.4.41-.45.54s0,.16-.12.45-.09.24-.12.36A1.43,1.43,0,0,0,305.68,180.69Z" transform="translate(-135.84 -85.71)"/><path class="cls-5" d="M192.87,247.22c.5-.1,2.07,6.44,4.11,13,1.59,5.12,3,8.78,4.39,12.26,3.92,10,5.88,15,10,20.57a35.94,35.94,0,0,0,9.26,9.45c6.08,4.1,12,4.94,17,5.67a57.81,57.81,0,0,0,18.9-.57,49.47,49.47,0,0,0,29.1-16.06,56.66,56.66,0,0,0,9.83-15.68c.28-.63,0,0,4.72-13.42a39.12,39.12,0,0,0,2.46-9.07c.15-1.21.22-2.4.57-4.82a41.49,41.49,0,0,1,.94-5.39,5.75,5.75,0,0,0,.29-2.45s.39,5,.52,8.88a106.83,106.83,0,0,1-1.66,21.35c-1.53,8.29-3.58,19.58-11.52,30.9-3.45,4.91-11.4,15.91-26.56,21.36-1.35.48-18.74,6.45-37.22-.71a49.78,49.78,0,0,1-8.79-4.44c-11.7-7.55-16.83-18.25-18.66-22.21A74.94,74.94,0,0,1,195.42,279c-1.06-4.89-1.6-9.23-1.8-10.91-.58-5-.15-4.09-.71-8.51,0,0-.73-5.84-.28-7.93a5.5,5.5,0,0,0,.14-1.23,13.65,13.65,0,0,0-.14-1.42C192.58,248.31,192.67,247.26,192.87,247.22Z" transform="translate(-135.84 -85.71)"/><path class="cls-6" d="M194.19,150.54c1.32,1.88,12.28-3.88,12.28-3.88,9.8-5.15,14.74-8.41,14.74-8.41,10-6.53,15-9.79,17.77-12.56,0,0,8.82-9,11.33-17.58.1-.34.2-.61.38-1.13.35-1,.53-1.51.66-1.52.46,0,1,3,1.23,4.16a92.35,92.35,0,0,0,3.22,9.92,46.81,46.81,0,0,0,14.74,19.85s8.39,6.24,23.62,9.44c2.51.53,4.9.33,7.08,1.8.26.17.8.56,1.23.38.95-.41.55-3.26.38-4.63-.7-5.77.47-4.28-.19-12.38a80.36,80.36,0,0,0-1.79-12.19c-1.27-5.44-2.25-9.67-5.2-14.55a35.32,35.32,0,0,0-9.45-10.39,34.7,34.7,0,0,0-8.5-4.35c-3.51-1.33-7.85-2.5-17.48-3.31-8.55-.71-13.49-1.12-20.51-.47s-13.85,1.28-21.82,5.2a41.94,41.94,0,0,0-14.37,10.77A42.72,42.72,0,0,0,193.81,129c0,.52-.29,5.62-.19,10.49.07,3,.27,5.79.1,7.46a7.14,7.14,0,0,0,0,1.61A5.65,5.65,0,0,0,194.19,150.54Z" transform="translate(-135.84 -85.71)"/><path class="cls-7" d="M249.56,100.74c1,11.74,2.26,21.09,3.26,27.64a108.59,108.59,0,0,1,1.56,13.32c.31,7.33-.45,11.1-1.28,19.7-.28,3-1.37,14.53-1.27,25.8a119.24,119.24,0,0,0,1.84,23.1,96.93,96.93,0,0,0,7.58,22.55" transform="translate(-135.84 -85.71)"/><path class="cls-8" d="M192.92,130.67c.37,11.51-.08,23-.12,34.55,0,11.75-.33,23.5-.6,35.24-.39,16.8-.74,33.6-.23,50.4.6,19.78,2.86,40.77,15.05,56.35a51.74,51.74,0,0,0,72.48,9c12.69-9.87,20.16-25.26,23.53-41s3-32,2.65-48.05q-.8-35.26-1.6-70.54c-.42-18.77,1.33-42.18-13.17-56.62-9.41-9.37-22.56-11.31-35.26-12-19.31-1.09-41.13,1-53.59,17.79A48.1,48.1,0,0,0,193,130.1c0,.24,0,.43,0,.57" transform="translate(-135.84 -85.71)"/><path class="cls-8" d="M192.79,167.35C178,202.94,171.59,244,169.38,282.15c-1.22,21-2,42.05-2.82,63.09q-.59,16.13-1.2,32.26c-.36,9.13-2.36,19.75-1.05,28.8A11,11,0,0,0,168.7,414c2.66,1.77,6.06,1.83,9.25,1.82l74,0c24.52,0,49.13.24,73.63,0a7.26,7.26,0,0,0,3.89-.79c2.07-1.33,2.29-4.22,2.28-6.67q0-16.43.06-32.85c.26-37.07-3.23-74-6.33-110.94-2.48-29.44-3.12-66-20.12-91l-.77-1.14" transform="translate(-135.84 -85.71)"/><line class="cls-9" y1="5.94" y2="5.94"/><path class="cls-7" d="M250,105.87c-2,17.69-6.52,29.87-10.25,37.53a94.91,94.91,0,0,0-6.52,16.44c-1.64,5.71-3.22,11.17-3,18.43.17,4.91.46,13.72,6.1,21.12,4.73,6.2,8.14,4.73,13.89,12,2.57,3.28,3.09,5.1,7.08,13.47,2.09,4.36,5.17,10.61,9.22,18.14" transform="translate(-135.84 -85.71)"/><path class="cls-10" d="M202,172.84c0-7,0-14.05,0-21.08-.06-10.09.42-20.5,3.76-30.11,2.41-7,6.9-14.88,12.9-19.31,2-1.49,7.47-4.28,9.77-1.61s-3.09,8.1-4,10.72a81.8,81.8,0,0,0-3.94,16c-.14.91-.28,2.13-.38,3.78a205.18,205.18,0,0,0-.19,23.43c1.57,23.43,1.08,46.93.56,70.38-.47,21.24-3.33,44,4.48,64.29,2.37,6.14,5.51,13,9.89,18l4,4.53c0,.05.24.26.48.56,0,0,.24.29.44.58,3.59,5.1-11.91-.69-13.9-2-14.45-9.41-21.72-26.45-23.55-43.06-1.07-9.73-.36-19.55.25-29.29s.26-19-.06-28.64C202,197.67,202,185.25,202,172.84Z" transform="translate(-135.84 -85.71)"/></svg>
