<svg id="Слой_3" data-name="Слой 3" xmlns="http://www.w3.org/2000/svg" viewBox="0 0 447.82 374.82"><defs><style>.cls-1,.cls-4{fill:#fce5d3;}.cls-2{fill:#f6d9c5;}.cls-3{fill:#79c5c9;}.cls-10,.cls-4,.cls-9{stroke:#000;stroke-miterlimit:10;stroke-width:4px;}.cls-5{fill:#c6e6eb;}.cls-6{fill:#aad9db;}.cls-7{fill:#edc4cd;}.cls-8{fill:#edabba;}.cls-9{fill:#f8ccd6;}.cls-10{fill:none;}</style></defs><title>icons</title><path class="cls-1" d="M29.26,192.2a14.17,14.17,0,0,1,0-7.79c.4-1.32,1-1.64,1.28-1.75a2.16,2.16,0,0,1,1.6.19c2.2.94,4.54,1.5,6.8,2.27,1.08.36.9.27,2.93.94s3.35,1.14,3.74,1.28c1.76.62,3.72,1.22,9.3,2.83,4.46,1.29,6.45,1.84,10.63,3,4.75,1.35,7.21,2.07,8.89,2.55,13.92,4,24.56,5.89,35.43,9.31,3.38,1.06,5.37,1.82,9.12,3.25a40.28,40.28,0,0,1,5.76,2.51,37.93,37.93,0,0,1,6.47,4.72s1.07.93,2.51,2.46a9.66,9.66,0,0,1,.75.9,4.32,4.32,0,0,1,.57.85c.39,1.15-2.93,3.12-2.93,3.12-7.45,5-14.24,10.86-21.5,16.11s-11.46,8.7-12,9.35a4.53,4.53,0,0,1-.9.76,4.38,4.38,0,0,1-1.32.52,27.33,27.33,0,0,1-6.66.37,59.53,59.53,0,0,0-6.67.29c-1.28,0-5,.22-19.51,2.36-14,2.06-17.15,2.88-19.27,3.54-1.91.6-3.82,1.14-5.72,1.75-2.31.74-4.67,1.29-7,2a10.76,10.76,0,0,1-1.37.28,2.76,2.76,0,0,1-1,.05c-.83-.34-.47-3-.33-4.3s-.19.89-.19-7.94c0-3.19,0-4.79.09-8.17.29-10.35-.24-14.36,0-27.59C29.12,194.9,30.18,195,29.26,192.2Z" transform="translate(-25.89 -63.01)"/><path class="cls-2" d="M29.52,259.34c-.13-10.93-.23-18.94-.28-22.47,0,0-.07-4.74-.07-8.43,0-.82,0-.89,0-1.42,0-.68-.09-.82,0-.92.41-.44,2.79,1.14,3.68,1.7,2.31,1.48,4.94,2.41,7.37,3.69,4.31,2.25,9.21,3.85,15.66,5.95,7.44,2.42,13,3.8,19.21,5.32,8.42,2.07,12.63,3.1,15,3.26,3,.19,5.82,1.36,8.79,1.41.16,0,.72,0,.78.22.11.42-1.61,1.55-3.48,2a7.94,7.94,0,0,1-2.76.14c-1.76-.19-2.4.09-9.07,1-4.93.67-3.56.38-10.49,1.28-2.11.27-5.67.74-10.27,1.42-7.2,1.06-10.8,1.59-14.25,2.34-6.8,1.46-10.2,2.2-11,2.55a13.05,13.05,0,0,1-7,1.34A10,10,0,0,1,29.52,259.34Z" transform="translate(-25.89 -63.01)"/><path class="cls-3" d="M98.76,249.56c-.18-.78,2.6-1.71,6.16-3.83,1.5-.88,2.09-1.36,7.23-5.38q5.49-4.31,11-8.58c3.89-3,6.17-4.81,9.36-7.23,1.16-.88,1.78-1.34,7.86-5.88,8.74-6.51,8.8-6.56,9.5-7.09,5.33-4,9.05-7.06,11.62-9.14,15.87-12.79,33.88-26.14,45.85-35.43l4.4-3.4,5-3.83c5.53-4.26,22.61-17.8,30.68-24.09,18.63-14.51,19.2-13.65,33.88-25.37,12.26-9.8,18.4-14.7,19.63-15.74,2.07-1.74,4.21-3.59,7.51-6,2.95-2.17,4-2.71,10.63-7.37,2.07-1.45,2.2-1.56,4.53-3.19,4.66-3.25,7-4.87,7.87-5.38a48.82,48.82,0,0,1,10.91-4.4,39,39,0,0,1,7.87-1.84,35.34,35.34,0,0,1,7.94.07,41.51,41.51,0,0,1,9,1.91,37.54,37.54,0,0,1,5.31,2.27c.91.48,1.15.66,5,3.12,5.13,3.31,5.45,3.48,6.31,4.25a39.46,39.46,0,0,0,3.12,2.77c1.15.88,1.77,1.22,1.7,1.41-.15.39-2.67-.42-6.24-1.06a64.33,64.33,0,0,0-7.23-.85,58.8,58.8,0,0,0-8.36-.14,52.74,52.74,0,0,0-7.94,1.06,64.05,64.05,0,0,0-9.92,3.33,100.62,100.62,0,0,0-10.7,4.68,92.64,92.64,0,0,0-11.76,7.58c-3.09,2.23-2.62,2.06-9,6.8-4.37,3.25-6.19,4.51-8.08,5.74-3,2-3.67,2.2-6.38,3.9-3.67,2.31-5.59,3.86-10.06,7.23-5.63,4.24-5.23,3.78-12,8.79-10.08,7.48-16.43,12.57-32.45,25,0,0-6.18,4.8-16,12.33C206.86,186.34,203.36,188,178.41,207,158,222.63,142.63,235,134.33,241.34c-3.17,2.44-6.22,5-9.42,7.44a20.87,20.87,0,0,0-2.34,1.91c-1,.93-1.06,1.22-1.56,1.49-1.22.66-2.61,0-4-.42-1.28-.41-3.26-.58-7.23-.93-2.33-.2-3-.12-6.52-.42C99.31,250.07,98.82,249.86,98.76,249.56Z" transform="translate(-25.89 -63.01)"/><path class="cls-4" d="M29,261.84c2.29-.77,5.45-1.78,9.26-2.83,6.84-1.89,12-2.86,17-3.78,4.78-.89,11.29-2,19.09-2.84,3.34-.37,8.81-1,16.06-1.32a119.48,119.48,0,0,1,19.65.19,50.66,50.66,0,0,1,12.1,2.27c3.85,1.29,8.56,2.88,12.85,7.18s5.94,9.23,7,12.47a33.17,33.17,0,0,1,1.7,14.36c-1,8.55-5.29,14.33-7.93,17.77-1.63,2.11-5.25,6.42-14.93,12.66a130.45,130.45,0,0,1-24.38,12.09,243.13,243.13,0,0,1-41.58,11.72c-10.49,2-19.36,3.15-25.7,3.78" transform="translate(-25.89 -63.01)"/><path class="cls-5" d="M29.21,418.69c-1.38-.29-.19-11.27.19-17.38.21-3.34-.09-1.07-.19-18.9,0-7.87-.06-11.8,0-15.31,0-1.14.19-9.75.19-13.6v-3.78c-.12-1.83-.32-2.18,0-2.65.58-.83,1.8-.53,5.1-.94.49-.07-.22,0,2.6-.43,4.14-.65,8.17-1.21,8.6-1.27,6-.84,11.15-1.93,13.23-2.37,3.28-.69,5.68-1.29,10.49-2.5,5.21-1.31,8.3-2.09,12.38-3.31,1-.31,5.35-1.61,11.19-3.73a152.13,152.13,0,0,0,19.51-8.13,103.19,103.19,0,0,0,14.32-8.78c7-5.23,10.08-9.07,10.91-10.14a38.63,38.63,0,0,0,5.1-8.43,35,35,0,0,0,2.56-9.14,34.21,34.21,0,0,0-3.26-18.5c-.71-1.58-3.37-7.41-7.8-11.2a32.65,32.65,0,0,0-6.45-4.18c-.59-.25-1.17-.55-1.77-.78-1-.39-1.6-.49-1.63-.78s.47-.51,1.06-.85c.88-.5,1.64-1.21,2.48-1.77,1.74-1.14,4.45-3.23,7.23-5.38,3.21-2.48,5.47-4.36,6.88-5.53,7.05-5.84,8.08-6.21,20.33-16,5.73-4.54,6.27-5.06,10.35-8.22,4.65-3.59,4.79-3.56,10.35-7.79,7.38-5.63,8.51-6.74,13.67-10.49,3.47-2.52,3.75-2.6,7.8-5.46,5.73-4.05,9.25-6.78,20.69-15.59,4.3-3.31,8.61-6.6,12.9-9.92,20.19-15.62,30.28-23.43,34.23-26.36,20.26-15,31.8-22,42.45-30.54.81-.65,5-4,10.77-8.15,2.79-2,5.41-3.88,9.07-6.17a103,103,0,0,1,11.48-6.38,55.41,55.41,0,0,1,9.57-3.75,50.91,50.91,0,0,1,9.49-1.63,60.45,60.45,0,0,1,10.85-.07c.5,0,3.29.52,8.85,1.48,4.19.73,5.76,1,7.73,2.13a20.5,20.5,0,0,1,3.9,3.05,31.33,31.33,0,0,1,5.1,5.67,29.53,29.53,0,0,1,3.68,7.51,31.74,31.74,0,0,1,1.42,11.48,26.39,26.39,0,0,1-1.35,8.5,22.71,22.71,0,0,1-3.33,6.31,21.58,21.58,0,0,1-4.39,4.32c-13.72,10.26-53.9,39.18-80.22,64.14-.56.53-2.51,4.75-4.61,4.46-.42-.06-.5-.25-1.48-.92-1.95-1.33-2.74-1.33-5-2.62-1.3-.74-2.05-1.31-2.83-1.84-1.07-.74-2.78-1.84-10.06-5.39-6-2.92-9-4.38-11.56-5.39-3.76-1.47-4.7-1.55-8.36-3.18-3.23-1.45-3.72-1.92-6.38-2.91a26.72,26.72,0,0,0-7.93-2,23,23,0,0,0-6.66.49,17.36,17.36,0,0,0-6.38,2.48,14.34,14.34,0,0,0-6.45,10.63,17.51,17.51,0,0,0,.42,5.6c.28,1.45,1.29,6.78,3.83,10.21a6.89,6.89,0,0,1,1.14,2.12,7.79,7.79,0,0,1,.14,3.54,48.82,48.82,0,0,0-.07,6.17c-.06,4.16.8,7.4,2,11.83a26.41,26.41,0,0,0,2.27,6.45,20.19,20.19,0,0,0,2.76,4.33c1.38,1.55,2.63,2.34,2.48,3.47a2.53,2.53,0,0,1-1.2,1.56c-1.85,1.37-3.39,3.18-5.39,4.32-.24.14-3.75,2.81-10.77,8.15-1.55,1.18-1.55,1.19-8.65,6.73l-10.27,8c-15.4,12-41.88,32.1-41.88,32.1-20.36,15.45-36.22,27.86-61.3,47.48-12.13,9.49-36.33,28.49-47,36.78-4.72,3.68-9.41,7.42-14.17,11.06-.77.59-2.82,2.14-5.53,4.32-3.29,2.65-2.89,2.45-4.75,3.9-5.31,4.15-8.89,6-10.27,7.51A8,8,0,0,1,31.72,418a5.4,5.4,0,0,1-.92.42A4.16,4.16,0,0,1,29.21,418.69Z" transform="translate(-25.89 -63.01)"/><path class="cls-6" d="M29.31,346.22c4.34-.34,10.39-1,17.57-2.13,1.53-.24,5.34-.89,12.47-2.4,8.95-1.91,14.9-3.18,21.55-5.11a208.57,208.57,0,0,0,33.87-14s10.38-5.38,14.6-9.21a24.36,24.36,0,0,1,2.27-1.84c1.07-.81,1.61-1.21,1.7-1.14.4.33-4.76,8.36-10.21,14-4.42,4.61-8.44,7.06-27.92,16C78.63,348,70.34,351.85,64.88,353.59c-10.9,3.47-23,5.94-27.49,7.23a23.74,23.74,0,0,1-3.83.85c-.73.09-1.21.11-2.27.28-1.45.25-1.57.39-1.84.29-1.17-.44-.93-3.83-.71-7.09C28.87,353.27,29.07,350.2,29.31,346.22Z" transform="translate(-25.89 -63.01)"/><path class="cls-7" d="M256.15,179.51c.86.76,2.16,1.89,3.81,3.22,2.06,1.66,2.07,1.55,3.33,2.61,2,1.69,2.5,2.41,5.53,5.31,1.56,1.5,2.77,2.59,3,2.84a64.46,64.46,0,0,0,8.95,7,14.49,14.49,0,0,0,3.63,1.88c1.23.35,1.81.25,5.62.76.9.12,1.35.18,2,.28a47.5,47.5,0,0,1,5,1.08c1.63.46,2.16.75,4.3,1.54,0,0,2.9,1.07,6.15,2a97.63,97.63,0,0,0,15.11,3.08,1.57,1.57,0,0,0,.27,0,3.1,3.1,0,0,0,.48,0l.37,0c.09-.19-3.14-1.93-3.58-2.16-1.31-.71-.1-.1-6.77-4-3-1.78-5.49-3.21-6.13-3.58-7.79-4.49-18.36-9.47-23.17-11.72,0,0-8.27-3.89-18.23-7.7a46.13,46.13,0,0,0-6-1.85,12,12,0,0,1-2.08-.42,2.8,2.8,0,0,0-1.63-.13Z" transform="translate(-25.89 -63.01)"/><path class="cls-8" d="M246.09,205.27c-.9-3.29-.92-1-2.34-6-.95-3.33-1.43-5-1.42-6.37a12.21,12.21,0,0,1,1.35-5.74,12.59,12.59,0,0,1,4.46-4.68,16.94,16.94,0,0,1,6.24-2.48,4.61,4.61,0,0,1,1.63,0,4.47,4.47,0,0,1,1.34.49,11.67,11.67,0,0,1,2.63,2.06,23.06,23.06,0,0,0,4.89,3.4,12.18,12.18,0,0,1,3,2.2c.77.8,1.2,1.25,1.14,1.77-.13,1.14-2.49,1.44-6,2.69a38.48,38.48,0,0,0-6.52,3,20.07,20.07,0,0,0-6.09,5c-2.18,2.83-2.93,5.78-3.76,5.6C246.33,206.19,246.2,205.68,246.09,205.27Z" transform="translate(-25.89 -63.01)"/><path class="cls-1" d="M248.74,222.74a3.3,3.3,0,0,1-.28-2.17c0-.17,0,.73-.14-2.65-.07-2.06-.1-3.08-.08-3.56a20.36,20.36,0,0,1,.42-3.92,18.71,18.71,0,0,1,1.42-4.06,19.36,19.36,0,0,1,5.43-7.09,22.65,22.65,0,0,1,4.54-2.93,34.66,34.66,0,0,0,4.58-2.22,4.91,4.91,0,0,1,.94-.57,2.46,2.46,0,0,1,.76-.23,1.46,1.46,0,0,1,.76,0,1.26,1.26,0,0,1,.61.52,16,16,0,0,0,1.84,1.74,24.79,24.79,0,0,0,3.07,2.37c2.21,1.64,2,1.69,4.21,3.35a27.18,27.18,0,0,0,3.64,2.46,16.49,16.49,0,0,0,3.68,1.56,26,26,0,0,0,3.59.52c2.52.27,2.57.15,4.07.37a29.69,29.69,0,0,1,4.06.9c.91.28,1.23.42,3,1.09.5.18,2.81,1,4.49,1.6s3.08.93,5.86,1.66c2.15.56,3.7,1,5.9,1.41,1.44.3,2.9.6,4.87.86l3.92.42c3.41.37,3.42.37,3.64.38a18.24,18.24,0,0,1,2.88.23,6.45,6.45,0,0,1,1.32.34,5.52,5.52,0,0,1,2,1.37,35.4,35.4,0,0,0,4,2.45c2.57,1.5,2.79,1.54,5.57,3.12,1.82,1,1.41.84,5,2.93,2.27,1.32,2.76,1.58,4.39,2.55s2.88,1.73,3.69,2.22c2.34,1.43,3.51,2.15,4.44,2.79,1.25.86.95.73,3.83,2.83,1.46,1.07,1.78,1.28,3.26,2.37,1.33,1,2.26,1.68,3,2.22,2.77,2.08,5.46,4.08,6.85,5.1,4.43,3.25,4.37,3,6.81,4.91,2.2,1.68,3.48,2.78,6.18,5.06,9.23,7.77,9.22,7.52,13,10.86,1.58,1.4,1.94,1.77,8.36,7.8,10.82,10.17,10,9.31,13,12.19,2.63,2.5,7.21,7,16.25,15.92,8.48,8.35,12.72,12.52,15.4,15.21,8.46,8.45,11.9,12.1,12.57,12.57a2,2,0,0,1,.57.56,2.52,2.52,0,0,1,.38,1.23,8.06,8.06,0,0,1-.9,3.45c-2.07,3.92-.47,1.7-2.22,4.54a91,91,0,0,1-5.62,8.22,126.65,126.65,0,0,1-11,11.95,146.26,146.26,0,0,1-17.1,13.61c-2,1.29-3.65,1.94-4.73,3.21a1.54,1.54,0,0,1-.8.57c-.38.08-.79,0-2.65-1.23l-1.08-.72c-1.29-.86-1.26-.88-1.92-1.3s-.88-.53-1.83-1.15l-1-.65a59.45,59.45,0,0,1-4.88-3.79c-6.22-5.43-12-11.29-12-11.29-1.86-1.88-3.36-3.47-3.78-3.92s-1.26-1.34-4.54-4.91l-4.06-4.45-5.25-5.76c-3.76-4.16-7.09-8.25-10.3-12.19-4.85-6-10.66-11.24-14.64-17.81a6.54,6.54,0,0,0-2-2.17,8.7,8.7,0,0,0-1.7-.85A16.18,16.18,0,0,0,354,304c-2.58-.62-9.43-3-13.51-4.63-3-1.2-5.19-2.26-7-3.16-4.67-2.29-5.67-3.15-16.07-9.22-4.73-2.76-5.58-3.19-7.6-4.58a88.55,88.55,0,0,1-7.8-6.05c-2.06-1.79-3.54-3.23-5.05-4.72-6.26-6.17-11.22-11.33-11.86-12-6.76-7-7-7.42-11.43-12-4.05-4.1-4-3.95-6.33-6.38-3.93-4.17-5.06-5.81-8.7-9.21-2-1.9-2.21-1.9-3.68-3.41-2.53-2.57-4-4.61-5.44-5.38A2.11,2.11,0,0,1,248.74,222.74Z" transform="translate(-25.89 -63.01)"/><path class="cls-2" d="M411.24,386.05A169.4,169.4,0,0,1,391.86,369c-3.73-3.82-3-2.6-22.87-27.59-1.67-2.11-15.65-19-17.57-21.92a18.88,18.88,0,0,0-1.75-2.27,16.61,16.61,0,0,0-2.08-1.93,18.32,18.32,0,0,0-2.65-1.66c-1.31-.73-2.6-1.53-3.92-2.27-3.82-2.13-3.62-2.22-6.61-3.87a51.43,51.43,0,0,0-8.93-4.25,23.3,23.3,0,0,1-2.31-.85,28.72,28.72,0,0,1-4.21-2.27c-.59-.37-1.75-1.1-4.49-3-2.06-1.46-3.1-2.18-4.39-3.17-.78-.59-1.84-1.42-5.39-4.44-4.1-3.49-3.74-3.29-5.71-4.91-3.09-2.55-3.63-2.78-6.29-5-2.35-2-4-3.57-5-4.49-3-2.86-5.48-5.57-10.26-10.87-3.37-3.74-3.26-3.7-4.82-5.33-.6-.64-1.22-1.27-7.08-7.09-2.25-2.23-3.4-3.37-5.06-5.15-2-2.2-3-3.41-3.35-3.83a46.73,46.73,0,0,1-3.45-4.82,35.67,35.67,0,0,1-3.59-7.22,40.88,40.88,0,0,1-1.75-6.81,9.39,9.39,0,0,0-.24-1.37c-.14-.59-.25-.79-.18-.85.31-.27,3,2.36,3,2.36,7.27,7.19,10.9,10.79,13.28,13.47,2.95,3.33,1.17,1.08,11.62,12,0,0,21.71,22.68,29.91,29.34l.47.38a41.5,41.5,0,0,0,5.29,3.54c3.47,2,6.8,4.54,12.47,7.79,13.75,7.89,29.37,13,31.61,13.47a5.74,5.74,0,0,1,1.6.57,6.69,6.69,0,0,1,2.27,2.07c.66.88-1.25-1.82,3.59,3.83,4.69,5.47,10.07,12.05,10.07,12.05,1.51,1.85,3.32,4,6.94,8.27,2.48,2.92,7.54,8.89,13.56,15.63,0,0,17,19,26.69,25.52,2.73,1.82,4.25,2.64,4.25,2.64.89.48,2.64,1.36,3.12,1.7a1.7,1.7,0,0,0,.43.24c.36.14.59.09.61.14.15.38-3.78,2-3.78,2A99,99,0,0,0,411.24,386.05Z" transform="translate(-25.89 -63.01)"/><path class="cls-1" d="M139.2,337.15c9.84-7.25,9.81-7.21,11.15-8.22,5.14-3.89,9.2-7.14,12.37-9.64,4-3.16,11.95-9.54,13-10.3a4.93,4.93,0,0,0,.85-.66c.58-.55.62-.81.85-.85.51-.08,1.1,1,1.71,2.27,1.14,2.28,1.7,3.43,1.79,3.68,1.46,3.92,2.56,7.8,3,9.45.73,2.57,1.23,4.46,1.71,6.24.83,3.14,1.25,4.71,1.7,6.61.38,1.65.93,4,1.41,6.9a84.39,84.39,0,0,1,1,9.45c.28,5.34.42,8-.38,11.43a54.47,54.47,0,0,1-2.83,7.37c-2.92,6.89-4.38,10.33-4.54,10.68-3.41,7.71-5.12,11.57-7.55,16.63-3.91,8.12-5.93,12.28-9.17,17.2-2.4,3.63-4.38,6.11-6.14,8.31,0,0-1.51,1.88-9,9.36A5.7,5.7,0,0,1,149,434a6.27,6.27,0,0,1-1.41.57,7.54,7.54,0,0,1-2.74.19,8.59,8.59,0,0,1-2.93-.76c-1.13-.53-1.18-.88-2.65-1.61-.93-.46-1.09-.41-1.79-.75a10.54,10.54,0,0,1-3-2.46c-.55-.54-.24-.18-3.87-3.12-3-2.39-4.44-3.58-5.39-4.44a48.85,48.85,0,0,1-10.39-13.13,63.42,63.42,0,0,1-4.06-9.07c-.25-.66-1-2.77-2.37-7a36.79,36.79,0,0,1-1.7-5.77,36.05,36.05,0,0,1-.19-6.52c0-2.23.11-1.86.38-7.94.18-3.9.27-5.86.19-6.42a8,8,0,0,1,0-2.27,4.91,4.91,0,0,1,.57-2,4.13,4.13,0,0,1,1.7-1.42,38.15,38.15,0,0,0,3.59-2.65c.93-.66,2.1-1.6,4.44-3.49,2.9-2.34,5.07-4.16,5.29-4.35C125.53,347.22,128.09,345.32,139.2,337.15Z" transform="translate(-25.89 -63.01)"/><path class="cls-2" d="M170.57,313.15c2.33-1.49,4.09-2.69,4.91-3.31.5-.38.75-.56,1-.75.68-.66.82-1.08,1.22-1.14.21,0,.53,0,1,.57a6.08,6.08,0,0,1,1.42,3.12c.09.51-.07-.54,2.08,5.57.89,2.54,1.34,3.81,1.79,5.29.58,1.88.94,3.25,1.42,5.11.86,3.33,1.48,5.68,2.08,8.78.33,1.7.63,3.72,1.23,7.75.63,4.28.95,6.42,1,7.56a39.13,39.13,0,0,1-.29,10.3,40.14,40.14,0,0,1-2.45,8.22,74.37,74.37,0,0,1-3.69,7.75c-2.73,5.4-2.76,6.92-5.38,13.23a136.81,136.81,0,0,1-7.66,15.4c-1.27,2.27-.42.62-9.73,15.21a63.39,63.39,0,0,1-9.73,11.06,7.14,7.14,0,0,1-4,2.07c-1.43.18-2.59-.25-4.72-1-.19-.07-.2-.08-4.07-2a6.86,6.86,0,0,1-1.6-1c-.58-.5-.89-.73-1-1.13-.42-1.06.47-2.31.85-2.84a8.3,8.3,0,0,1,2.27-2.08c1-.73,2-1.9,3.77-4.25a57.5,57.5,0,0,0,5.49-8.88c3.86-7.76,4-6.19,9.35-16.35,3.06-5.85,4.93-10.09,7.75-16.44,0,0,2.13-4.8,6.23-16.34a18,18,0,0,0,.76-2.74,23.38,23.38,0,0,0,.28-5.11c0-2.2-.15-3.86-.19-4.34-.42-6.15-.21-6.06-.47-8.51a59.5,59.5,0,0,0-1.79-9s-.82-3.56-3-10.21a8.85,8.85,0,0,0-.94-2.17c-.1-.15-.42-.63-.85-1.32a3.91,3.91,0,0,1-.47-.85c-.11-.81,1.29-1.55,2.55-2.37A25.37,25.37,0,0,0,170.57,313.15Z" transform="translate(-25.89 -63.01)"/><path class="cls-9" d="M62.66,276.39a9.85,9.85,0,0,1,1.14-6.23c1.27-2,3.31-3,6.61-4.16a60.54,60.54,0,0,1,12.85-2.83c8.71-.9,13.06-1.35,19.46-.95,6.59.41,10.34.64,15.12,2.65,3.43,1.43,8.41,3.52,11.72,8.88a20.54,20.54,0,0,1,2.83,12.47,22.14,22.14,0,0,1-4,10.77c-2.78,4.12-6.36,6.78-15.5,11.34-10.69,5.34-11.11,4.28-22.11,9.45a24.38,24.38,0,0,1-8.51,2.27c-2.12.15-3.72.25-5.48-.57-2.88-1.35-4.2-4.23-5.29-6.61a24,24,0,0,1-1.7-5.3s-.26-1.23-3.4-13.79C64.52,286.11,63.08,282.84,62.66,276.39Z" transform="translate(-25.89 -63.01)"/><path class="cls-10" d="M27.89,421.34C28,255.77,28,186.59,28,185.92a7.55,7.55,0,0,1,0-1,4.1,4.1,0,0,1,.19-1,3.11,3.11,0,0,1,.62-1,3,3,0,0,1,3-.89,64,64,0,0,1,7.84,2.17l5.53,1.79s4,1.31,8.13,2.56c3.72,1.13,5.65,1.64,10.39,3,6.61,1.86,8,2.29,12.71,3.64,11.34,3.21,18.25,5.17,27.31,7.32,5.77,1.37,9.84,2.21,15.45,4.68a52.93,52.93,0,0,1,8.78,4.82,49.93,49.93,0,0,1,8.65,7.51" transform="translate(-25.89 -63.01)"/><path class="cls-10" d="M99,249c6.81-5.08,17.07-12.8,29.48-22.39,10-7.74,15.89-12.41,23.53-18.43,20.55-16.18,24-18.54,52.72-40.82,15-11.6,9.08-7.12,43.94-34.29,16.74-13,34.33-25,50.46-38.84,4.64-4,11.41-8.79,24.94-18.42a63.43,63.43,0,0,1,10.2-6,53.23,53.23,0,0,1,10.49-3.68A42.74,42.74,0,0,1,353,65a41.27,41.27,0,0,1,14.46,2.27c5,1.74,8.27,4,14.74,8.51a108.49,108.49,0,0,1,11.06,8.78c4.73,4.33,7.1,6.5,9.35,9.92a32.18,32.18,0,0,1,5.67,17c.07,2.48.37,11.1-5.1,17.86-.55.68-.84.94-6.52,5.67-6.42,5.34-9.63,8-11.62,9.64-9.08,7.4-9.1,7.75-15.6,13-8.62,7-8.67,6.46-19.55,15-7.29,5.73-8.5,6.94-19.56,15.87-7.08,5.72-12.9,10.32-16.73,13.33" transform="translate(-25.89 -63.01)"/><path class="cls-10" d="M122.21,252.54,136,241.76c13.09-10.19,14.83-11.53,19.91-15.52,12.66-9.92,12.44-9.92,18.86-14.88,9.36-7.24,15-11.22,22.6-16.79,7-5.14,16.39-12.31,35.15-26.65,37.39-28.58,37.37-29,53-40.53,29.64-21.84,22.47-15,34-24.1a141.77,141.77,0,0,1,22.12-14.46,63,63,0,0,1,13.6-5.66,58.49,58.49,0,0,1,19.56-1.71,78,78,0,0,1,18.8,3.46" transform="translate(-25.89 -63.01)"/><path class="cls-10" d="M27.32,422.76c6.31-4.84,15.64-12,26.93-20.7,9.29-7.15,22.46-17.34,45.36-35.15,37.08-28.84,34.54-27.05,52.72-41.1,22.1-17.08,25.77-19.67,48.47-37.13,13.28-10.21,32.58-25.15,56.13-43.66" transform="translate(-25.89 -63.01)"/><path class="cls-10" d="M106.2,362.31c-.08,1.93-.18,4.72-.29,8.08-.35,10.7-.3,11.93-.21,13a52.83,52.83,0,0,0,3.12,13.46,64.1,64.1,0,0,0,6,13.75c4.1,6.87,8.35,10.56,16.44,17.57,3.64,3.15,7.62,6.21,13.33,7.44l.7.15a7.12,7.12,0,0,0,3.41-.57c4.12-1.8,9.78-9,9.78-9,2.44-3.05,4.17-5.54,5-6.73,3.24-4.56,4.87-6.83,6.52-9.64a127.59,127.59,0,0,0,6.59-13.61c.66-1.49.45-1.05,2.26-5.24,4.52-10.43,6.78-15.65,7.73-17.58,1.76-3.57,2.44-4.63,3.19-7.15a32.88,32.88,0,0,0,1.27-8.44,72.2,72.2,0,0,0-1.06-15,136.66,136.66,0,0,0-11-36.21" transform="translate(-25.89 -63.01)"/><path class="cls-10" d="M410.94,388.08a191.94,191.94,0,0,1-17.38-15.5c-7.3-7.34-11.58-12.85-22.68-26.83-5.86-7.39-19.91-24.66-21.54-27a9.35,9.35,0,0,0-.71-.9,9.93,9.93,0,0,0-3.07-2.3c-6.88-3.41-13.21-8-20.41-10.69-8.85-3.28-16.8-10-32.69-23.43-10.25-8.65-6.48-6.86-33.36-34a41.37,41.37,0,0,1-7.08-9.08c-5.14-9-5.37-17.73-5.48-22.2a21.57,21.57,0,0,1,4.15-14,25.13,25.13,0,0,1,9.45-7.66c2.91-1.51,6.32-3.34,7.58-2.54" transform="translate(-25.89 -63.01)"/><path class="cls-10" d="M246.33,208.7a53.16,53.16,0,0,1-2.79-5.77c-1.27-3.06-2.08-5-2.34-7.8a14.5,14.5,0,0,1,.67-6.94,14,14,0,0,1,4.89-6.24,16.87,16.87,0,0,1,9.07-3.29,20.11,20.11,0,0,1,5.74.39c3.63.68,5.87,1.89,8.86,3.29,4.17,2,2.56.88,10.91,4.43,2.48,1,9.14,3.89,15.81,7.19,4.45,2.21,6.4,3.39,19.24,10.88,12.26,7.16,18.39,10.74,22.89,13.33,13.61,7.83,14.24,8,19,11.05,5.32,3.44,9.44,6.52,17.68,12.69,8,6,13.39,10,20.41,15.87,6.73,5.61,11.33,9.88,18.71,16.72,4.83,4.48,9.65,9.13,19.28,18.43,25,24.13,22.1,21.9,25.23,24.66,3.59,3.17,6.58,7,10.11,10.21a6.26,6.26,0,0,1,1,1.22,7,7,0,0,1,.52,1,6.65,6.65,0,0,1,.42,1.93,6.9,6.9,0,0,1-1,3.59c-3.45,5.91-1,3.33-4.35,7.89A142,142,0,0,1,453.42,359a135.68,135.68,0,0,1-19.89,15.92,185.81,185.81,0,0,1-22.25,13" transform="translate(-25.89 -63.01)"/><path class="cls-10" d="M328.46,213.37A104.57,104.57,0,0,1,317.78,212c-4.27-.79-7.46-1.66-10.68-2.55-9.21-2.53-8.43-3.08-13.41-4.06-6.1-1.2-7.68-.48-11.63-2.36a37.29,37.29,0,0,1-6.52-4.44c-3.49-2.7-6.21-5.11-8-6.81" transform="translate(-25.89 -63.01)"/></svg>
