<svg id="Слой_2" data-name="Слой 2" xmlns="http://www.w3.org/2000/svg" viewBox="0 0 444.58 455.99"><defs><style>.cls-1{fill:#f9b795;}.cls-2,.cls-9{fill:#565656;}.cls-10,.cls-2,.cls-4,.cls-6,.cls-8,.cls-9{stroke:#000;stroke-miterlimit:10;}.cls-10,.cls-2,.cls-4,.cls-8{stroke-width:4px;}.cls-3{fill:#ea9e7d;}.cls-4{fill:none;}.cls-10,.cls-5{fill:#08e8de;}.cls-6{stroke-width:13px;}.cls-7{fill:#fcfcfc;}.cls-8{fill:#636363;}.cls-9{stroke-width:6px;}</style></defs><title>icons</title><path class="cls-1" d="M62.85,82.79C141.25,46.36,177,29.69,178.69,28.74c1-.59,3.19-2,4.25-2.55s3.17,2.28,3.9,2.35c1,.09,1.34,3.1,1.88,3.68,3.32,3.63,10,17.32,12.09,21.36.89,1.73,1.89,3.4,2.83,5.1,28.36,51.21,42.53,76.81,43.66,78.61,2.12,3.4,6.51,11.53,15.31,27.78a68.59,68.59,0,0,1,4.53,10.21,57.61,57.61,0,0,1,3.21,14,47.1,47.1,0,0,1-.75,15.5,51.5,51.5,0,0,1-6.43,14.74c-15.89,24.58-72.92,41.5-87.87,37a32.39,32.39,0,0,1-17.2-12.1,117.51,117.51,0,0,1-10.39-14.17c-11.33-19.44-32.43-59.21-40.07-73.32-2.4-4.45-5.44-9.9-11.52-20.79-11.15-20-20.55-36.42-27.22-48" transform="translate(-28.2 -22.62)"/><path class="cls-2" d="M107.83,332.71C78.54,368.57,58.49,393,50.57,402.25c-3.69,4.32-7,9-10.57,13.35-4.87,5.93-12.37,11-8.93,19.7,3.31,8.37,12.79,15.1,19.38,20.78,5.7,4.9,11,11,16.85,15.53,8.46,6.5,18.32-4.81,23.34-10.62,8.78-10.17,18.54-19.42,28.34-28.6,16.53-15.48,28.63-27.88,34-33.63,4.71-5,9.55-10.4,9.55-10.4.92-1.15,4.23-4.12,4-4.44-.12-.15-.86.46-2.17.85a9.44,9.44,0,0,1-4,.19,21.75,21.75,0,0,1-6.14-1.51,24.87,24.87,0,0,1-4.25-2.27c-4.79-3.07-8.42-6-9-6.42-4.55-3.67-6.83-5.5-9.54-8-1.43-1.33-4.82-5-11.53-12.37a99.41,99.41,0,0,1-7.18-8.7,23.91,23.91,0,0,1-4-7.56,21.82,21.82,0,0,1-.75-3.59" transform="translate(-28.2 -22.62)"/><path class="cls-3" d="M72.87,76.66C76.26,84.45,84.46,97.35,91,111c9.86,20.57,18,35.84,29.25,56.69,10.27,19.08,15.4,28.62,22,39.89,14.62,24.82,24.76,42,29.59,46.65.4.38,2.31,2.15,1.92,2.81-.5.86-4.58-.66-5.28-.92-8.25-3.08-17.41-12.17-18.11-13.2-6.15-9-41.6-73.17-89.78-158.52" transform="translate(-28.2 -22.62)"/><path class="cls-3" d="M172.49,31c4.63,6.34,11,18.85,18.77,30.38C203,78.79,211.32,92.41,222.63,111c10.35,17,15.53,25.58,21.35,36.09,12.83,23.16,21.73,39.24,23.06,45.17.11.49.59,2.82,1.32,2.83.95,0,1.75-3.86,1.89-4.53,1.62-7.86-2-15.79-2.45-16.82-4.23-9.06-37.78-70.63-82.94-148.67" transform="translate(-28.2 -22.62)"/><path class="cls-4" d="M60.91,82.74c27-12.78,46.53-22,59.67-28.2,2.87-1.35,14.44-6.81,28.77-13.61,17.62-8.36,26.43-12.54,27.93-13.32.15-.08,1.57-.82,3.54-1.7a18.21,18.21,0,0,1,3.12-1.28c2-.16,4,2.4,9.49,12.19,1.51,2.68,2.65,4.77,3.69,6.66,2.07,3.78,4.16,7.56,6.23,11.34,6.22,11.34,25.35,44.93,33.59,59.53,26.51,47,21.5,39,22.54,40.67a98.8,98.8,0,0,1,5.81,10.92,56.08,56.08,0,0,1,4,10.91,52.42,52.42,0,0,1,1.13,10.49,71.81,71.81,0,0,1-.56,14A67.42,67.42,0,0,1,267.7,211" transform="translate(-28.2 -22.62)"/><path class="cls-4" d="M181.67,259.06a64.89,64.89,0,0,1-9.64-2.13,47.81,47.81,0,0,1-7.51-2.84A43.09,43.09,0,0,1,154.31,247a48.66,48.66,0,0,1-9.77-12.76c-6.15-11.27-13.15-22.09-18.85-33.59-2.22-4.46-8.52-15.4-21.12-37.27C90.63,139.19,77.43,117.28,71,104.57c-5-9.88-9.92-20.13-9.92-20.13-.63-1.31-1.13-2.36-1.42-3" transform="translate(-28.2 -22.62)"/><path class="cls-5" d="M214.5,295.76s-11.1-3.28-21.26-17.95c-1-1.44-2-3-2-3-1.92-3.08-3.14-5.53-3.59-6.43-2.26-4.52-4.7-8.95-6.9-13.51-3.77-7.84-7.67-15.08-13.13-25.23-7.89-14.65-12-21.86-16-28a58.19,58.19,0,0,1-4.91-9.26,43.68,43.68,0,0,1-3.31-10.77,37.54,37.54,0,0,1,.66-14.93c1.77-6.85,5.14-11.28,8.13-15.12,6.44-8.27,13.52-12.63,19.37-16.15s9.9-5.92,16-7a39.44,39.44,0,0,1,15,.37,42.16,42.16,0,0,1,12.85,4.82,37.6,37.6,0,0,1,8.5,6.81,48.08,48.08,0,0,1,4.82,6.61c3.22,4.9,5.35,8.65,7.28,12,2.3,4,4.68,7.92,7,11.9,5.85,10.08,16.56,27.95,26.36,43.19,2.47,3.82,4.67,7.82,7.18,11.62a101.32,101.32,0,0,1,7.18,12.94,16.57,16.57,0,0,1,1.42,4.54,19.09,19.09,0,0,1-.47,7.27,40.25,40.25,0,0,1-3.12,9.64c-3.95,8.27-10.16,13.46-14.27,16.82A87.59,87.59,0,0,1,253,286.22a96.44,96.44,0,0,1-11.05,5.48C233.72,295,224.43,298.7,214.5,295.76Z" transform="translate(-28.2 -22.62)"/><path class="cls-4" d="M193.06,280c-2.28-4.34-6-11.49-10.59-20.41-9-17.49-10.26-20.42-15.12-29.29-5.93-10.83-8.89-16.25-12.28-21.73-4.13-6.67-7.8-12.05-10.77-20.79-2.31-6.8-2.45-10.52-2.46-12.09a34.55,34.55,0,0,1,4.35-16.25c4.86-9.66,11.8-15.09,17.76-19.66,6.23-4.76,12.34-9.44,21.92-11.52a43.44,43.44,0,0,1,19.66.19,41.17,41.17,0,0,1,17.19,9.26c2.62,2.36,4.72,4.89,10.59,14.74,6,10,9.17,16.41,12.28,22.11,1.9,3.48,6.32,10.37,15.12,24.18,6.52,10.24,12.7,20.68,19.09,31,.32.51,1.41,2.27,2.64,4.72a39.34,39.34,0,0,1,3.4,8.32c1.11,4.74-.11,8.75-1.13,12.09-.66,2.15-2.55,7.65-8.32,14.55-6.37,7.62-13,11.66-19.84,15.69a84.82,84.82,0,0,1-20.22,9.26,78.34,78.34,0,0,1-23.24,3.21" transform="translate(-28.2 -22.62)"/><path d="M211.39,273c2.85-6.59,5-11.84,6.42-15.49,1.91-4.83,2.86-7.25,3-7.94.84-3.47,1-6.67,2.46-7a1.85,1.85,0,0,1,1.43.47,38,38,0,0,1,6.87,6c3.72,4.52,10.87,10.92,13.11,12.33a2.65,2.65,0,0,1,1.35,1.67,2.27,2.27,0,0,1-.42,1.49,5.45,5.45,0,0,1-2.59,2c-4.47,1.81-10.19,4.7-11.06,5.14-.38.2-1.26.66-2.51,1.24-1,.45-1.5.66-2.91,1.28-.56.24-1.72.74-3.12,1.38-2.81,1.27-4.22,1.91-4.64,2.19a2,2,0,0,1-.56.29,2.75,2.75,0,0,1-.54.1c-.74.06-1.87-.88-1.87-.88a29.31,29.31,0,0,1-3.83-3.44c-.19-.21-.33-.39-.43-.5" transform="translate(-28.2 -22.62)"/><path class="cls-6" d="M214.08,276.25l-82.37,88.88" transform="translate(-28.2 -22.62)"/><path class="cls-4" d="M110.86,330a2.77,2.77,0,0,1,.46-.2c3.58-1.27,7.88.78,11,2.35a72.86,72.86,0,0,1,11.49,7.65,186.31,186.31,0,0,1,20.28,18c5.77,5.91,12.4,12.55,14.07,21,.36,1.78.33,3.49-1.41,4.52a6.66,6.66,0,0,1-3.29.78c-8,.24-15.63-5.66-21.76-10.25a118.69,118.69,0,0,1-17-16.14c-5.19-5.75-10.6-11.34-14.19-18.32C109.24,336.9,107.5,331.81,110.86,330Z" transform="translate(-28.2 -22.62)"/><path class="cls-7" d="M222.59,170.07l3.9,6.83q6.7,11.7,13.6,23.29c3.51,5.93,19,23.54,11.19,30.29-3.74,3.24-8.23,1.08-9.94-2.89-5.08-11.76-13.11-22.49-19.63-33.49q-6.28-10.59-12.32-21.31c-2.49-4.43-9.72-13-8.87-18.33a6,6,0,0,1,2.55-3.83,6.28,6.28,0,0,1,3.12-1c4.92-.39,6.94,4,9.06,7.65Q219,163.65,222.59,170.07Z" transform="translate(-28.2 -22.62)"/><path class="cls-8" d="M380.51,41.61c-9.52-.23-19.05-.55-28.56-.76-7.66-.17-10.71,3.63-13.07,10.58s-2.53,14.23-2.64,21.38c-.37,23.33-1,46.68-1.07,70q-.07,27.09-1.23,54.15c-.39,9.72-1.23,19.42-1.82,29.13-.55,9.18.37,18.83-.78,27.89-.7,5.55,4.68,5.16,8.79,5.07,17.2-.41,34.41-.33,51.61-.27,8.22,0,16.44,0,24.66.14,3.8.08,7.22-.26,11,.24,2.49.33,5.45,0,6.77-2.13,1.89-3-.14-9.47-.29-13-.21-4.82-.1-9.65-.17-14.48-.1-7.7-.81-15.4-1.22-23.09-1.26-24-3.11-48.21-3.11-72.19-.33-7.27-.84-18.36-1.56-32.88Q427.2,88.22,426.5,75c-.45-8.47,2.13-20.64-3.33-27.92-4.78-6.37-13.73-5.14-20.74-5.14C395.13,41.92,387.82,41.79,380.51,41.61Z" transform="translate(-28.2 -22.62)"/><path class="cls-9" d="M384.2,239.64c13-.16,21.44-.09,24.67.28a9.83,9.83,0,0,0,4-.28,8.1,8.1,0,0,0,4.26-2.55c.93-1.18,1.18-2.44,1.41-4.82a50.35,50.35,0,0,0,.29-8.22c-.41-4.71-.28-9.46-.57-14.18-.22-3.62-.53-9-.85-15.59" transform="translate(-28.2 -22.62)"/><path class="cls-10" d="M379.1,476.16l-5.43-.08c-8.73-.11-17.46.35-26.14-.34-7.22-.57-15.08-.49-20.73-5.78-2.7-2.53-4.4-5.94-5.87-9.33a216.13,216.13,0,0,1-8.4-24c-8.2-27.21-14.56-54.7-17.33-83-1.15-11.77-.94-23.64-1.46-35.44a192.15,192.15,0,0,1,1.35-32.61c1.16-9.18,6.89-12.75,14.63-16.7a80.89,80.89,0,0,1,17.2-6.75c6.47-1.6,13.43-1.23,20.07-1.38,14-.32,28-.13,42,0,13.44.15,27.05-.79,40.43.76,9.91,1.14,19.79,3.79,28.3,9,5.86,3.59,9.48,7.91,11.11,14.56,1.81,7.37,2.1,15,1.9,22.59a518.15,518.15,0,0,1-5.23,63.27c-3.13,20.75-9.58,40.61-13.26,61.19-.42,2.31-3.68,12.22-10.21,32-4.49,13.65-20.66,12.54-32.53,12.39C399.37,476.53,389.23,476.31,379.1,476.16Z" transform="translate(-28.2 -22.62)"/><path class="cls-4" d="M295.76,321q50.63,5.79,101.64,7.07c25.59.64,48.39-.44,73.38-6.35" transform="translate(-28.2 -22.62)"/><path class="cls-4" d="M297.75,382.5c9.12,1.27,22.31,3,38.27,4.54,31.72,3.11,53.61,5.16,80.78,3.4A303.07,303.07,0,0,0,463.51,384" transform="translate(-28.2 -22.62)"/></svg>
