<svg id="Слой_1" data-name="Слой 1" xmlns="http://www.w3.org/2000/svg" viewBox="0 0 160.46 78.59">
  <defs>
    <style>
      .cls-1,.cls-2{fill:none;stroke:#000;stroke-miterlimit:10;}.cls-1{stroke-width:4px;}
    </style>
  </defs>
  <title>IMG_3545</title>
  <path class="cls-1" d="M256.87,322.5c-5.1.48-9.87.95-14.37,3.64a29.25,29.25,0,0,0-9.7,9.59,28.39,28.39,0,0,0-2.47,4.89c-3.44,8.79-2.44,19.29,3.41,26.79a26.51,26.51,0,0,0,9.12,7.82,40.39,40.39,0,0,0,13.52,3.64" transform="translate(-226.35 -302.27)"/><path class="cls-1" d="M261.41,368.56l-.07-45.85" transform="translate(-226.35 -302.27)"/><path class="cls-1" d="M277.78,368.63,264,355.52" transform="translate(-226.35 -302.27)"/><path class="cls-1" d="M263,355.92c7,.42,14.77-5.34,16.28-12.24,1.93-8.83-5.48-19.14-14.83-19.15a11.28,11.28,0,0,0-1.83.14" transform="translate(-226.35 -302.27)"/>
  <path class="cls-1" d="M286.71,322.35q0,23.14.07,46.28" transform="translate(-226.35 -302.27)"/>
  <path class="cls-2" d="M275.49,307.57c1.49-1.63,3-3.32,4.53-4.94" transform="translate(-226.35 -302.27)"/>
  <path class="cls-2" d="M275.12,307.23l11.94,11.08" transform="translate(-226.35 -302.27)"/>
  <path class="cls-2" d="M286.7,318.66l12-11.23" transform="translate(-226.35 -302.27)"/>
  <path class="cls-2" d="M279.65,302.8l15.07,0" transform="translate(-226.35 -302.27)"/>
  <path class="cls-2" d="M294.33,302.59c1.49,1.83,2.92,3.66,4.42,5.49" transform="translate(-226.35 -302.27)"/>
  <path class="cls-2" d="M276,307.47l21.83.18" transform="translate(-226.35 -302.27)"/>
  <path class="cls-2" d="M279.8,303.22l2.55,4" transform="translate(-226.35 -302.27)"/>
  <path class="cls-2" d="M285.75,302.94c-1.27,1.45-2.55,2.9-3.82,4.36" transform="translate(-226.35 -302.27)"/>
  <path class="cls-2" d="M288.2,303l4.07,4.22" transform="translate(-226.35 -302.27)"/>
  <path class="cls-2" d="M294.33,303.08,292,307.26" transform="translate(-226.35 -302.27)"/>
  <path class="cls-2" d="M282,307.65c1.61,3.05,3.38,7.32,5,10.36" transform="translate(-226.35 -302.27)"/>
  <path class="cls-2" d="M292.27,307.79c-1.57,3-3.57,7.18-5.14,10.22" transform="translate(-226.35 -302.27)"/>
  <path class="cls-1" d="M303.86,323.84c-.38,0-.92-.07-1.56-.09a11.86,11.86,0,0,0-3.12.14,5.4,5.4,0,0,0-2.74,1.28,5.15,5.15,0,0,0-1.27,2,7.15,7.15,0,0,0-.48,2.27,7.23,7.23,0,0,0,.24,2.88,7.34,7.34,0,0,0,2.08,2.88c1.42,1.48,2.45,2.41,3.21,3.12.28.26,1.75,1.78,4.68,4.82a23.37,23.37,0,0,1,3,3.49,11.06,11.06,0,0,1,1.51,3.12,11.75,11.75,0,0,1,.24,4.68,14.06,14.06,0,0,1-.9,4.2,12.5,12.5,0,0,1-2.17,3.64,13.83,13.83,0,0,1-2.41,2.13,14.22,14.22,0,0,1-2.79,1.7,13.82,13.82,0,0,1-3.83,1,21.23,21.23,0,0,1-5.24.14" transform="translate(-226.35 -302.27)"/>
  <path class="cls-1" d="M313.14,323.77l15.88-.14" transform="translate(-226.35 -302.27)"/>
  <path class="cls-1" d="M321.43,368.84V325.12" transform="translate(-226.35 -302.27)"/>
  <path class="cls-1" d="M328.73,368.49q4.86-22.75,9.71-45.5" transform="translate(-226.35 -302.27)"/>
  <path class="cls-1" d="M327.67,345.46l15.52-.22" transform="translate(-226.35 -302.27)"/>
  <path class="cls-1" d="M348.43,368.77l-9.78-46.63" transform="translate(-226.35 -302.27)"/>
  <path class="cls-1" d="M355.66,322.07l-.28,46.42" transform="translate(-226.35 -302.27)"/>
  <path class="cls-1" d="M368,367l-14.56.15" transform="translate(-226.35 -302.27)"/>
  <path class="cls-1" d="M374.51,322l-.28,46.41" transform="translate(-226.35 -302.27)"/>
  <path class="cls-1" d="M386.79,366.84l-14.56.15" transform="translate(-226.35 -302.27)"/>
</svg>
