<svg id="brows" xmlns="http://www.w3.org/2000/svg" viewBox="0 0 515.96 425.15"><defs><style>.cls-2{fill:none;stroke:#000;stroke-miterlimit:10;stroke-width:30px;}</style></defs><title>brow</title><path class="cls-2" d="M19.58,202.13c18.9-10,39.71-15.49,60.58-19.58,21.6-4.23,43.24-8.25,64.88-12.63,32-6.48,64.33-11.67,96.23-18.43,32.67-6.92,66-12.07,99.55-10.45,19,.93,38.26,4.14,55.43,12.43,22.51,10.88,38.63,31.31,51.95,51.83,14.59,22.49,24.7,46.47,42,67.08" transform="translate(2.61 -24.07)"/><path class="cls-2" d="M23.27,200.24c-10.72,5-12.55,22.48-9.64,32.52,8.61,29.79,44.78,28,69.41,24.06,42.91-6.85,84.88-18.5,126.51-30.73,40.68-12,80.36-26.13,123.33-26.86,25.92-.44,53.48-.55,76.17,13.49,11.71,7.25,22,16.55,32.71,25.2,20.45,16.48,41.37,32.63,65.71,43" transform="translate(2.61 -24.07)"/><path class="cls-2" d="M214.61,58.7c12.52-2.27,32.23-5.83,56.69-10.2C302.93,42.84,312.73,41.14,328,40c26.91-2,41.79-.17,47.06.57A200,200,0,0,1,408.5,48.5a211.83,211.83,0,0,1,41.38,18.7c16.47,9.69,27.7,19.31,36.85,27.22,7.2,6.22,6.32,11.63,10.39,15.73" transform="translate(2.61 -24.07)"/><path class="cls-2" d="M492.4,44c1.14,23.24,1.08,54.15,2.22,77.39" transform="translate(2.61 -24.07)"/><path class="cls-2" d="M439.39,110.15c21.55-.76,46.54-3.92,68.08-4.68" transform="translate(2.61 -24.07)"/><path class="cls-2" d="M118.8,398.86c64,42,155.32,46.06,224.73,14.94a168.36,168.36,0,0,0,27.55-15.51" transform="translate(2.61 -24.07)"/></svg>
