<svg id="Слой_7" data-name="Слой 7" xmlns="http://www.w3.org/2000/svg" viewBox="0 0 459.07 266.41"><defs><style>.cls-1{fill:#f4f4f4;}.cls-2{fill:#4a5441;}.cls-3,.cls-4{fill:#332a25;}.cls-3{stroke:#000;stroke-miterlimit:10;stroke-width:4px;}.cls-5{fill:#5e544f;}.cls-6{fill:#fff;}</style></defs><title>icons</title><path class="cls-1" d="M122,257.5c11.3-10.6,43.46-27,43.46-27,29.41-15,26.26-15.52,37.23-19.27a130.49,130.49,0,0,1,36.29-7A128.41,128.41,0,0,1,275.07,208c9.29,2.18,38.85,9.42,63.69,31.75,5.59,5,17.2,16.46,24.94,24.76,9.6,10.3,9.62,11.91,14.55,14.93,2.07,1.26,5.06,2.82,4.92,4.72s-3.29,2.11-8.13,5.48a35.52,35.52,0,0,0-8.5,8.51c-2.5,3.57-1.77,4.1-3.78,6.23-1.5,1.59-3.28,2.75-9.81,5.27-5.88,2.27-9.38,3.31-9.38,3.31-9.45,2.79-14.18,4.19-20,5.57-5.13,1.22-13.36,3.16-23.83,4.63a231,231,0,0,1-33,2.15,270.64,270.64,0,0,1-40.21-2.48c-31.61-4.53-29.81-11.37-91.25-33-6.22-2.19-27.3-9.54-26.64-16.44.15-1.6,2.37-4.09,6.8-9.07C118.09,261.37,120.65,258.76,122,257.5Z" transform="translate(-14.38 -61.78)"/><path class="cls-2" d="M226.6,206.61A68.23,68.23,0,0,0,210,218.33a52.51,52.51,0,0,0-9.26,11.29,54.74,54.74,0,0,0-4.49,9.69,60.46,60.46,0,0,0-3.92,22,53.84,53.84,0,0,0,7.56,27.59,55.19,55.19,0,0,0,13.42,14.74c4.61,3.75,13.09,10.48,26.07,13.22a58.94,58.94,0,0,0,59.91-24.56,56.32,56.32,0,0,0,7.37-16.07,59.4,59.4,0,0,0,1.82-20.76,50.16,50.16,0,0,0-1.84-11.2,49.33,49.33,0,0,0-4-9.35,95.69,95.69,0,0,0-11.77-16.8,81.86,81.86,0,0,0-7.08-7,13.46,13.46,0,0,0-1.28-1.06c-3.66-2.57-8.21-1.82-9.64-1.63-8.63,1.15-12.47-3.29-30.75-3A114,114,0,0,0,226.6,206.61Z" transform="translate(-14.38 -61.78)"/><path class="cls-3" d="M448.93,138.63l-.22-.14a377.61,377.61,0,0,0-33.8-18c-13.79-6.19-29.27-11.19-60.47-20.41C333.9,94,318,89.29,295.1,83.45c-27.55-7-41.67-10.8-60.47-14-13.83-2.34-27.86-4.66-46.87-5.29-19.8-.65-34.14-1.12-52.15,4.16C122,72.31,112,77.9,100.08,84.58c-10.9,6.1-17.93,11.06-30.62,20C48.4,119.5,23.27,139.54,22,140.57A15.58,15.58,0,0,1,20.27,142c-.21.14-.51.32-.92.64s-.39.34-.85.71-.57.39-1,.74a5.59,5.59,0,0,1-.58.46l-.27.2c-.19.15-.29.22-.28.24a5,5,0,0,0,2-.69l.82-.45c.2-.11.54-.3.87-.5.82-.46.82-.5,1.49-.88s.72-.38,1.23-.69.82-.53,1.08-.7l.71-.49c1.56-1.1,4.72-3,4.72-3,2-1.17,3.48-2,3.57-2.08,4.12-2.35,5.33-3.22,12.49-7.51,1.14-.68,3.24-1.94,5.7-3.38,5.46-3.2,8.93-5.11,13.77-7.82l14.69-8.34c16.2-9.2,16-9.09,16.28-9.24a148.52,148.52,0,0,1,24.94-10.55A144.75,144.75,0,0,1,148,82.93a173.67,173.67,0,0,1,25.16-1.21c7,.12,12.31.58,19.39,1.19,7.52.64,12.36,1.06,19,2.15s11.16,2.21,19.32,4.22c8,2,14,3.69,17.91,4.82,5.19,1.5,11.91,3.52,19.7,6.1,7.47,2.47,12.83,4.43,18.11,6.35,29,10.55,27.81,10,33.95,12.33,0,0,31.39,11.75,92,39.21,6.24,2.84,12.56,5.51,18.75,8.46.16.08.68.32,1.37.62a31.15,31.15,0,0,0,5.58,1.74c6.43,1.45,6.25,2,10.25,2.55a31.16,31.16,0,0,0,8.88.24,29.23,29.23,0,0,0,6.19-1.51,16.14,16.14,0,0,0,4.58-2.17,8.13,8.13,0,0,0,2.88-3.31,8,8,0,0,0,.1-5.29,15.87,15.87,0,0,0-4.91-7.61c-.51-.5-2.06-1.68-5.15-4.06-1.48-1.13-2.77-2.1-5.34-4-1.36-1-2.59-1.92-4.21-3.07a9.06,9.06,0,0,1-1.36-.95,4.8,4.8,0,0,1-.64-.65s-.08-.1-.16-.18A1.77,1.77,0,0,0,448.93,138.63Z" transform="translate(-14.38 -61.78)"/><path class="cls-4" d="M264.49,208.55a147.11,147.11,0,0,1,28.34,6,109.84,109.84,0,0,1,21,8.88c7.4,4.15,12,7.92,20.41,14.93a306.46,306.46,0,0,1,24.19,22.49c9,9.24,9,10.38,16.63,17.57a161.4,161.4,0,0,0,17.57,14.74c4.26,3.06,12.32,8.53,17.58,11.15a93.15,93.15,0,0,1,8.63,4.82,15.76,15.76,0,0,0,1.6,1,5.82,5.82,0,0,0,1.27.58,52.9,52.9,0,0,0-4.59-3.14c-4.53-2.92-9-5.95-13.53-8.85-8.31-5.33-15.61-13-22.08-19.83-10-10.54-8.16-10.78-19.71-23a201.54,201.54,0,0,0-17.31-16.39c-1.28-1.07-3.57-3-6.52-5.23a164.34,164.34,0,0,0-24-15.78,147.78,147.78,0,0,0-19.19-8.42,181.47,181.47,0,0,0-43-9.83,133.08,133.08,0,0,0-23.49-.73c-10.55.74-18,2.93-29.48,6.42-14.84,4.49-13.76,5.7-31,11.12-9.39,3-9.69,2.59-26.36,7.66-5.52,1.67-10,3.07-17.72,5.31-7.13,2.06-12.39,3.48-14.35,4-3.69,1-10.08,2.71-16.19,4.15-9.79,2.31-17.09,3.5-27.5,5.17,0,0-17.3,2.79-31.43,3.76-11.84.81-13.63-.46-15.48-.39a3.76,3.76,0,0,1-1.53-.21c-.55-.2-.84-.47-.88-.43a16.07,16.07,0,0,0,2.87,3c1.68,1.5,3.81,3.12,10.52,7.12,1.47.88,2.1,1.23,3,1.77,6.7,3.94,10.17,6.65,15.24,10,3.23,2.13,6,3.74,11.55,6.95,12.16,7,23.44,12.64,31.64,16.48,5.6,2.62,16.56,7.6,30.83,13,6.87,2.59,15.55,5.83,27.39,9.25,9.8,2.83,17.57,4.57,23.78,5.95,5.89,1.32,12,2.68,20.26,4,8.65,1.43,15.4,2.14,21.09,2.73,5.92.62,10.88,1.14,17.5,1.49a298.25,298.25,0,0,0,32.07-.18c7.2-.34,12.65-.8,14.45-.95a314.72,314.72,0,0,0,31.5-4.11,208.85,208.85,0,0,0,25.62-6s6.35-2,20.09-7.65c.25-.1.68-.31,1.08-.49l.49-.27c.1,0,.16-.08.15-.09a33.53,33.53,0,0,0-3.57.81,72.84,72.84,0,0,0-7.63,2.54s-1.47.55-9,2.94c-5.54,1.76-10.39,2.75-19.86,4.66-8.61,1.73-12.92,2.6-17.47,3.2-6.56.88-11.29,1.12-19.47,1.55-6.73.34-11.75.6-18.71.47a167,167,0,0,1-16.77-1,185.07,185.07,0,0,1-18.45-3.17c-6.58-1.36-13.5-2.78-22.57-5.49-8.35-2.49-14.5-4.86-20.09-7-5.44-2.12-11.22-4.38-18.67-8-8.13-3.91-14-7.37-18.75-10.15-8.62-5.08-14.53-9.16-16.12-10.26-8.7-6-11.94-9.25-12.68-9.65a2.23,2.23,0,0,1-.71-.6,1.93,1.93,0,0,1-.32-.62c-.16-.79,1.28-1.74,1.42-1.83,3.44-2.29,6-5.82,9.46-8,6.95-4.35,5.31-4.6,18.26-13.39,5.94-4,10.55-6.87,13.43-8.65,5.3-3.25,11.15-6.84,19.14-11,1.83-1,9.57-5,20.18-9.47s15-5.62,17-6.08a88.44,88.44,0,0,1,12.95-1.91,149.43,149.43,0,0,1,20.16-.39C253.32,207.68,258.18,207.83,264.49,208.55Z" transform="translate(-14.38 -61.78)"/><path class="cls-4" d="M370.69,296.19a8.58,8.58,0,0,1,1.94-2.41,23.67,23.67,0,0,1,2.22-1.28,4.34,4.34,0,0,1,1.23-.49l.52-.07c.3-.05.38-.08.4-.05s-.66.55-1,.8a17.45,17.45,0,0,0-2.19,2,14.55,14.55,0,0,0-2.18,2.41,12.42,12.42,0,0,0-1.32,3.26c-.11.44-.21,1-.31,1.56,0,.15-.06.39-.09.7s0,.45,0,.45a5.09,5.09,0,0,1-.57-2.34,7,7,0,0,1,.47-2.74A9.06,9.06,0,0,1,370.69,296.19Z" transform="translate(-14.38 -61.78)"/><path class="cls-4" d="M291.26,217.7c-.16-.19-.48-.58-.95-1.06a16.15,16.15,0,0,0-2.31-1.88c-.93-.66-1-.62-1-.6-.2.18,1.13,1.91,1.38,2.23a49.52,49.52,0,0,0,5.56,5.81,36.85,36.85,0,0,1,4.15,5.92,62.82,62.82,0,0,1,5.7,10.56,53.18,53.18,0,0,1,3.16,11.55,71.28,71.28,0,0,1-.47,21.51,49.69,49.69,0,0,1-6.48,16,57.67,57.67,0,0,1-14.46,16.9,56.16,56.16,0,0,1-76.46-6.38A58.2,58.2,0,0,1,197.3,280a58.58,58.58,0,0,1-2.91-32.14,54.85,54.85,0,0,1,7.69-18.36,68.72,68.72,0,0,1,11.3-13.74c.59-.51,1.12-1.08,1.7-1.6a4.33,4.33,0,0,0,.57-.6,2.44,2.44,0,0,0,.32-.46c-.11-.12-6.32,4-11.66,10.45a53.63,53.63,0,0,0-8.47,14.53,55.54,55.54,0,0,0-4.11,14.74c-1.4,10.93,1.06,19.54,2.73,25.16a54.6,54.6,0,0,0,6.24,14.63,53.49,53.49,0,0,0,13.67,14.53,57.92,57.92,0,0,0,20.52,10.45,60.15,60.15,0,0,0,18.89,1.84A60.33,60.33,0,0,0,305.19,284a46.05,46.05,0,0,0,4.39-16.12,65.1,65.1,0,0,0-.25-10,68.09,68.09,0,0,0-1.59-11.66,52.73,52.73,0,0,0-5.74-14S299.5,227.78,291.26,217.7Z" transform="translate(-14.38 -61.78)"/><path class="cls-4" d="M254.47,254.94a13,13,0,0,1-2.36-4.44c-1.07-2.83-1.67-4.42-1.8-6.8A20.64,20.64,0,0,1,251,238a9,9,0,0,1,.47-1.42c.54-1.23,1-1.52.94-1.79-.22-.69-3.9-.57-7.93.66a29.22,29.22,0,0,0-11.06,6.33,24,24,0,0,0-6.42,8.6,23.09,23.09,0,0,0-1.61,11.43,26.74,26.74,0,0,0,3.87,11.44,26.3,26.3,0,0,0,6.52,7.18,24.61,24.61,0,0,0,24.1,2.83,25.25,25.25,0,0,0,9.26-6.9,23,23,0,0,0,4.44-6.89,30.07,30.07,0,0,0,1.61-6.43c.21-1.21,0-.22.28-3.31.08-.84.14-1.25-.1-1.41-.44-.31-1.36.61-2.74,1.32a10.42,10.42,0,0,1-4.06,1,14.26,14.26,0,0,1-6.52-1.14,21.32,21.32,0,0,1-4.82-2.45A13,13,0,0,1,254.47,254.94Z" transform="translate(-14.38 -61.78)"/><path class="cls-5" d="M122.85,224.54c6.17-4.72,7.45-5.8,9.07-7,1.79-1.34,5.38-3.87,16.8-9.64,6.89-3.48,13.88-7,23.88-11.06a218,218,0,0,1,26.71-9.21c19.86-5.2,35.84-5.05,45.93-5,14.75.13,23,1.87,27.63,3.05,1.74.44,4.56,1.21,11.2,3.54,12.19,4.28,20.63,7.25,30.05,12.05,0,0,19.53,10,40.75,30.12,4.83,4.59,9.14,9.35,9.14,9.35,1.49,1.65,3.64,4,5.6,6.52,1.1,1.41,1.3,1.78,2.19,2.77a20.1,20.1,0,0,1,2.34,2.83c.33.51.79,1.21.71,1.28-.3.24-7.57-8.5-15.16-16.37a200.18,200.18,0,0,0-17.44-16.23,160.5,160.5,0,0,0-27.85-18,166,166,0,0,0-51.66-16.44,162.82,162.82,0,0,0-38.34-1.07A173.09,173.09,0,0,0,190,193.15a202,202,0,0,0-26.79,9.92c-6.07,2.8-11.27,5.6-16.79,8.58-7.38,4-11.07,6-14.18,8.07a76.79,76.79,0,0,1-6.66,4.19c-.88.49-1.39.74-2.55,1.41-3.12,1.81-4.91,3.12-5,3.05S120.94,226,122.85,224.54Z" transform="translate(-14.38 -61.78)"/><path class="cls-4" d="M65.84,244s.08.12-4.86-3.9c-.83-.68-4.68-3.82-6.3-5.42-.8-.79-.61-.76-1.31-1.42a3.67,3.67,0,0,1-.89-1.13s-.27-.58-.18-.64,1.11,1.12,1.35,1.42c3.32,4.14,11.95,10.28,13.29,10.8.07,0,.53.21.52.37s-.14.13-.36.21a1.23,1.23,0,0,1-.71.14A1,1,0,0,1,65.84,244Z" transform="translate(-14.38 -61.78)"/><path class="cls-4" d="M83.6,240.54s.08.12-4.86-3.9c-.83-.67-4.68-3.82-6.31-5.42-.79-.79-.61-.76-1.31-1.42a3.44,3.44,0,0,1-.88-1.13s-.27-.58-.18-.64,1.11,1.12,1.35,1.42c3.32,4.15,12,10.28,13.28,10.81.08,0,.54.2.52.36s-.13.13-.35.22a1.44,1.44,0,0,1-.71.14A1,1,0,0,1,83.6,240.54Z" transform="translate(-14.38 -61.78)"/><path class="cls-4" d="M96.07,239.3c0-.06.19.29-12-9.67C82,228,72.41,220.16,68.39,216.19c-2-1.95-1.51-1.89-3.25-3.51a9,9,0,0,1-2.2-2.81c0-.08-.67-1.43-.44-1.59.38-.24,2.75,2.77,3.34,3.52,8.24,10.28,29.63,25.49,33,26.79.18.08,1.33.51,1.29.91,0,.21-.34.33-.88.53a3.22,3.22,0,0,1-1.76.35A2.33,2.33,0,0,1,96.07,239.3Z" transform="translate(-14.38 -61.78)"/><path class="cls-4" d="M105.56,235.05s.09.13-5.65-4.54c-1-.79-5.45-4.45-7.34-6.31-.92-.91-.71-.88-1.52-1.65a4.08,4.08,0,0,1-1-1.32s-.32-.67-.21-.74,1.29,1.3,1.57,1.65c3.86,4.83,13.9,12,15.46,12.58.08,0,.62.23.6.42s-.16.15-.41.25a1.6,1.6,0,0,1-.83.16A1.09,1.09,0,0,1,105.56,235.05Z" transform="translate(-14.38 -61.78)"/><path class="cls-4" d="M133.69,226.14s.2.3-12-9.66C119.6,214.8,110,207,106,203c-2-1.95-1.52-1.89-3.25-3.51a8.9,8.9,0,0,1-2.2-2.81c0-.08-.67-1.43-.44-1.58.38-.25,2.74,2.77,3.34,3.51,8.23,10.28,29.63,25.49,32.95,26.8.18.07,1.33.5,1.28.91,0,.2-.34.32-.87.52a3.24,3.24,0,0,1-1.76.35A2.32,2.32,0,0,1,133.69,226.14Z" transform="translate(-14.38 -61.78)"/><path class="cls-4" d="M151.25,221.39c0-.07.22.41-13.74-13.19-2.35-2.29-13.25-12.93-17.84-18.35-2.26-2.66-1.73-2.57-3.71-4.79a12,12,0,0,1-2.51-3.84c0-.11-.77-1.95-.5-2.16.43-.33,3.13,3.78,3.81,4.8,9.4,14,33.81,34.79,37.59,36.57.22.1,1.53.69,1.48,1.24,0,.28-.39.45-1,.72a3.15,3.15,0,0,1-2,.48A2.84,2.84,0,0,1,151.25,221.39Z" transform="translate(-14.38 -61.78)"/><path class="cls-4" d="M170.3,214.52c-.05-.07.23.43-14.41-13.75-2.46-2.39-13.9-13.49-18.72-19.14-2.36-2.78-1.81-2.69-3.89-5a12.73,12.73,0,0,1-2.63-4c0-.11-.8-2-.52-2.25.45-.35,3.28,3.94,4,5,9.86,14.64,35.46,36.3,39.44,38.15.22.11,1.59.72,1.54,1.3,0,.29-.41.46-1,.75a3.41,3.41,0,0,1-2.1.5A3,3,0,0,1,170.3,214.52Z" transform="translate(-14.38 -61.78)"/><path class="cls-4" d="M189,209.51c0-.08.23.45-13.9-14.49-2.38-2.52-13.43-14.21-18.08-20.17-2.28-2.92-1.75-2.83-3.75-5.27a13.2,13.2,0,0,1-2.54-4.21c0-.12-.78-2.15-.51-2.38.44-.37,3.17,4.16,3.86,5.27,9.51,15.42,34.23,38.24,38.07,40.2.22.11,1.54.75,1.49,1.36,0,.31-.39.49-1,.79a3,3,0,0,1-2,.53C189.66,210.9,189.13,209.79,189,209.51Z" transform="translate(-14.38 -61.78)"/><path class="cls-4" d="M204.75,203.65c0-.08.21.45-12.53-14.63-2.14-2.53-12.09-14.34-16.28-20.35-2.06-2.95-1.58-2.86-3.38-5.32a13.75,13.75,0,0,1-2.29-4.25c0-.12-.7-2.16-.46-2.4s2.86,4.2,3.48,5.32c8.57,15.57,30.84,38.59,34.3,40.57.19.11,1.38.76,1.34,1.37,0,.31-.36.5-.92.8-.75.41-1.28.69-1.83.53C205.36,205.05,204.88,203.93,204.75,203.65Z" transform="translate(-14.38 -61.78)"/><path class="cls-4" d="M223.73,200.21c0-.08.2.46-12-15-2.06-2.59-11.61-14.66-15.64-20.8-2-3-1.51-2.92-3.25-5.43a14.65,14.65,0,0,1-2.19-4.35c0-.13-.68-2.21-.44-2.45s2.74,4.28,3.34,5.44c8.23,15.9,29.62,39.44,32.94,41.46.19.11,1.34.77,1.29,1.4,0,.32-.34.51-.88.82-.72.41-1.23.7-1.75.54C224.32,201.64,223.85,200.5,223.73,200.21Z" transform="translate(-14.38 -61.78)"/><path class="cls-4" d="M242.29,200.19c0-.09.19.46-11.58-15.18-2-2.64-11.18-14.88-15.05-21.12-1.91-3.06-1.46-3-3.13-5.52a15.06,15.06,0,0,1-2.12-4.41c0-.13-.64-2.25-.42-2.49s2.64,4.35,3.21,5.52c7.93,16.15,28.52,40,31.72,42.09.17.12,1.28.79,1.24,1.43,0,.32-.33.51-.85.83-.7.42-1.18.72-1.69.55C242.86,201.64,242.41,200.47,242.29,200.19Z" transform="translate(-14.38 -61.78)"/><path class="cls-4" d="M262,202.56c0-.09.18.49-11-15.92-1.88-2.76-10.63-15.6-14.31-22.14-1.81-3.21-1.39-3.11-3-5.79a16.14,16.14,0,0,1-2-4.63c0-.13-.62-2.35-.41-2.61s2.51,4.57,3.06,5.79c7.53,16.94,27.11,42,30.15,44.14.17.12,1.22.83,1.18,1.5,0,.33-.31.54-.8.87-.67.44-1.13.75-1.61.57C262.49,204.08,262.06,202.86,262,202.56Z" transform="translate(-14.38 -61.78)"/><path class="cls-4" d="M273.85,206.07s.11.26-7.07-8.42c-1.21-1.46-6.83-8.25-9.19-11.71-1.16-1.7-.89-1.64-1.91-3.06a8,8,0,0,1-1.29-2.45c0-.07-.4-1.24-.26-1.38s1.61,2.42,2,3.07c4.84,8.95,17.41,22.2,19.36,23.34.11.06.78.44.75.79,0,.18-.2.28-.51.46s-.72.4-1,.3C274.19,206.87,273.92,206.23,273.85,206.07Z" transform="translate(-14.38 -61.78)"/><path class="cls-4" d="M280,206.85c0-.09.16.51-10.14-16.37-1.74-2.84-9.79-16.06-13.17-22.78-1.67-3.3-1.28-3.2-2.74-5.95a18,18,0,0,1-1.85-4.77,10,10,0,0,1-.37-2.68c.31-.41,2.31,4.7,2.81,6,6.94,17.42,24.95,43.19,27.75,45.4.16.13,1.12.85,1.08,1.54,0,.35-.28.55-.74.89s-1,.78-1.48.6C280.5,208.42,280.11,207.16,280,206.85Z" transform="translate(-14.38 -61.78)"/><path class="cls-4" d="M292.31,211.06c0-.05.12.29-7.25-9.38-1.24-1.62-7-9.19-9.42-13-1.19-1.89-.92-1.83-2-3.41a9.13,9.13,0,0,1-1.32-2.73c0-.07-.41-1.38-.27-1.53s1.65,2.69,2,3.41c5,10,17.85,24.73,19.85,26,.11.07.8.49.77.88,0,.2-.2.32-.53.51s-.74.45-1.05.34C292.66,212,292.38,211.24,292.31,211.06Z" transform="translate(-14.38 -61.78)"/><path class="cls-4" d="M299.57,214.2c0-.09.16.51-9.85-16.57-1.69-2.87-9.51-16.24-12.8-23-1.62-3.34-1.24-3.24-2.66-6a18.61,18.61,0,0,1-1.8-4.82,10.69,10.69,0,0,1-.36-2.71c.31-.43,2.25,4.74,2.73,6,6.74,17.63,24.25,43.71,27,45.95.16.12,1.1.86,1.06,1.55,0,.35-.28.56-.72.91s-1,.78-1.44.6C300.05,215.79,299.67,214.51,299.57,214.2Z" transform="translate(-14.38 -61.78)"/><path class="cls-4" d="M309.83,218.4c0-.05.1.25-5.7-8-1-1.39-5.5-7.86-7.4-11.15-.94-1.62-.72-1.57-1.54-2.92a8,8,0,0,1-1-2.33c0-.06-.32-1.18-.21-1.31s1.3,2.3,1.58,2.92c3.9,8.52,14,21.13,15.6,22.22.09.06.63.41.61.75,0,.17-.16.27-.41.44s-.59.38-.84.29S309.89,218.55,309.83,218.4Z" transform="translate(-14.38 -61.78)"/><path class="cls-4" d="M317.26,222.92c0-.1.14.5-8.36-16.38-1.43-2.84-8.07-16-10.86-22.77-1.37-3.3-1.05-3.2-2.26-6a20.22,20.22,0,0,1-1.52-4.77,11.94,11.94,0,0,1-.31-2.68c.26-.41,1.91,4.7,2.32,6,5.72,17.41,20.58,43.18,22.88,45.4.13.12.93.85.9,1.53,0,.35-.24.56-.61.9s-.86.77-1.22.59C317.67,224.48,317.34,223.22,317.26,222.92Z" transform="translate(-14.38 -61.78)"/><path class="cls-4" d="M327.1,228.88c0-.06.11.33-6.61-10.52-1.13-1.82-6.38-10.31-8.59-14.63-1.09-2.12-.84-2-1.79-3.82a11.73,11.73,0,0,1-1.21-3.06,6.38,6.38,0,0,1-.24-1.72c.21-.27,1.51,3,1.84,3.82,4.52,11.19,16.27,27.75,18.1,29.17.1.08.73.54.71,1,0,.22-.19.35-.49.57s-.67.5-1,.38C327.42,229.89,327.17,229.08,327.1,228.88Z" transform="translate(-14.38 -61.78)"/><path class="cls-4" d="M334.57,235.43c0-.09.12.49-7.47-16-1.28-2.78-7.2-15.71-9.7-22.29-1.22-3.24-.94-3.14-2-5.83a21.41,21.41,0,0,1-1.37-4.66,13.61,13.61,0,0,1-.27-2.63c.23-.4,1.7,4.6,2.07,5.83,5.11,17.05,18.38,42.28,20.44,44.44a2.54,2.54,0,0,1,.79,1.51c0,.34-.21.54-.54.87s-.76.76-1.09.59C334.93,237,334.64,235.73,334.57,235.43Z" transform="translate(-14.38 -61.78)"/><path class="cls-4" d="M344.22,243.21c0-.07.1.38-5.7-12.44-1-2.16-5.51-12.21-7.42-17.32-.93-2.51-.72-2.43-1.54-4.52a16.73,16.73,0,0,1-1-3.62,10.06,10.06,0,0,1-.21-2c.18-.32,1.3,3.57,1.58,4.53,3.91,13.24,14.05,32.82,15.62,34.51a1.92,1.92,0,0,1,.62,1.17c0,.26-.17.42-.42.67s-.58.59-.83.46S344.28,243.45,344.22,243.21Z" transform="translate(-14.38 -61.78)"/><path class="cls-4" d="M353.18,252.2c0-.1.11.5-6.61-16.47-1.13-2.86-6.39-16.15-8.6-22.92-1.08-3.32-.83-3.22-1.78-6A24.6,24.6,0,0,1,335,202a15.12,15.12,0,0,1-.24-2.69c.21-.42,1.51,4.72,1.83,6,4.53,17.52,16.28,43.44,18.11,45.67a2.75,2.75,0,0,1,.71,1.55,1.44,1.44,0,0,1-.49.89c-.4.46-.67.78-1,.6S353.25,252.51,353.18,252.2Z" transform="translate(-14.38 -61.78)"/><path class="cls-4" d="M235.59,202.12c0-.05.15.3-9-9.81-1.54-1.71-8.71-9.63-11.73-13.66-1.48-2-1.14-1.92-2.44-3.57a9.12,9.12,0,0,1-1.64-2.85c0-.08-.51-1.45-.33-1.61s2.05,2.82,2.5,3.57c6.18,10.44,22.22,25.89,24.71,27.22.14.07,1,.51,1,.92,0,.21-.26.33-.66.53s-.92.47-1.32.36C236,203.06,235.68,202.31,235.59,202.12Z" transform="translate(-14.38 -61.78)"/><path class="cls-4" d="M217.37,203.39s.16.27-9.24-8.68c-1.58-1.5-8.92-8.51-12-12.07-1.51-1.75-1.16-1.7-2.49-3.16a7.8,7.8,0,0,1-1.69-2.52c0-.07-.52-1.28-.34-1.42s2.11,2.49,2.57,3.15c6.32,9.24,22.75,22.9,25.3,24.07.14.07,1,.45,1,.82,0,.18-.27.29-.68.47a2.25,2.25,0,0,1-1.35.32A2,2,0,0,1,217.37,203.39Z" transform="translate(-14.38 -61.78)"/><path class="cls-4" d="M199.77,207.19c0-.05.17.29-10.47-9.35-1.79-1.62-10.11-9.17-13.6-13-1.72-1.89-1.32-1.83-2.83-3.41A8.35,8.35,0,0,1,171,178.7c0-.07-.59-1.38-.38-1.53s2.38,2.68,2.9,3.4c7.16,10,25.77,24.68,28.66,25.94.16.07,1.16.49,1.12.88,0,.2-.3.32-.77.51a2.6,2.6,0,0,1-1.52.34A2.1,2.1,0,0,1,199.77,207.19Z" transform="translate(-14.38 -61.78)"/><path class="cls-4" d="M182.64,213.6s.16.27-10.28-8.64c-1.76-1.49-9.92-8.47-13.35-12-1.69-1.75-1.3-1.69-2.78-3.14a8,8,0,0,1-1.87-2.52c0-.07-.58-1.27-.38-1.41s2.34,2.47,2.85,3.14c7,9.19,25.3,22.79,28.13,23.95.16.07,1.14.45,1.1.82,0,.18-.29.29-.75.47a2.64,2.64,0,0,1-1.5.31A2,2,0,0,1,182.64,213.6Z" transform="translate(-14.38 -61.78)"/><path class="cls-4" d="M167.38,221s.2.3-12-9.66c-2.06-1.68-11.62-9.48-15.64-13.44-2-1.95-1.52-1.89-3.25-3.52a8.8,8.8,0,0,1-2.2-2.81c0-.08-.67-1.43-.44-1.58.38-.25,2.74,2.77,3.34,3.51,8.23,10.28,29.63,25.49,33,26.8.18.07,1.33.5,1.29.91,0,.2-.34.33-.88.53a3.44,3.44,0,0,1-1.76.35A2.4,2.4,0,0,1,167.38,221Z" transform="translate(-14.38 -61.78)"/><path class="cls-4" d="M149.09,227.12c0-.05.17.24-10.5-7.88-1.79-1.37-10.12-7.73-13.63-11-1.72-1.59-1.32-1.54-2.83-2.87a7.36,7.36,0,0,1-1.92-2.29c0-.06-.58-1.16-.38-1.29s2.39,2.26,2.91,2.87c7.18,8.38,25.83,20.78,28.72,21.85.16,0,1.16.41,1.12.74,0,.16-.29.26-.76.43a3,3,0,0,1-1.53.28A2,2,0,0,1,149.09,227.12Z" transform="translate(-14.38 -61.78)"/><path class="cls-4" d="M134.07,237s.18.25-10.9-8.31c-1.87-1.45-10.52-8.15-14.17-11.56-1.79-1.68-1.37-1.63-2.94-3a7.77,7.77,0,0,1-2-2.41c0-.07-.61-1.23-.4-1.36s2.49,2.38,3,3c7.45,8.84,26.83,21.92,29.84,23,.16.06,1.2.43,1.16.78,0,.18-.3.28-.79.46a3.14,3.14,0,0,1-1.59.3A2.13,2.13,0,0,1,134.07,237Z" transform="translate(-14.38 -61.78)"/><path class="cls-4" d="M114.88,231.26s.2.3-12-9.66c-2.06-1.68-11.62-9.48-15.64-13.45-2-2-1.51-1.89-3.25-3.51a9,9,0,0,1-2.19-2.81c0-.08-.68-1.43-.44-1.58s2.74,2.77,3.34,3.51c8.23,10.28,29.62,25.49,32.94,26.8.19.07,1.33.5,1.29.91,0,.2-.34.32-.88.52a3.22,3.22,0,0,1-1.76.35A2.33,2.33,0,0,1,114.88,231.26Z" transform="translate(-14.38 -61.78)"/><circle class="cls-6" cx="251.24" cy="182.86" r="16.82"/></svg>
