<svg id="brows" xmlns="http://www.w3.org/2000/svg" viewBox="0 0 457.71 291.76"><defs><style>.cls-3{fill:none;stroke:#000;stroke-miterlimit:10;stroke-width:30px;}</style></defs><title>brow</title><path class="cls-3" d="M30.92,208.94l213.73-95.25" transform="translate(-24.82 -99.99)"/><path class="cls-3" d="M477.08,208.94,233.22,114" transform="translate(-24.82 -99.99)"/><path class="cls-3" d="M42.25,203.89C111,235.45,171.9,262.42,240.69,294" transform="translate(-24.82 -99.99)"/><path class="cls-3" d="M468.69,204.38C391,234.05,306.83,263.36,229.16,293" transform="translate(-24.82 -99.99)"/><path class="cls-3" d="M112.37,340.65C161.77,366.79,220.29,379,276,376.42c31.76-1.46,63.73-7.58,93.08-20" transform="translate(-24.82 -99.99)"/><path class="cls-3" d="M113.88,243.14c-.12,34.14-.28,77-.41,111.12" transform="translate(-24.82 -99.99)"/><path class="cls-3" d="M369.38,247.68c-.63,37.54-1.44,85.67-2.07,123.21" transform="translate(-24.82 -99.99)"/></svg>
