<svg id="Слой_8" data-name="Слой 8" xmlns="http://www.w3.org/2000/svg" viewBox="0 0 441.65 443.1"><defs><style>.cls-1{fill:#666;}.cls-2,.cls-4,.cls-8{fill:none;}.cls-10,.cls-11,.cls-2,.cls-3,.cls-5,.cls-6,.cls-8{stroke:#000;}.cls-10,.cls-11,.cls-2,.cls-3,.cls-4,.cls-5,.cls-6,.cls-8{stroke-miterlimit:10;}.cls-11,.cls-2,.cls-3,.cls-4,.cls-5,.cls-6{stroke-width:4px;}.cls-3{fill:#807d7c;}.cls-4{stroke:#f7f7f7;}.cls-5{fill:#fff;}.cls-6{fill:#fcb91d;}.cls-7{fill:#ff8061;}.cls-8{stroke-width:2px;}.cls-9{fill:#f7ad07;}.cls-10{fill:#fed198;stroke-width:3px;}.cls-11{fill:#1fd1c2;}</style></defs><title>icons</title><path class="cls-1" d="M98.32,175c1.91-3.3,8.49-1.53,24.38-.85,2.08.09,8.69.09,21.92.09,21,0,17.71-.48,25.89-.19s16.64-1,24.85.1a9.06,9.06,0,0,0,4-.29,10.78,10.78,0,0,0,5.48-4.34c6.94-9.9,18.29-15.83,27.12-24.1,22.29-20.88,22.74-20.34,30.33-28.06,0,0,17.94-18.25,19.18-19.37a1.67,1.67,0,0,0,.23-.22c.1-.12.1-.16.13-.16a12.31,12.31,0,0,1,.62,2.64,18,18,0,0,0,1.34,3.75c1.81,4.24,8.22,14.78,12.23,24,1.86,4.28,2.8,6.49,3.21,9.64.72,5.38-.39,10.08-2.07,14.74a79.26,79.26,0,0,1-14,23.71,179.61,179.61,0,0,1-33.64,30.62c-9,6.14-20,13.58-36.47,19.18a134.94,134.94,0,0,1-47.9,6.89c-6.62-.15-12.89-1.1-25.42-3-10.32-1.58-15.52-2.8-20.51-6.8a33.64,33.64,0,0,1-6.89-7.84c-.76-1.13-2.4-3.7-7-16.26-1.39-3.78-2.28-6.48-4.07-11.9C97.85,176.69,97.83,175.85,98.32,175Z" transform="translate(-29.49 -57.06)"/><path class="cls-2" d="M282.2,97.81q5.43,10.64,10.77,22.11c1.95,4.2,5.4,8.13,6.61,14.74a34.38,34.38,0,0,1,.19,10.58c-1.37,11.08-6.9,19.52-10.39,24.38-13.74,19.12-31.47,32.36-32.69,33.26-12,8.81-31.72,23-61.23,28.73-15.89,3.07-28.16,2.43-38.55,1.89a120,120,0,0,1-31-6.43,27.84,27.84,0,0,1-10.58-6.42c-1.64-1.65-3.37-3.84-6.24-9.83a130.25,130.25,0,0,1-6.8-17.95c-1.17-3.66-1.75-5.78-5.67-18.33,0-.06-.15-.21-.12-.38.14-.63,2.24-.71,4.4-.64" transform="translate(-29.49 -57.06)"/><path class="cls-3" d="M30.86,174.54h0C89.75,119.15,146.25,65.64,149.16,63c1.05-.94,2.65-2,3.16-3a1.53,1.53,0,0,1,.78-.78,1.27,1.27,0,0,1,.78,0c.91.26,7.08,0,12.62-.07,7.29-.08,21.7.12,23.52.14,33.28.44,124.41-.24,125.86-.28.07,0,.62,0,1.37,0,.42,0,.57,0,.62,0,.2.31-1.48,1.75-1.7,1.94-2.24,1.92-4.09,4.26-6.29,6.21-4.88,4.35-22.25,23.07-23,23.86-28.67,30.88-87,81.37-87.1,81.55l0,0c-.09,0-.23-.06-.23-.06s-53.5.52-168.67,1.91" transform="translate(-29.49 -57.06)"/><path class="cls-4" d="M98.51,296.24c-1.39-75.08-2.41-103.87-3.16-106.35a7,7,0,0,1-.15-4.11,7.36,7.36,0,0,1,1.85-3,40.26,40.26,0,0,1,5.24-5.24c4.6-3.44,13.36-14.22,30.05-32.74,4.35-4.83,9.17-10.16,15.59-17,9.41-10,17.52-18.26,23.53-24.24" transform="translate(-29.49 -57.06)"/><path class="cls-5" d="M286.92,219.13c5.84-5.77,53.42-33.26,58.58-36.28,11.06-6.46,26.69-16.91,28.81-18.28,10.66-6.88,13-8.55,22.78-14.41,0,0,34.11-20.35,40.45-25.7a20.29,20.29,0,0,1,3.59-2.46,17.17,17.17,0,0,1,4.15-1.7c3.34-.74,6.42.9,8.89,2.27a30.43,30.43,0,0,1,11,10.58c1.39,2.39,5,8.49,3.78,16.25-.25,1.63-1.08,7-5.3,10.77A14.72,14.72,0,0,1,458.7,163c-7.35,2.75-17.44,10.09-37.61,24.75-4.73,3.45-3.93,3-6.42,4.73-10.14,7.09-15.77,9.41-24.38,14.55-6.66,4-5.26,3.77-18.14,12.47-11.08,7.49-15.93,10.22-24.76,15.88-21,13.44-30.83,21.1-32.12,22.3a13.22,13.22,0,0,1-4.54,2.83,12.63,12.63,0,0,1-6.23.57c-1-.17-3.72-.78-7.94-4.92-4.74-4.64-6.92-9.4-8.88-13.79-2.73-6.11-4.07-9.22-2.65-11.72,1.54-2.71,5.54-3.85,6.62-4.16a8.54,8.54,0,0,1,3.78-.37c1.42.21,2.14.75,2.26.56.24-.35-2-3-5.29-4.15a13.47,13.47,0,0,0-4.72-.76c-1.31.08-2.22.38-2.46,0C284.85,221.18,286.55,219.5,286.92,219.13Z" transform="translate(-29.49 -57.06)"/><path class="cls-6" d="M384.62,181.34a52.38,52.38,0,0,1,4.16,8.12c1.88,4.15,2.82,6.23,3.21,8.51.6,3.48-.14,4.33.76,6.61s2.33,3.35,5.29,5.67c0,0,9.22,7.25,12.47,9.83,4.33,3.42,5.24,4.3,6.24,5.67.77,1.06,1.29,2,1.7,1.89.83-.23-.36-4.33.57-9.83.45-2.71.83-5,2.64-6.8,1.56-1.57,3.31-1.93,6.8-2.65a28,28,0,0,1,10.59-.19c2.63.5,3.86,1.17,4,1,.29-.62-9-5.7-18.71-11l-7.37-4a7.65,7.65,0,0,1-3-3,4.61,4.61,0,0,1,0-2.84c.43-2.06-.28-4.21-1.7-8.5a53,53,0,0,0-7.37-14.37c-3.67-4.74-6.92-6.92-11-9.63a7.87,7.87,0,0,0-5.29-1.7,7.53,7.53,0,0,0-4.16,2.26,85,85,0,0,1-13.23,9.26c-4.24,2.46-7.18,3.3-7,4.16s2.4.4,6.24,1.32a23.75,23.75,0,0,1,7.75,3.22A22.88,22.88,0,0,1,384.62,181.34Z" transform="translate(-29.49 -57.06)"/><path class="cls-7" d="M97.33,309.37c-3.09,23.81-5.1,38.64-5.53,40.39a12.58,12.58,0,0,0-.28,3.12c0,1.19.09,1.5.28,1.7.61.65,1.92.09,3.55-.28a23.83,23.83,0,0,1,9.21,0c2.35.34,2.35.8,2.83.57,3.66-1.74-4.86-19.95-3.68-31.75.39-3.87-.87-7.74-1.14-11.62a2.79,2.79,0,0,0-.7-1.85C100.64,308.44,98.2,309.1,97.33,309.37Z" transform="translate(-29.49 -57.06)"/><path class="cls-8" d="M300.15,227.45a25.23,25.23,0,0,1,5.39,6.33,19.29,19.29,0,0,1,2.74,6.9,15.9,15.9,0,0,1-.19,6.52c-.52,2-1.12,4.29-2.93,5s-4-.68-5.1-1.41c-2.5-1.68-3.59-4-5.67-8.7s-1.84-5.72-1.42-6.42a3.6,3.6,0,0,1,3.4-1.61c1.39.19,2.19,1.35,3.69,3.59a28.55,28.55,0,0,1,2.64,5" transform="translate(-29.49 -57.06)"/><circle class="cls-9" cx="69.97" cy="246.64" r="8.79"/><path class="cls-10" d="M244.59,422.79a42.93,42.93,0,0,1,1.41-5c.85-2.93,1.95-5.78,2.84-8.69.73-2.38,2-5.68,1.29-8.15a7.3,7.3,0,0,0-3-3.78c-4.11-2.9-6.74-9.23-17.76-25.33-5.93-8.65-8.06-9.18-10.58-14.74-1.62-3.55-1.59-4.71-3.78-12.85-1.93-7.11-2-6.3-7.56-24.56-3.36-11-5-16.45-5.29-17.77-1.14-5.74-.58-13.18,0-28,.27-7.11.6-8.93.37-10.77a12.73,12.73,0,0,1,.1-3.21c.14-1.34.32-1.78.66-2.08a2.9,2.9,0,0,1,2.46-.28,8.3,8.3,0,0,1,4.15,2.17,10.67,10.67,0,0,1,2.74,4.06c1,2.73.06,3.46-.18,11.06-.15,4.56.2,4.43-.1,7.46-.11,1.09-.28,2.47,0,2.55s1-1.48,1.32-2.17c1.38-3,3.29-5.79,4.92-8.69,2.75-4.9,4-6.74,6-8.51a6,6,0,0,1,4-1.89,5,5,0,0,1,3.12,1.14,6,6,0,0,1,2,4.82c-.07,1.13-.44,1.54-2.27,4.63-.11.18-2,3.42-3.68,6.61-.95,1.82-1.43,2.72-2,4.06-1.37,3.28-.85,3.32-1.79,4.73a3.49,3.49,0,0,0-1,2.46,1.61,1.61,0,0,0,.57,1c1,.58,3.08-1.61,6.52-4.63,4-3.54,3.19-2.28,7.18-5.76a19.57,19.57,0,0,1,5.76-3.78,5,5,0,0,1,3.5-.38,4.54,4.54,0,0,1,2.08,1.51c3.5,4.25-1.43,8.8-4.82,11.12-2.58,1.76-5.41,3.12-8,4.85-2.91,2-5.52,4.37-8.69,5.86-1.31.61-2.77,1.1-3.67,2.24-1.67,2.11-.68,5.06-.13,7.4.26,1.13.24,3.51,1,4.31,1-3.81,1.62-7.49,5.62-9.38,2-.93,4.22-1.08,6.34-1.58,6.23-1.48,11.4-6.05,17.64-7.48,1.52-.35,4.15-.84,5.45.26s1.21,3.46.83,4.89c-.83,3.07-3.94,4.79-9.26,7.66-4.22,2.27-6.17,2.7-7.09,4.91-.31.75-.35,1.33-.09,4.82.31,4.38.64,7.31.85,9.16.71,6.53.7,7.59,1.79,8.89a8.66,8.66,0,0,0,4.82,2.55,145.11,145.11,0,0,1,22.49,8.41s1.08.94,1.51.85c.95-.21.47-5.7.38-7.94-.25-5.92,1.32-10.27,2.83-14.93,1.74-5.34,2.81-8.48,5.86-10.2a17.69,17.69,0,0,1,5.39-1.61c2.79-.57,5.43-1.1,6.23,0s-.43,2.61-1.32,4.63c-2.71,6.16-1.35,13.87-.78,20.31a105.58,105.58,0,0,1-3.09,37.71c-1.78,6.53-2.1,5.62-3.12,9.92-2.74,11.5-1.1,23-1.47,34.7,0,1.41-.43,2-1.88,2.09-12.64.46-25.33-.53-37.93.52a1.91,1.91,0,0,1-1.3-.19C244.47,424.53,244.44,423.74,244.59,422.79Z" transform="translate(-29.49 -57.06)"/><path class="cls-5" d="M233.69,439.21c.2-2.42.63-7.79.63-10v-2.13a5.87,5.87,0,0,1,0-2.4,1.16,1.16,0,0,1,.5-.78,1.13,1.13,0,0,1,.92,0c1.2.4,6.4-.11,11.27-.22,4.12-.09,5.09.18,10.34.36,2.25.07,7.08,0,16.66-.22,0,0,17.95-.36,20.83-.07a7.78,7.78,0,0,0,2.06.07c1-.1,1.32-.33,1.63-.14.57.37.21,1.77,0,3a23.76,23.76,0,0,0,0,7.51,14.65,14.65,0,0,1,0,4.68,1.57,1.57,0,0,1-.57.92,2,2,0,0,1-1.7.07C295,439.46,273.16,439.26,233.69,439.21Z" transform="translate(-29.49 -57.06)"/><path class="cls-11" d="M224,498.08l-.27-.09c-1.9-.74-.86-4.15-.78-5.65.25-4.73.81-9.45,1.13-14.17.89-12.91.72-25.93,1.2-38.87a2.63,2.63,0,0,1,.29-1.36c.61-1,2.06-.82,3.19-.56,8.72,2,17.77,1.46,26.6.63a167.46,167.46,0,0,1,26.69-.18c7.7.52,15.36,1.21,23.1.66,1.29-.09,1.67-.26,2.12,0,1.49.84.94,3.53.86,4.85q-1.41,23.46-.6,47c0,1.31,1,5.47-.75,6.1a3.81,3.81,0,0,1-1.81,0c-10.63-1.53-21.29-.59-32-.34-15.65.36-31.6,0-47.15,2A5.23,5.23,0,0,1,224,498.08Z" transform="translate(-29.49 -57.06)"/></svg>
