<svg id="Слой_1" data-name="Слой 1" xmlns="http://www.w3.org/2000/svg" viewBox="0 0 362.21 410.26"><defs><style>.cls-1{fill:#ff87af;}.cls-2{fill:#ff6196;}.cls-3{fill:#ffb59e;}.cls-4{fill:#ffcebf;}.cls-5,.cls-8{fill:#08afa3;}.cls-6,.cls-9{fill:#08e8de;}.cls-7{fill:none;}.cls-7,.cls-9{stroke:#000;stroke-width:4px;}.cls-7,.cls-8,.cls-9{stroke-miterlimit:10;}.cls-8{stroke:#fff;stroke-width:16px;}</style></defs><title>images</title><path class="cls-1" d="M349.91,105.56q2.14-4.84,4.53-9.83c3.2-6.68,4.87-9.38,9-17.48,3-6,4.54-9,5.76-11.71,0,0,3.89-8.79,8.6-18.15a16.14,16.14,0,0,1,1.51-2.45,18.79,18.79,0,0,1,3.31-3.31,16.24,16.24,0,0,1,3.12-2.27,15.19,15.19,0,0,1,4.82-1.23,22,22,0,0,1,5.57-.47A26.86,26.86,0,0,1,401.5,40c1.16.36,2.43.79,3.87,1.33,2.35.88,2.89,1.23,7.18,3.12A48.24,48.24,0,0,1,418.13,47a27.86,27.86,0,0,1,4.53,3.4,19.78,19.78,0,0,1,4.54,5,16.49,16.49,0,0,1,1.89,5.48,25.18,25.18,0,0,1,.09,8.78,35.08,35.08,0,0,1-3.59,10.87c-4.4,8.59-16.11,32.64-19,39.31-1.4,3.22-3.88,5.89-5.39,9.07a4.56,4.56,0,0,1-1.89,2.17,4.3,4.3,0,0,1-2.26.47,20.27,20.27,0,0,1-8.7-2.26c-9.31-5.46-37.52-19.8-38.45-20a1,1,0,0,1-.48-.26,1.17,1.17,0,0,1-.27-.73,4.89,4.89,0,0,1,.07-1.42" transform="translate(-70.63 -35.48)"/><path class="cls-2" d="M358.41,113.5c3.42-6.2,6-11.34,7.79-14.89,4.33-8.71,6-12.18,6-12.18,3.47-7.4,4.39-9.87,7.23-13.33,2.29-2.79,4-4.89,7.08-6.23,4.94-2.17,9.84-.82,14.88.56,3.61,1,6.62,2.46,12.62,5.39,0,0,5.71,3.17,8.22,4.25a15,15,0,0,0,2.16,1,1.84,1.84,0,0,1,.71.36,1,1,0,0,1,.39.56.91.91,0,0,1-.18.64c-.33.53-.49,1.16-.85,1.67-.71,1-4.93,10-9,18.21-2.06,4.19-11.39,23.18-12.12,24.91,0,.06-.14.34-.32.71a16.38,16.38,0,0,1-1,1.7,28.12,28.12,0,0,1-1.77,2.55c-.72.91-1,1.07-1.06,1.13a4,4,0,0,1-2.16.43,14.76,14.76,0,0,1-3-.36c-.89-.16-1.81-.37-2.38-.53a32.12,32.12,0,0,1-7.3-3.26c-3.06-1.9-11.34-6.06-25.16-12.65" transform="translate(-70.63 -35.48)"/><path class="cls-3" d="M74.8,424.67c3.33-1.08,8.73-2.83,15.36-5,50-16.1,92.67-29.09,136.34-42.4,16.78-5.12,33.36-10.92,50.27-15.59.07,0,.43-.12.9-.29a12.52,12.52,0,0,0,2.1-1c2.14-1.18,2.36-1,4.37-2.22.86-.5,1.48-.91,1.84-1.15a56.11,56.11,0,0,0,9.59-8.13c1.31-1.43,2.7-2.79,4-4.25.14-.16.29-.29.43-.44a1.62,1.62,0,0,1,.35-.29c.14-.09.23-.15.32-.13s.21.53.21.67a28.86,28.86,0,0,1-.55,7.44,64,64,0,0,1-2,6.73,43.81,43.81,0,0,1-4.11,8,45.7,45.7,0,0,1-7.44,8.86,31.81,31.81,0,0,1-7.22,5.31,29.42,29.42,0,0,1-5.25,2.13c-11.81,3.6-23.28,8.32-35.22,11.48-18.85,5-37.27,11.49-55.91,17.22-36,11.05-32.87,10.53-47.84,14.95,0,0-22.22,6.57-32.24,10.07-3.08,1.07-6.2,2.06-9.28,3.11-1.48.51-3,.93-4.47,1.42A17.44,17.44,0,0,1,85,442.39a11,11,0,0,1-3.47-.22,7.61,7.61,0,0,1-2.63-1,8.07,8.07,0,0,1-2.83-4A15,15,0,0,1,74.94,433" transform="translate(-70.63 -35.48)"/><path class="cls-4" d="M75.16,378c5.49-1.74,13.83-4.38,24-7.58,14.44-4.54,20.77-6.5,29.69-9.29,32.48-10.16,28.51-9.27,51-16.23,0,0,36.29-11.21,41.74-13.32.32-.12.57-.2,1.06-.35a3.46,3.46,0,0,1,1.28-.29c.69.14,1,1.27,1.2,1.92.92,3.28,1.38,4.93,1.49,5.38.65,2.68.8,2.22,1.27,4.47a20.71,20.71,0,0,0,1,4.18c.44,1.09.65,1.16,1.06,2.34s.35,1.63.85,3a17.23,17.23,0,0,0,1,2.27,25.34,25.34,0,0,0,1.42,2.34,11.12,11.12,0,0,0,2,2.62,5.9,5.9,0,0,0,2.56.92,16.47,16.47,0,0,0,5,.15,27.15,27.15,0,0,0,3.33-.5,105.27,105.27,0,0,0,13.11-4.25c2.46-.89,1.29-.42,7-2.41,4.42-1.54,5.21-1.85,10.07-3.55,7.92-2.76,9.1-3.08,10.06-3.33,2.2-.55,3.33-.72,5.88-1.48a48.29,48.29,0,0,1,4.89-1.42,7.89,7.89,0,0,0,1.63-.43c.61-.23,1.42-.63,1.42-.63s.6,0,.78.28-.26,1.09-.29,1.13c-1.07,1.73-2.79,3.11-4.11,4.54-.67.74-.71.91-1.41,1.77a32.31,32.31,0,0,1-6.95,5.95,57.21,57.21,0,0,1-6.87,4,96.65,96.65,0,0,1-14.6,5.88c-8.7,2.63-17.26,5.76-26.08,7.94-11.1,2.74-50.91,14.61-165.76,50.81" transform="translate(-70.63 -35.48)"/><path class="cls-3" d="M161.54,347.07c17.2-9.75,31.77-16.74,42.1-21.4,24-10.84,36-16.26,45.64-19.84,10.63-4,22.11-7.8,28.91-14.46,4.8-4.7,11.05-8.18,14.6-13.89.2-.33.93-1.55,1.56-1.42,1.08.23,1.17,4.41,1,6.95a30.57,30.57,0,0,1-1.84,8.08c-1.49,4.47-1.72,3.36-4.54,10.34a23.87,23.87,0,0,1-3.54,6,11.33,11.33,0,0,1-2,1.7,11.56,11.56,0,0,1-2,1c-43.17,16.06-86.17,27.78-86.17,27.78C187.54,340,176,343.2,162,347.51" transform="translate(-70.63 -35.48)"/><path class="cls-4" d="M74.38,337.24l138.8-64.72.34-.16.55-.27a4,4,0,0,1,1.07-.33,2,2,0,0,1,1.09,0,1.51,1.51,0,0,1,.8.64c.07.12.07.19.23.51.06.12.11.23.21.41l.39.69c.46.78,7.61,15,8.63,18.46a6.08,6.08,0,0,0,.89,1.93c.06.09.28.37.72.93l.82,1a6.93,6.93,0,0,0,1.38,1.16,7.83,7.83,0,0,0,2.2,1,9.59,9.59,0,0,0,2.67.34,18.74,18.74,0,0,0,3.35-.2c2.31-.36,4.29-1.32,8.15-3.24,1.81-.89,2.54-1.32,5.62-2.83,1-.49,1.49-.74,2.07-1,2.64-1.25,3.41-1.49,6.45-2.89l2.71-1.28c2.18-1,3.73-1.8,4.06-2,4.25-2.1,8.38-3.27,15.76-6.66,6.68-3.07,10-4.6,10.12-4.7a.68.68,0,0,1,.46-.21c.15,0,.3.11.5.39a3.16,3.16,0,0,1,.53,1.29c.2,1.82-2.16,4.17-2.16,4.17a55.94,55.94,0,0,1-7.42,8.5c-3,2.81-6.78,5.72-13.84,9.6a132.11,132.11,0,0,1-17,7.84c-.87.32-20.94,9.63-61.09,28.25-2.49,1.16-8.69,4-17,7.8-5.74,2.59-10.24,4.59-11.06,5-28.13,12.46-87.57,28.09-88.72,28.63a3.49,3.49,0,0,1-1.07.31,1.59,1.59,0,0,1-.44,0,1.88,1.88,0,0,1-.51-.09" transform="translate(-70.63 -35.48)"/><path class="cls-4" d="M75.51,300.87h0c12.71-6.92,15-8.08,15-8.08,7.23-3.63,8.43-3.52,17.57-7.51,9.59-4.2,9.41-4.81,23.39-11.48,10.33-4.94,15.5-7.41,20.83-9.5,0,0,14.11-5.55,22.68-10.35,1.92-1.07,2.41-1.41,2.41-1.41,1.05-.74,1.17-1,1.56-1,1.06,0,1.76,2,2.83,4.26.95,2,0-.44,3.12,5.52,5,9.52,3.87,8.89,5.53,10.92s4,4.15,3.54,5.95a3.27,3.27,0,0,1-.71,1.27,4.93,4.93,0,0,1-2.55,1.14c-.09,0-1.1.49-3.12,1.42l-7.08,3.26c-6.28,2.91-100,46-102.19,47.05L77,333l-1,.46c-1,.48-1.15.54-1.31.5-.52-.14-.69-1.11-.75-1.49-.51-3.26-.14-6.35-.21-9,0-.19,0-.67,0-1.42,0-1.47,0-2.55,0-2.83,0-4.42,0-8.84,0-13.26a15.17,15.17,0,0,1,.18-2,4.62,4.62,0,0,1,.57-1.91,3.58,3.58,0,0,1,.81-.93" transform="translate(-70.63 -35.48)"/><path class="cls-5" d="M230.43,342.18c18.36-4.95,31.63-10.53,40.67-13.82,12.79-4.65,26.48-6.1,39-11.48a5.38,5.38,0,0,1,1.56-.42,4.38,4.38,0,0,1,1.77.07,4,4,0,0,1,2.13,1.77c.87,1.25.64,1.71,1.63,4.18a25.41,25.41,0,0,0,1.34,3c.71,1.32,1.2,1.89,1,2.62-.14.51-.46.54-1.2,1.49a12.23,12.23,0,0,0-1.06,1.7,8.94,8.94,0,0,1-2.55,2.48C310.3,337,299.52,340,299.52,340c-3.36.93-6.65,2.06-10,3-4.9,1.45-10.35,3.23-21.26,6.8-9.16,3-13.6,4.53-21.62,6.88a9.38,9.38,0,0,1-4.18,1.2c-.22,0,0,0-2.48-.35a9.7,9.7,0,0,1-2.76-.57,5.49,5.49,0,0,1-1.77-1.27" transform="translate(-70.63 -35.48)"/><path class="cls-6" d="M227.12,330.64c56.24-16.78,75.33-23.06,77.86-24.57a9.94,9.94,0,0,1,4.34-1.51,13.85,13.85,0,0,1,5.11.76c2,.57,3,.85,3.77,1.51,1.5,1.3,1.71,3.15,2.08,6.43a29.36,29.36,0,0,1-.19,7.93c-.08.58-.67,6.59-1.62,6.56-.73,0-1.24-3.82-3.67-8.64-.42-.83-1.09-.79-1.82-1.21-2.12-1.22-6.78,1.13-8.67,1.66-4.38,1.21-28.26,9.3-73.6,22.8" transform="translate(-70.63 -35.48)"/><path class="cls-5" d="M224.61,283.86c.54-5.37,9.65-5.65,31-14.74,12.21-5.2,34.42-15.84,37.6-17.58a14.71,14.71,0,0,1,1.61-.75,14.54,14.54,0,0,1,5.2-1c.49,0,1,0,6,1.42,3.35.93,4.49,1.29,4.63,2.07.08.47-.26.67-1,2.18a20.73,20.73,0,0,0-.85,2.27,23.22,23.22,0,0,1-5.76,7.93,29.44,29.44,0,0,1-9.07,5.67s-12.78,5.21-27.78,12.1c-2.77,1.27-20.56,9.43-23.34,11.24a9.69,9.69,0,0,1-2.36,1.13,11.86,11.86,0,0,1-2.55.48,12.07,12.07,0,0,1-3.5.09,9.21,9.21,0,0,1-3.12-1.32C228.85,293.38,224.21,287.92,224.61,283.86Z" transform="translate(-70.63 -35.48)"/><path class="cls-5" d="M188.25,263c49.89-23.82,69.27-33.26,70.66-34,.79-.42,1.49-.71,2.29-1.06a8.15,8.15,0,0,1,3.21-.73,4.91,4.91,0,0,1,3.12,1.32c1.5,1.15,2.25,2,3.83,2.55s1.8.85,1.4,2.83c-1,4.89-2.37,8.92-7.59,11.72a30.93,30.93,0,0,1-3.69,1.7c-4.28,1.29-22.07,9.38-65.86,30.71" transform="translate(-70.63 -35.48)"/><path class="cls-6" d="M219.51,270.35c27.56-12.68,47.75-21.91,51.78-23.72.79-.35,2.74-1.22,5.29-2.27,2.88-1.18,4.33-1.77,5.86-2.27a37.57,37.57,0,0,1,9.73-1.7c3.74-.2,2.26.39,10,.67,2.46.08,4,.07,5.29,1.22,1,.87,1.3,2,1.89,4.16.69,2.55,1.51,5.53.38,6.33-.66.47-1.39-.23-5.39-1.42a17.75,17.75,0,0,0-3.59-.85,11,11,0,0,0-5.38,1.14c-5.56,2.37-8.34,3.55-8.89,3.87-4.13,2.44-22,10.76-61.32,28.25" transform="translate(-70.63 -35.48)"/><path class="cls-6" d="M182.57,250.88c49.92-22.88,69.9-32.09,71.62-33,.11-.06.73-.38,1.61-.76a24.27,24.27,0,0,1,4.34-1.42,9.89,9.89,0,0,1,3.31-.38,11,11,0,0,1,2.74.76,9.2,9.2,0,0,1,2,.95,8.14,8.14,0,0,1,2.08,2,10.77,10.77,0,0,1,1.8,3.59,14.55,14.55,0,0,1,.56,4.16c.2,5,.26,4.51-.21,4.65-1,.29-2.89-1.12-6.4-3.33a4.54,4.54,0,0,0-2.17-.76,5.61,5.61,0,0,0-3,1c-1.49.8-3.14,1.28-4.63,2.08-2.68,1.44-28.62,13.91-67.08,32.31" transform="translate(-70.63 -35.48)"/><path class="cls-7" d="M73.81,434.38c-.85-83.52-1.13-113.91-1.13-116.93,0-1.39.06-3,0-5.95,0-1.87-.1-2.81,0-4.4a13.4,13.4,0,0,1,.71-4.67c.79-1.87,2.3-2.85,4.39-4.12a118.8,118.8,0,0,1,12.76-6.8c3.22-1.39,4.47-1.82,6.94-2.83,7.08-2.9,12-5.51,15.31-7.23,6.6-3.4,8.43-3.94,27.35-12.62,19.15-8.77,18.74-8.88,34.87-16.29,10-4.59,17.19-7.8,29.48-13.28s33.37-14.8,40.34-18.43c2.37-1.22,4.8-2.32,7.19-3.49a31.19,31.19,0,0,1,4.81-2.08,17.79,17.79,0,0,1,5.77-1,11.77,11.77,0,0,1,4.63.76,11,11,0,0,1,4.91,4c1.42,2.12,1.6,4.09,1.89,7.94a45.76,45.76,0,0,1-.19,8.6,18.44,18.44,0,0,1-.47,3.4,12.84,12.84,0,0,1-2.93,5c-2,2.13-4.11,2.91-6.61,4-3.42,1.44-6.61,3.36-10,4.82-6.17,2.63-12.14,5.7-18.24,8.5-8.34,3.84-16.68,7.71-25,11.53-11.71,5.35-50.45,23.61-136.87,63.59" transform="translate(-70.63 -35.48)"/><path class="cls-7" d="M73.67,377C224.61,329.49,281.3,311.54,287,309.65c1.12-.37,7.44-2.5,16.06-4.91a39.22,39.22,0,0,1,4.16-1.13c2.67-.56,4.41-.93,6.56-.55a9.94,9.94,0,0,1,5.18,2.41c1.83,1.73,2.34,3.8,2.9,6.24a27.44,27.44,0,0,1,.36,10.49c-.12.64-1.53,8.35-5.74,12a21.59,21.59,0,0,1-3,2.13,19.49,19.49,0,0,1-3.54,1.56c-30.38,10-45.57,15-57,18.42-1.71.51-2.76.85-2.76.85-2.84.92-3.18,1.17-4.47,1.49a15.56,15.56,0,0,1-5.17.5,8.72,8.72,0,0,1-5-1.49,7,7,0,0,1-2.13-3,107.81,107.81,0,0,1-4.6-14.59c-.51-2-1.83-6.26-3-9.75" transform="translate(-70.63 -35.48)"/><path class="cls-7" d="M302.15,340.4a78,78,0,0,1-.86,12.77,40.82,40.82,0,0,1-3.68,10.48c-2,3.81-4,6.2-6.95,9.64a36.53,36.53,0,0,1-5.53,5.67,29.63,29.63,0,0,1-8.22,4.54C261.24,389.31,112,435.65,99.32,439.62c-2.84.89-5.68,1.76-8.5,2.69a18.89,18.89,0,0,1-6.66,1.42,10.33,10.33,0,0,1-5.1-1,10.59,10.59,0,0,1-4.68-5.39,11.43,11.43,0,0,1-.71-2.26" transform="translate(-70.63 -35.48)"/><path class="cls-7" d="M217.17,269.67c1.9,3.91,4.87,10.19,5.74,12.49a88.58,88.58,0,0,0,4,9.21c1.56,3.09,2.5,4.44,4.11,5.39a9.82,9.82,0,0,0,5.25,1.13,18.31,18.31,0,0,0,9.35-3c2-1.28,9.56-4.73,24.66-11.62,3-1.36,3.76-1.62,23.25-10.2a35.15,35.15,0,0,0,11.05-7.23,22.64,22.64,0,0,0,5.81-8.22c2.23-5.76.33-12.27-.35-14.66" transform="translate(-70.63 -35.48)"/><path class="cls-7" d="M283.79,310.69c1-1.34,5.46-7.58,6.73-9.82a46.62,46.62,0,0,0,4.25-10.07c1.72-6.2,1.31-14.63.83-18.68" transform="translate(-70.63 -35.48)"/><path class="cls-8" d="M337.43,194q17.71-35.22,35.44-70.44" transform="translate(-70.63 -35.48)"/><path class="cls-7" d="M365,117.81c-2.33,4.46-6.74,13.27-10,20.06-3.93,8.21-5.45,11.93-9.26,19.85-2.39,4.95-5,10.31-8.69,17.19-3.09,5.74-6.91,12.75-9,16.24" transform="translate(-70.63 -35.48)"/><path class="cls-7" d="M382,127c-11.34,23.18-26.27,53.69-37.6,76.87" transform="translate(-70.63 -35.48)"/><path class="cls-7" d="M358.79,115c-.78-.32-2.78-1.14-5.29-2.46s-3.32-2-4-3a6.53,6.53,0,0,1-.95-3.4,6.35,6.35,0,0,1,.76-2.84c2.06-4,23.87-48,25.89-53.1a16.83,16.83,0,0,1,1.32-2.65,20.4,20.4,0,0,1,3.59-4.15,30.91,30.91,0,0,1,4.35-3.78c3.7-2.35,7.69-2.19,10.58-2.08,3.26.12,5.56.93,10,2.45a70.27,70.27,0,0,1,17.19,8.51,20,20,0,0,1,4.35,4,18.9,18.9,0,0,1,3.21,5.85,20.54,20.54,0,0,1,1,5.49,26.06,26.06,0,0,1-2.46,12.85c-6.41,13.86-20.57,42.15-22.11,45.63a35.82,35.82,0,0,1-1.61,3.22c-.38.68-.95,1.64-1.7,2.74-1.27,1.87-1.91,2.8-2.64,3.3s-2.06,1.05-4.92.76c-3.87-.4-6.82-1.82-10.2-3.59-2.94-1.54-4.29-2.33-8.41-4.63-5.75-3.21-8.67-4.84-11.05-6C360.69,115.79,358.79,115,358.79,115Z" transform="translate(-70.63 -35.48)"/><path class="cls-7" d="M180.82,250.47l14.87,29.06" transform="translate(-70.63 -35.48)"/><path class="cls-7" d="M266.94,246.47c3.6-1.47,15.39-6,17.58-6.55,5.77-1.34,13-.86,21.52.36,1.18.16,3.93,1.22,4.26,3.71" transform="translate(-70.63 -35.48)"/><path class="cls-9" d="M287,236.9c-.15-1.29,4.16-1.72,8.88-5.29,3.61-2.74,5.48-6.08,9.07-12.67,4.83-8.84,4.81-11.56,9.64-18.51,2.4-3.47,4.45-5.75,7.56-7.37a15,15,0,0,1,8.88-1.89A15.4,15.4,0,0,1,341,197a17.46,17.46,0,0,1,3.78,9.83c.55,7.48-3.79,13.06-6.42,16.44-5.7,7.33-12.75,10.44-16.63,12.1-8.27,3.53-15.21,3.67-20.41,3.78C295.47,239.29,287.18,238.67,287,236.9Z" transform="translate(-70.63 -35.48)"/><path class="cls-5" d="M289.91,236.8c-.05-.77,4.62-.89,12.75-3.78a58.69,58.69,0,0,0,13.61-6.42A49.22,49.22,0,0,0,330.44,212,80.33,80.33,0,0,0,338,196.63a9.08,9.08,0,0,1,1.27,1.26c.45.58,1.66,2,2.41,3.07a26.25,26.25,0,0,1,1.68,5.95,18.42,18.42,0,0,1-.63,6.14c-.72,2.25-2.32,5.6-6.48,10.06-9.52,10.23-22.83,13.46-23.44,13.54C303.57,237.87,290,238,289.91,236.8Z" transform="translate(-70.63 -35.48)"/><path class="cls-6" d="M231.23,342.54" transform="translate(-70.63 -35.48)"/></svg>
