<svg version="1.1" id="Capa_1" xmlns="http://www.w3.org/2000/svg" xmlns:xlink="http://www.w3.org/1999/xlink" x="0px" y="0px"
	 viewBox="0 0 496 496" style="enable-background:new 0 0 496 496;" xml:space="preserve">
<g>
	<g>
		<g>
			<path d="M360,68.008l-3.472-2.384C324.48,43.632,286.952,32,248,32c-38.952,0-76.48,11.632-108.528,33.632L136,68.008V110
				c-30.48,29.984-48,71.136-48,113.992v272h16V224c0-32.952,11.568-64.76,32-90.184V216c0,61.76,50.24,112,112,112
				s112-50.24,112-112v-82.184c20.432,25.424,32,57.232,32,90.184v272h16V224c0-42.864-17.52-84.016-48-113.992V68.008z M344,216
				c0,21.672-7.304,41.624-19.464,57.704c-5.048-3.784-10.272-7.336-15.792-10.336l-7.624,14.072c4.44,2.4,8.656,5.224,12.744,8.216
				C296.656,301.936,273.504,312,248,312c-25.528,0-48.704-10.08-65.92-26.392C201.2,271.648,224.28,264,248,264
				c13.264,0,26.24,2.304,38.576,6.856l5.528-15.016C278,250.64,263.16,248,248,248c-27.64,0-54.496,9.112-76.576,25.656
				C159.288,257.576,152,237.648,152,216V76.496C180.592,57.832,213.688,48,248,48s67.408,9.832,96,28.496V216z"/>
			<rect x="440" width="16" height="24"/>
			<rect x="410.515" y="14.52" transform="matrix(0.7071 0.7071 -0.7071 0.7071 139.6759 -292.1675)" width="24" height="16"/>
			<rect x="400" y="40" width="24" height="16"/>
			<rect x="414.551" y="61.469" transform="matrix(-0.7071 -0.7071 0.7071 -0.7071 669.3887 424.2071)" width="16" height="24"/>
			<rect x="440" y="72" width="16" height="24"/>
			<rect x="461.44" y="65.467" transform="matrix(0.7071 0.7071 -0.7071 0.7071 190.6165 -313.2544)" width="24" height="16"/>
			<rect x="472" y="40" width="24" height="16"/>
			<rect x="465.451" y="10.544" transform="matrix(0.7071 0.7071 -0.7071 0.7071 154.6118 -328.1775)" width="16" height="24"/>
			<rect x="40" y="80" width="16" height="24"/>
			<rect x="10.539" y="94.544" transform="matrix(-0.7071 -0.7071 0.7071 -0.7071 -34.0325 190.9912)" width="24" height="16"/>
			<rect y="120" width="24" height="16"/>
			<rect x="14.536" y="141.445" transform="matrix(-0.7071 -0.7071 0.7071 -0.7071 -70.0306 277.8815)" width="16" height="24"/>
			<rect x="40" y="152" width="16" height="24"/>
			<rect x="61.451" y="145.448" transform="matrix(-0.7071 -0.7071 0.7071 -0.7071 16.8847 313.8898)" width="24" height="16"/>
			<rect x="72" y="120" width="24" height="16"/>
			<rect x="65.451" y="90.544" transform="matrix(0.7071 0.7071 -0.7071 0.7071 94.023 -21.9034)" width="16" height="24"/>
			<rect x="464" y="208" width="16" height="16"/>
			<rect x="464" y="240" width="16" height="16"/>
			<rect x="480" y="224" width="16" height="16"/>
			<rect x="448" y="224" width="16" height="16"/>
			<rect x="120" width="16" height="16"/>
			<rect x="120" y="32" width="16" height="16"/>
			<rect x="136" y="16" width="16" height="16"/>
			<rect x="104" y="16" width="16" height="16"/>
			<rect x="152" y="336" width="16" height="16"/>
			<rect x="152" y="368" width="16" height="16"/>
			<rect x="168" y="352" width="16" height="16"/>
			<rect x="136" y="352" width="16" height="16"/>
		</g>
	</g>
</g>
<g>
</g>
<g>
</g>
<g>
</g>
<g>
</g>
<g>
</g>
<g>
</g>
<g>
</g>
<g>
</g>
<g>
</g>
<g>
</g>
<g>
</g>
<g>
</g>
<g>
</g>
<g>
</g>
<g>
</g>
</svg>
