<svg id="brows" xmlns="http://www.w3.org/2000/svg" viewBox="0 0 370.49 495.47"><defs><style>.cls-4{fill:none;stroke:#000;stroke-miterlimit:10;stroke-width:30px;}</style></defs><title>asdsad</title><path class="cls-4" d="M128.9,350.39c8.07-25.24,15.1-53.11,15.86-78.73,1.15-38.94-17.88-75.84-15-114.81,2.55-35,21.82-73.84,48-97a118.31,118.31,0,0,1,28.33-18.89c50.2-23,73.76,42.2,76.55,80.69a158.18,158.18,0,0,1-11.5,70.92c-12,29.64-33.82,55.19-40.76,86.77-3.78,17.16-4.32,34.91-3.56,52.42.78,17.68,2.76,35.5.08,53-2.53,16.51-9.49,32.67-21.52,44.26-23.66,22.81-63.95,20.08-81.41-9-10.79-18-5.8-37.8.56-56.38C126,359.29,127.47,354.88,128.9,350.39Z" transform="translate(-102.66 -21.15)"/><path class="cls-4" d="M355.43,431c4.84-26.06,11.84-53.93,23.3-76.86,17.42-34.85,51.65-58.34,67.6-94,14.34-32.07,15.74-75.36,3.61-108.19a118.29,118.29,0,0,0-16-30c-33.33-44-85,2.25-105.63,34.84a158.07,158.07,0,0,0-23.44,67.91c-3.45,31.8,3.66,64.62-5.17,95.73-4.8,16.91-12.73,32.8-21.69,47.85-9.05,15.21-19.23,30-25.15,46.64-5.59,15.74-7.1,33.28-2,49.18,10,31.29,46.83,48,76,30.59,18-10.73,23-30.55,26.19-49.93C353.77,440.2,354.56,435.62,355.43,431Z" transform="translate(-102.66 -21.15)"/><path class="cls-4" d="M322.26,177.19a168.48,168.48,0,0,1,41.95-.57c9.43,1.06,22.68,2.63,38.55,9.07,16.18,6.57,27.82,15.24,38.55,23.25,6.23,4.64,11.23,8.83,14.74,11.9" transform="translate(-102.66 -21.15)"/><path class="cls-4" d="M301.51,235a168.56,168.56,0,0,1,42-.57c9.43,1.06,22.68,2.63,38.55,9.07,16.18,6.57,27.81,15.24,38.55,23.25,6.23,4.64,11.22,8.83,14.74,11.9" transform="translate(-102.66 -21.15)"/><path class="cls-4" d="M143.27,122.07a168.79,168.79,0,0,1,41-8.64c9.47-.79,22.77-1.79,39.58,1.46,17.14,3.33,30.23,9.6,42.31,15.38,7,3.36,12.72,6.5,16.76,8.84" transform="translate(-102.66 -21.15)"/><path class="cls-4" d="M134.25,170.59a169,169,0,0,1,41.38-6.94c9.48-.39,22.82-.85,39.48,3.11,17,4,29.81,10.83,41.64,17.11,6.86,3.64,12.43,7,16.38,9.53" transform="translate(-102.66 -21.15)"/></svg>
